<?xml version="1.0" standalone="no"?>
<!DOCTYPE svg PUBLIC "-//W3C//DTD SVG 1.1//EN" "http://www.w3.org/Graphics/SVG/1.1/DTD/svg11.dtd" >
<svg xmlns="http://www.w3.org/2000/svg" xmlns:xlink="http://www.w3.org/1999/xlink" version="1.1">
<metadata></metadata>
<defs>
<font id="grecoromanlubedwrestlingMd" horiz-adv-x="827" >
<font-face units-per-em="2048" ascent="1638" descent="-410" />
<missing-glyph horiz-adv-x="614" />
<glyph horiz-adv-x="0" />
<glyph unicode="&#xd;" horiz-adv-x="681" />
<glyph unicode=" "  horiz-adv-x="614" />
<glyph unicode="&#x09;" horiz-adv-x="614" />
<glyph unicode="&#xa0;" horiz-adv-x="614" />
<glyph unicode="!" horiz-adv-x="643" d="M230.5 1234q5.5 48 25.5 85q20 35 29 42t32 9q57 6 82 -4q35 -14 68 -55t33 -70q0 -18 -8.5 -58t-16.5 -59q-8 -25 -24 -28q-12 -2 -13.5 -9.5t0.5 -42.5q4 -47 8.5 -53t-2 -14t-2.5 -78q8 -72 8.5 -194.5t6.5 -137.5q6 -10 0 -75q-2 -47 -5 -59.5t-16 -24.5 q-14 -12 -22 -14.5t-39 -0.5q-43 6 -49.5 10.5t-14.5 255.5q-4 94 -14 150q-12 66 -14 86q-4 33 -13 57q-20 63 -20 140q0 49 -12.5 71.5t-7 70.5zM254 106q16 20 10 25q-10 8 -7 19.5t19.5 22.5t34.5 13q76 8 95 -14q10 -12 18 -12q10 0 30.5 -13.5t20.5 -19.5t12 -23 q10 -14 12.5 -33.5t-7.5 -25.5q-37 -33 -68 -45t-76 -16l-53 -7l-23 25q-57 61 -18 104z" />
<glyph unicode="&#x22;" horiz-adv-x="866" d="M152 1309q8 14 20 27.5t18 13.5q8 0 11 10q6 8 35 18q63 20 88 -6q23 -25 30.5 -50.5t5.5 -72.5q0 -51 -6 -68.5t-26 -17.5q-12 0 -14.5 -4t-4.5 -33q0 -35 10 -118q12 -113 5 -140q-4 -10 -33 -23.5t-51.5 -13.5t-29.5 13.5t-20 79.5q-12 57 -18 72.5t-8 82.5 q-2 66 -8 86q-31 98 -4 144zM481 1243q2 25 6.5 35t22.5 31q29 31 22 34q-8 4 -4 19q9 21 58 29q16 2 39 0q18 -4 32 -5q41 0 41 -12q0 -6 11 -14q23 -27 12 -53q-6 -12 -6 -37q-2 -25 -8.5 -31t2.5 -33q29 -78 4 -198q-14 -61 -17 -119q-6 -66 -9 -83.5t-11 -23.5 q-20 -14 -74 13q-29 12 -35 34.5t-12 114.5q0 18 -8 32.5t-8 33t-13 39.5q-14 27 -29.5 95t-15.5 99z" />
<glyph unicode="#" horiz-adv-x="1275" d="M41 461q2 31 23.5 38t109.5 7h92l13 61l32 164q23 98 23 107q0 6 -31 6q-29 0 -88 8q-57 6 -82 6q-35 0 -45 4t-10 19q0 16 24 26q20 8 39 11q74 10 183 18h6q23 0 29 15.5t20 107.5q4 23 6 33q23 131 33 174q8 39 13 49t18 16q35 14 75 -18q14 -10 17.5 -17.5t1.5 -27.5 q-8 -63 -45 -262l-15 -78h29q29 0 104 -8q76 -6 80 -2q6 6 49 176t43 190q0 16 11.5 44t25.5 42q12 14 42 7t46 -29q8 -12 7 -39q-4 -16 -1 -24.5t15 -20.5q18 -16 16 -42t-37 -155q-35 -125 -34.5 -129t50.5 -6t58 4q10 6 26.5 -4t53.5 -14q47 -4 57.5 -8.5t10.5 -18.5 q0 -18 -11 -31q-6 -8 -27.5 -10t-113.5 -4l-135 -2l-14 -39q-51 -137 -60 -184q-6 -43 -16 -86q-10 -49 -6 -54q6 -6 81.5 -7t116.5 5q39 4 50.5 3t29.5 -11q23 -10 25 -15t-6 -18q-16 -23 -207 -22h-109l-4 -25q-29 -174 -33 -225q-6 -51 -16 -105.5t-16 -60.5 q-10 -10 -35 -11t-45 7q-23 10 -28 29.5t1 72.5q6 49 14 99q6 49 19 135q14 86 12 86q-4 4 -76 10l-108 10l-37 4l-10 -41q-27 -104 -72 -258q-16 -53 -16 -71q0 -20 -21.5 -51t-36.5 -33q-16 -2 -37.5 10t-33.5 33q-25 43 0 102q8 23 8 37q0 33 39 117q8 18 22.5 57 t23.5 70.5t7 31.5t-37 -10q-33 -12 -98 -16q-55 -4 -67.5 2t-10.5 39zM399 514q4 -4 76 -10q88 -6 107 -8l32 -4l17 92q20 100 33 153q16 62 16 80v19h-100q-98 0 -107 -5q-4 -4 -27 -102q-23 -100 -37 -155.5t-10 -59.5z" />
<glyph unicode="$" horiz-adv-x="1081" d="M104.5 108.5q-2.5 14.5 6.5 22.5q6 6 11 80t11 84q6 20 35 16t49 -26q12 -12 19 -64q4 -70 20 -89t80 -30q10 -2 30.5 -6t24.5 -6q14 -2 12 -20q-2 -12 1.5 -15.5t15.5 -5.5q18 -6 23.5 0t-1.5 103q-18 293 -18 438v67l-55 27q-115 57 -166 154q-23 45 -29 49 q-10 4 -24.5 31.5t-24.5 54.5q-10 33 -12 88q-2 51 -7 59q-6 8 4.5 16.5t30.5 10.5q18 4 21.5 9t7.5 32q4 37 27 69q23 35 22.5 41.5t15 10.5t25.5 0q10 -2 43 16q35 18 47 18t18.5 6.5t32.5 8.5q18 2 22.5 5t6.5 19q2 23 -6 72q-17 98 20 129q14 10 39 6q35 -4 43.5 -21.5 t10.5 -88.5l4 -84h45q45 0 84 -11q27 -6 67.5 -27.5t59.5 -39.5q10 -8 13 -7t15 17q16 23 23 23q10 -2 20 -13q-8 0 -6 -28q4 -27 -10 -37l-12 -10l24 -25l27 -25l-2 -57q0 -55 10 -63q12 -8 10 -31v-18.5v-14.5q0 -6 -8 -8t-41 -2q-43 0 -57.5 6t-11.5 27q0 18 -11 24 q-8 6 -10 39q-2 72 -84 150q-27 27 -40 30.5t-95 14.5q-2 0 -4 -7.5t-3 -38t-1 -77.5v-137v-261l37 -34q39 -37 88 -66q47 -29 75 -53q20 -16 27.5 -19.5t20.5 0.5q41 12 59 -24q10 -23 14 -23q8 0 31 -41t33 -71q14 -45 8 -113q-4 -53 -13.5 -78.5t-33.5 -58.5 q-14 -16 -27 -35q-35 -57 -35 -74q0 -6 -13 -15t-17 -5t-17 -12q-39 -47 -178 -64l-37 -4l-2 -57q0 -61 -4 -95q-4 -27 -7 -31.5t-22 -4.5q-27 -4 -51 4t-30 22q-4 12 0 88q0 20 1 36.5t1 26t-2 9.5q-6 -4 -83 5t-102 17q-41 12 -53 13q-10 0 -43 8q-33 6 -37 18 q-2 14 -16 27q-8 10 -10.5 24.5zM268 1047q6 -6 19 -35q23 -59 49 -60q12 0 49 -37l35 -36l2 129q0 129 6 209l2 81h-18q-18 0 -45 -19t-45 -46q-12 -18 -15.5 -32.5t-5.5 -55.5t-5 -52.5t-15 -21.5q-18 -16 -13 -24zM546 524q-1 -51 1 -125.5t5 -150.5t7 -131.5t8 -59.5 q2 -2 47 15q33 12 49.5 23t53.5 48q16 18 27.5 31.5t15.5 21t2 9.5q-6 4 0 69q4 47 3 61.5t-13 37.5q-14 33 -15 41q0 4 -51 50t-94 79q-39 31 -43 30q-2 2 -3 -49z" />
<glyph unicode="%" horiz-adv-x="1775" d="M86 1110l29 59q27 61 26.5 65.5t18 22t24.5 17.5q8 0 9 4q0 8 34.5 42t55.5 44q26 14 57 18q37 4 47 7q20 0 56 -11.5t49 -23.5q12 -10 15 -9t11 17q8 14 26.5 14t41 -11t29 -23.5t22.5 -34.5q12 -16 21.5 -56.5t5.5 -54.5q-4 -10 14 -18l18 -9l6 -90q4 -100 -6 -144 t-49 -83q-25 -27 -24 -37q0 -6 -39 -45q-88 -80 -185 -80q-33 0 -51 -16q-16 -14 -26 -15q-12 0 -56 27q-84 51 -111.5 81t-48.5 91q-16 45 -18 150zM242 1090q-14 -111 8 -156q8 -12 10 -45q0 -25 16.5 -56.5t30.5 -39.5q39 -16 64 -33q14 -8 43 6q43 23 74.5 74t31.5 98 q-2 70 -51 219.5t-78 169.5q-14 10 -29 10q-10 0 -38.5 -28.5t-28.5 -38.5q0 -6 -19 -45q-18 -41 -23 -58.5t-11 -76.5zM309 -17q8 29 53 99q66 102 250 334q59 74 138 188q104 152 307 420q86 115 135 176q39 49 62.5 99.5t41.5 76.5q23 29 53.5 58.5t39.5 27.5q6 -4 12 4 q10 16 14 -6q4 -10 2 -20q0 -31 -18.5 -80t-42.5 -80q-20 -29 -80 -123q-57 -86 -125 -170q-72 -88 -219.5 -303t-235.5 -358q-160 -256 -207 -322q-31 -41 -51 -27q-12 8 -4 37q0 8 1 12.5t-1 4.5q-4 0 -35 -43q-33 -45 -53 -56q-14 -6 -18 -6t-11 8q-16 20 -8 49z M1098 268q-2 47 6 129q10 90 29 123q27 51 69.5 79t120.5 44q10 0 94 2q68 0 91.5 -6t39.5 -29q12 -16 21 -41q8 -23 26 -41q27 -27 33 -48t2 -81q-2 -76 -12 -120q-10 -47 -37 -126t-45 -116q-45 -90 -164 -115q-57 -12 -95 10.5t-89 98.5q-78 123 -90 237zM1225 337 q2 -138 18 -138q6 0 6 -27q0 -39 37 -107.5t64 -78.5q16 -6 37.5 8t39.5 41q20 29 46 104q18 63 20 106.5t-10 145.5q-23 183 -39 197q-10 6 -58.5 6t-72.5 -6q-55 -16 -74 -68q-16 -45 -14 -183z" />
<glyph unicode="&#x26;" horiz-adv-x="1683" d="M49 336q-4 12 8 35q8 16 14.5 19t24.5 3q20 0 23 2q0 2 -8 6q-14 8 -15 19q0 14 28 60t48 65q27 27 27 35t13 12t25.5 0t12.5 6t22 18q20 8 39 29q47 51 142 94q29 12 38 19.5t7 13.5l-9 27q-4 18 -16 43.5t-20 31.5q-8 8 -21 35q-10 25 -4 72t0 53q-6 8 -1 32t13 26 q10 4 9 67q-2 45 0 56.5t16 25.5q23 25 99.5 74t103.5 57q37 10 65 14q35 5 43 9q23 12 98 -9q29 -8 66 0q14 2 22.5 -2t26.5 -24q27 -29 47 -66q25 -45 32 -110.5t-7 -100.5q-10 -23 -6 -28q4 -8 -8.5 -23.5t-24.5 -19.5q-16 -6 -35 -35q-6 -6 -15 -21.5t-14 -17.5 q-8 -14 -30 -14q-45 -2 -47 -29q-2 -16 -17.5 -28.5t-68.5 -37.5q-68 -31 -70 -32.5t15.5 -37.5t21.5 -38q6 -4 16 -35q14 -39 40 -90t38 -64q16 -16 23 -28q8 -14 47 -64q61 -78 86 -43q33 47 67 133q4 12 43 109q27 59 23 61q-31 12 -43 86h10q10 0 6 19q-8 33 -37 33 q-12 0 -12 24.5t9 31.5t46 11q63 6 72 2q8 -6 56 -11t81 -3q43 2 43 -4t11.5 -9t19.5 3q12 4 51 8q29 2 34 0t7 -14q4 -20 -3 -26.5t-34 -10.5q-33 -4 -37 -9q-8 -6 -36 -10q-23 -4 -43.5 -19.5t-20.5 -29.5q0 -8 -10 -24q-12 -16 -22.5 -35t-30.5 -33q-16 -12 -29.5 -38 t-42.5 -105q-27 -78 -92 -168q-41 -55 -41 -65.5t51 -65t63 -58.5q16 -4 58 -24q39 -23 49 -23t22 -16q8 -10 13.5 -11.5t23.5 3.5q27 6 31 22t17.5 14t19.5 16.5t35 51.5q27 33 26.5 37t20.5 14q31 18 49 -16q8 -16 -8 -49q-18 -35 -19 -54q-2 -18 -37.5 -59t-87.5 -80 q-18 -16 -90 -31q-47 -8 -80 0q-31 10 -73 19q-72 14 -129 65q-14 14 -41 30.5t-41.5 39.5t-22.5 27q-10 4 -53 -25q-37 -23 -76 -45q-35 -16 -35 -31.5t-22 -25.5q-70 -33 -176 -45q-74 -8 -125 -17q-70 -10 -88 13q-8 10 -27 12q-63 6 -117.5 42t-85.5 89q-29 55 -41 131 q-10 72 -12 82zM285 397q2 -41 8 -71q4 -31 43 -109t49 -82q12 -2 16.5 -14t18.5 -12t35 -9q18 -6 30.5 0t96.5 19q84 10 131 28.5t102 65.5l19 14l-74 78q-129 139 -156 238q-12 43 -39 82q-29 41 -33 41q-8 -2 -45.5 -20.5t-40.5 -24.5q-4 -6 -51 -29l-47 -23l-33 -63 q-25 -49 -28.5 -63.5t-1.5 -45.5zM575 1149l19 -47q16 -51 12 -70q-4 -20 6.5 -20t10.5 -19q0 -16 12 -32q12 -20 24 -43q16 -33 22.5 -37t20.5 4q43 23 74 37q57 29 86 49q23 16 29 26.5t14 42.5q12 47 15 134l4 90l-23 12q-23 12 -22.5 17.5t-28.5 25.5q-18 12 -30.5 15 t-41.5 3q-45 -2 -57 -6t-12 -22q0 -12 -6.5 -18.5t-26.5 -16.5q-43 -23 -56.5 -36t-25.5 -46z" />
<glyph unicode="'" horiz-adv-x="434" d="M94 1190q-10 80 6 129q2 14 2 31v6q49 14 76 12q4 4 8 6q27 14 29 12q53 -10 65.5 -28.5t10.5 -59.5q-2 -47 -8 -77q-14 -86 -19 -95l-2 -4v-6h-2l-2 -4q0 -4 -1 -5l-2 -2l-3 -3l-2 -2v-4q0 -2 1 -13.5t1 -17.5t-1 -17.5t-1 -15.5q0 -2 1 -4t1 -3t-1 -3t-1 -4v-8 q2 0 2 -2h-2v-2v-5v-8v-2v-4q2 -2 2 -6q2 -2 0 -4v-2v-12h2q2 -2 2 -7.5v-6.5t-2 -5q2 -2 2 -4h2q2 -2 0 -6h-2q-2 0 -2 -2h2v-2v-4t-2 -2h-2h-2q6 0 4 -4t-2 -9l2 -2h2q4 -6 -4 -18q0 -2 2 -2v-2l4 -2h2v-4q0 -4 -6 -13l-6 -8q-4 -2 -5 -3t-16 -1h-4l-4 -2h-6h-13.5 t-13.5 2h-6q-4 2 -6 2q-2 2 -6 2q-2 0 -8 4q-2 0 -4 2q-10 0 -21 2q-2 2 -2 13q-2 2 0 6v2q-2 2 -4 14q0 2 2 8v4q-2 4 -2 13v8q0 2 2 4q0 4 -2 4v2v2h-2v15l-2 10q2 6 6 12q-2 -2 -6 2q-2 2 -2 6l2 2v4v5q2 2 4 0v2v2q-2 6 -2 10v6v6v2v4q-2 0 -2 2h-2h-2q-4 4 2 11v6l2 14 l-6 4q-2 2 -2 6q0 2 2 2l2 2l-2 2v5v4q-16 29 -25 96z" />
<glyph unicode="(" horiz-adv-x="815" d="M72 461q0 2 4 35q4 51 8 79q2 8 5 21.5t5 19.5q18 94 21 103q14 63 28 102q12 35 47 109q2 4 4.5 10t4.5 12q2 4 6 11l6 8l7 14t5 11t2 8l4 4l4 4q12 23 29 49h-2v2l10 12q90 131 103 146l24.5 24.5t18.5 16.5l2 6q4 2 8 5t6 5q39 31 84 63q4 4 20.5 16.5t23.5 16.5 t20.5 14.5t23.5 17.5t12 9q2 0 7 2l2 4h2l4 4q2 2 3 2h3t4 3q12 6 14 6l2 2l2 2q2 0 8.5 -4t4.5 -6l-2 -7q0 -6 -4 -10q-2 -2 0 -2q0 -2 -3.5 -5t-3.5 -5q-4 -4 -9 -14.5t-10 -17.5t-11 -11q-14 -12 -41 -33.5t-41 -32.5q-61 -51 -88 -82q-12 -14 -35 -47q-53 -82 -74 -116 q0 -2 -3 -7.5t-3 -7.5l-4 -8l-2 -6q-12 -27 -25 -53q2 2 4 2q2 2 9 -4q18 8 43 -2q31 -14 4 -97q-6 -23 -23.5 -68.5t-25.5 -62.5q-4 -12 -23 -74q-6 -18 -10 -34q-2 -4 -2 -11q-2 -16 -2 -26v-15l2 -10q4 -59 4 -63v-4v-4q2 -2 2 -5l2 -2q2 -14 7 -48t9 -46q2 -10 2 -18 t1 -17.5t1 -13.5q0 -2 5 -6l4 -4q4 -8 6 -23q2 -4 0 -6t0 -6l2 -2q0 -4 2 -12.5t4 -14.5l-2 -8l-4 -2q8 -2 10 -20q2 -25 10 -50q2 0 2 -4t1 -5t2 -3l2 -4t1 -6v-6q2 -12 9 -25q0 -2 1 -5t2 -5t5 -4t4 -4q6 -10 4 -43v-23q-4 -6 -4 -8t-14 -6l-4 -4l-3 -6l-22 -2 q4 -12 8 -25l6 -18h-2q2 -4 4 -9q2 -2 2 -3t-2 -1q2 -2 2 -4q4 -2 4 -6l3 -2q4 -14 14 -25l3 -3t1 -2t1 -1t2 -1l3 -3v-4q4 -6 10 -10l2 -2q2 0 3.5 -1t3.5 -1h4q4 -2 12 -21q6 -10 6 -12v-6l-4 -8v-4v-5l-6 -6q4 -10 10 -18q0 -2 4 -9.5t6 -9.5q2 -4 5.5 -7t5.5 -7 q2 -2 6 -10t8 -12q14 -23 31 -39l12 -13q4 -4 9 -7t7 -3q12 -10 28.5 -27.5t20.5 -21.5q6 -4 12.5 -8t11.5 -6t7 -4l10 -5q2 -2 2 -8l9 -2l8 -2l-17 -22q-6 -2 -13 -3t-13 0t-10 1h-5l-4 2v-2q-2 0 -6 1t-4 3v-2q-2 0 -10 2q-49 18 -107.5 66t-107.5 112l-6 4 q-4 6 -10.5 17.5t-8.5 17.5q-2 2 -9 11t-9 15q-2 4 -17 37q-18 39 -28 68q-2 4 -4 6q-12 16 -17 23l-10 2q-4 6 -12 28q-4 6 -4 19q-2 4 -2 8q-2 0 -2 2v2q2 0 0 2q-4 12 -7 16h-2v4q0 6 -18 54q-2 4 -3 10t-3 8h-2q0 2 1 4t-1 2v9q-57 90 -84 241l-2 6q0 6 -1 17.5t-1 17.5 q0 2 -1 12.5t-1 16.5z" />
<glyph unicode=")" horiz-adv-x="757" d="M90 1397q4 4 8 6v2l4 8t3 3t8 -1q4 2 8 0l6 2q6 0 12 -4q6 0 11 -2q2 -2 6 -2q12 -2 21 -5t16 -7q37 -29 73 -70q12 -12 29 -35q14 -16 29 -32q2 2 8 4l4 6l2 4q6 2 15 4t18.5 3t17.5 1q4 0 12 -4l7 -6q2 0 2 -2v-2h2v-2q0 -2 2 -2t2 -2v-2q12 -14 45 -97h2q0 -2 1 -6 t3 -6q0 -2 2 -5t3 -5t1 -6.5t2 -6.5q0 -6 3 -14t5 -14q0 -2 1 -7.5t1 -7.5q2 -6 9.5 -19t7.5 -14t7 -14.5t9 -19.5q4 -8 8 -22.5t6 -18.5q0 -2 2.5 -3t3.5 -3t0 -5t-1 -5q2 -4 6 -9v-2q2 -2 2 -4h-2q4 -14 6 -20h2v-6q2 -4 8 -27v-2q0 -2 2 -6h2l2 -4v-2h2l2 -2v-5 q23 -47 39 -167l2 -5v-10t2 -10q0 -2 1 -8t1 -10.5t-1 -11.5t-1 -9v-51q0 -4 -2 -12.5t-2 -12.5q0 -12 1 -33.5t1 -31.5q0 -51 -2 -66q0 -10 -10 -74v-6v-8t-2 -8t-2 -6q-2 -4 -2 -9.5v-7.5v-4q0 -2 -2 -4l-2 -2q-2 -8 -4 -20.5t-4 -16.5h2l-4 -10q-6 -20 -16.5 -62 t-12.5 -48.5t-6 -18.5t-4 -14v-4q0 -4 -2 -6.5t-5 -4.5q-10 -27 -26 -59q0 -2 -6 -14.5t-8 -16.5q-23 -37 -24 -38t-2 -3t-1 -3t-2 1v-4l-2 -2l-2 -2h-2q-8 -6 -9.5 -6t-1.5 -2h-2h-6q-74 -154 -80 -162q-6 -10 -17 -26.5t-13 -18.5l-2 -6q-2 -4 -5.5 -7t-5.5 -3 q-33 -39 -63 -66q-18 -16 -35 -22q-35 -18 -45 -19l-4 -2h-4v2l-4 -2h-2h-2q0 2 -2 2h-11h-2q-2 2 -4 6t0 6q2 0 4 2.5t4 4.5v2l2 2h5q2 4 7 12t9 10q23 20 41 45q39 53 53 80q8 12 25 49q43 88 59 135q0 2 2 7v2q2 18 1 19t1 4t2 5h-2l2 4v7h-2l2 4v4q2 14 27 157 q2 27 8 97q-4 35 0 174l-2 6q0 4 1 11t-1 11v11.5v11.5t1 12t1 13q0 8 2 59v16q2 4 2 6q-4 4 -6 9q-2 2 -5 8t-5 8q-4 4 -9.5 8t-5.5 6q-12 16 -38 72q-14 35 -17 39q0 8 -2 14q-2 4 10 11l-2 8v10l19 6q18 6 30 4q2 0 7 -2q-6 43 -11 60q-2 4 -4 9t-2 9t-1 10t-1 8 q0 6 -2 11.5t-4 9.5t-2 6v4v4q-6 23 -12 45l-2 -2l-2 15q-16 59 -56 135q-18 39 -20 41l-4 2q-2 4 -3 8t-1 6q-25 39 -37 57q-2 2 -7.5 5.5t-7.5 5.5q-10 8 -20 20t-19.5 23.5t-11.5 15.5q-6 6 -12 13.5t-10 11.5t-6 8q-6 6 -11 10q-2 4 4 12l-6 9q-2 2 -4 6z" />
<glyph unicode="*" horiz-adv-x="1095" d="M223 1229q0 6 5 16t14 15q10 4 22 5t15 1h4h2q2 0 2 -2l6 -2h2q2 -2 3 -6.5t-1 -6.5l-2 -2q-2 -2 -2 -4v-2h-2q-8 -14 0 -16q10 -6 24 0q10 4 15 12l-2 -8q2 -4 12 -19q33 -37 55 -57l2 -2q4 -4 6 -4q2 -2 5.5 -4t3.5 -4q4 -2 55 -45q2 0 2 -2v6v4q0 2 2 3t2 3q2 20 4 31 h-2l2 8q2 10 15 96q0 4 3 15.5t3 13.5l-2 4q0 2 2 4t2 4q4 23 14 53q2 2 4 12.5t4 14.5t5 12t5.5 14.5t4.5 6.5v4l2 2h2v2q0 2 1 3t2 1h3q6 6 7 6t1 1t2 1q2 2 12.5 1t12.5 -3q0 -2 4 -4q6 -4 6 -8h2q2 0 2 -1t1 -3t1 -4q2 -2 8 -8.5t10.5 -11.5t1.5 -9q0 -8 -6 -51 q-2 -12 -7 -32.5t-7 -31.5q0 -6 -1 -17t-1 -13q-2 -10 -5 -27.5t-4 -30t-1 -20.5q0 -2 -1 -5t-1 -5l2 2h2q8 8 20 16q6 2 8 2t7 2l2 4q2 0 11 6t15 9l8 4l3 -2q4 6 20 14q25 10 47 24q2 0 5 2.5t4 3.5t3 2t4.5 2t6.5 2t6 1q10 4 20 10q2 2 5 3t5.5 2t4.5 3l2 2q12 6 36 10 q14 2 17 3h6t4 -7h4q4 0 4 -1v-11t-2 -10q0 -4 -4 -6l-6 -4h-2h-2l2 -2h-2h-2v-2h-2h-2q-12 -8 -46 -25.5t-48 -26.5l-2 -2q-2 0 -6.5 -2t-8.5 -4q-2 -2 -5 -4t-5 -3t-7 -4t-7 -3q-4 -2 -33 -19q-2 -2 -8 -5t-11 -5q-6 -4 -41 -29q-8 -6 -22 -16q-8 -6 -14 -10 q-2 -39 -2 -51v-4q2 -4 4 -7l26 -22q2 -2 7.5 -5t9.5 -5l4 -2q14 -6 35 -25q6 -4 8 -7t8 -7l4 -2q6 -4 18.5 -13.5t20.5 -17.5l10 -8l-2 -2q10 -2 33 -23q31 -27 63 -47q2 -2 6.5 -5t6.5 -5q2 0 4 -1t5 -3t7 -6.5t6 -6.5q12 -10 27 -18q2 0 5 -2t5 -4q2 0 6 -1t6 -1 q12 -6 29 -27q10 -10 10 -12q2 -4 2 -5t-6 -9v-5v-4l-10 -12q-10 -10 -18 -14q-2 -2 -7.5 -2h-7.5l-2 2v-2q-2 2 -4 2v2h-2q-20 8 -121 80l-4 2q-4 2 -9 6t-9 6t-9.5 6t-8.5 6t-9 8.5t-10 8.5q-10 8 -24.5 19t-22.5 17q-4 4 -12.5 11.5t-12.5 9.5q-12 10 -36.5 26.5 t-31.5 22.5q-2 0 -2 2l-2 -2q-2 -4 -2 -8l2 -4v-13.5v-17.5l-2 -8h-4q6 -6 4 -27q-4 -29 0 -57v-4v-6t1 -4t2 -4.5t0 -7.5t-1 -7q0 -14 4 -26q0 -2 1.5 -5.5t1.5 -7.5q2 -2 4 -5t4 -5q2 -10 0 -45q-4 -20 -4 -23q-2 -6 -4 -8q0 -4 -15 -6l-2 -4l-4 -6l-25 -2q-26 -2 -28 2 q-4 2 -10.5 9t-8.5 9v2v3t-2 -1v4v3h-2q-2 0 -2 2v4q-14 35 -20 141l-2 4q-2 2 -1 8t1 11q-2 2 -3 7t-1 7t1 9t3 9q0 8 1 20.5t1 22.5q0 2 1 9.5t1 11.5q2 10 1 29.5t-1 25.5v31l-2 -2q-23 -16 -68 -56q-2 -2 -10 -8t-8 -8l-2 -2q-2 0 -4 -1t-2 -3q-12 -10 -35 -27 q-2 0 -8.5 -5t-8.5 -7t-7 -6t-8 -6t-5 -2h-2v-2h-2l-2 -2h-2h-6h-3q-2 0 -8 5t-4 5q0 2 -2 5t-2 5v2v2v2q-4 20 2 25q6 8 29 28q8 6 23.5 17.5t19.5 15.5t11 10.5t11 8.5q10 8 31 24.5t29 22.5l2 2h2l-6 6t-4 6q-4 4 -9.5 7t-7.5 5l-4 2q-2 2 -3 4.5t-3 2.5q-4 4 -14.5 13 t-14.5 13h-2v-2l-8 10q-16 16 -45 42t-32 29l-10 10t-9 10l-2 2q-2 0 -4 4v2q-18 25 -19 47zM330 1237v4v-4z" />
<glyph unicode="+" horiz-adv-x="1261" d="M37 711q-6 10 4 34q2 4 12 5q6 6 8 6q6 0 21.5 -1t19.5 -1h13q-12 8 -19 6h-2q6 2 15.5 2t17.5 -8v-2h8q25 -2 39 -2h22.5t20.5 -2q6 0 54 -1.5t65 -1.5h7h7h8h6.5h16.5h16h16.5h16.5h8q8 0 33 1.5t43 1.5h10h6q10 94 13 186v19.5v19.5v14v2q-2 18 -2 37q-2 74 -2 82 q0 43 2 70q0 6 -4 12q-2 10 -2 14q-2 8 -7 107q-2 33 0 35q2 6 2 10q0 2 13 8l2 6l2 6q4 0 13 5t17.5 7.5t16.5 2.5q6 -2 11 -7.5t9 -12.5t7 -9q2 0 2 -6l2 -4h2v-4q2 -6 2 -9h2l2 -6v-4q23 -102 20 -346q2 -49 9 -139q4 -63 4 -92v-4q37 -2 75 0q6 0 15.5 -1.5t13.5 -1.5 t9 1.5t11.5 0t17.5 -1.5h15q29 -2 62 -2h11h11h13.5h11.5q37 0 82 -10q27 -6 33 -8q4 -2 6 -4q4 2 6 2q12 0 37 -6q16 -4 16 -6q2 0 6 -2q2 0 -4 -9l4 -4l2 -2q-16 -14 -26 -28l-4 -2h-3h-2l-2 2v-2l-2 2q-8 0 -53 5t-76 7h-4q-4 0 -11 1t-13 1h-9.5h-11.5t-12 1t-12 1 q-12 2 -64 4q-4 2 -15.5 2t-17.5 2h-90h-26q-2 -25 -2 -55q-2 -78 -5 -98v-12.5v-12.5q0 -6 1.5 -13t-1.5 -12q-2 -43 -14 -94q-2 -12 -6 -24q0 -16 -4 -47l2 -3q0 -2 -1 -4t-1 -4v-2q2 0 2 -2l4 -2q0 -4 2 -12v-21q2 -2 2 -4v-4v-2h2v-2q-2 0 -2 -2h2l-2 -2l-2 -2v-2 q-2 -2 2 -8l3 3t3 2t4 1v2h2l2 2h5v2h2q2 0 10 6h4v2h2h8h2h4h4h2l3 -2l2 -2q6 -10 4 -12l2 -2v-4v-2v-2l2 -5q2 -6 1 -8t-5 -4q-2 -2 -4 -2t-3.5 -1t-3.5 -1v-2q-2 0 -5 -2t-3 -4h-2v-2q-2 -2 -10 -6q-2 0 -2 -2h-8v-2q0 -2 -2 -2q0 -2 -2 -2h-2q-2 0 -3.5 -1.5t-3.5 -1.5 l-2 3l-2 -5q-4 0 -8 -2h-2v-2h-2q-2 0 -4 -2h-2v-2v-2h-6q-2 -6 -4 -10q-2 -2 -7 -6q-10 -6 -14 -6q-33 6 -53.5 14t-28.5 20.5t-10 18.5v6q-10 2 -23 8q-6 12 -5 25.5t8.5 46.5t9.5 45q0 4 -1 13t-1 18l-2 8q0 27 4 74q2 14 5 21t3 22v10q0 14 3 47t5 57q0 6 1 13.5t1 11.5 l2 4h4q-2 14 0 53h-34h-60h-19.5h-27.5h-102q-20 2 -37 2q-8 -2 -15 -2h-84h-9t-13 1t-14 1h-7q-4 0 -6 2q-2 0 -4 2h-2h-6h-2h-2v-2h-4v2v2q0 -4 -2 -2h-6h-2q0 2 -5 0q-2 2 -4 0h-2v-2h-2q-2 0 -8 4q2 -4 6 -6q6 -2 15 2v2h-2h-3h-2h-2h-2h-2q-6 0 -10 4q0 -2 2 -2h-2 l-4 5q-2 2 -2 4q-2 0 -2 2zM78 707q6 -2 10 -2l-1 1t-1 3h-8q-2 -2 0 -2zM115 705h2h-2z" />
<glyph unicode="," horiz-adv-x="593" d="M106 12q-12 49 11.5 102.5t62.5 82.5l4 2q4 2 18.5 6t16.5 6q6 0 19 2q29 2 47 0q12 0 24 -4q18 -8 31 -16h8h11h1l2 -3h3l2 -2h2v2l2 -2h2q45 -20 69 -94l4 -2v-7t3 -7q0 -2 1 -6t1 -6.5v-8.5v-8q-2 -25 -5 -35q-2 -4 -3 -9t-1 -9q-2 -6 -4 -21.5t-2 -23.5 q-4 -23 -8 -35v-4v-2v-4v-2q-6 -39 -27 -80q-4 -10 -24 -33q-2 -2 -2 -8l-2 -2q-2 -6 -11 -14q-4 -2 -6 -2.5t-4 -2.5v-4q-16 -10 -18 -12l-6 -2v2q-2 -6 -15 -12q-14 -4 -34 -15q-2 0 -5 -2h-4h-2q-2 -2 -3 -2t-5 -2h-4q-8 -2 -20 -4h-3l-4 -2q-2 -2 -4 -2l-4 -2 q-14 -4 -37 0q-16 2 -20 4q-4 0 -6 2q-2 0 0 6l-4 2l-4 4l2 5v4q0 6 2 6l2 2q2 4 4 4h2h-2v2h2q2 2 6 2l4 4q8 4 10 4q23 2 33 6q20 8 33 21q6 4 14 14q20 27 29 41q0 2 1 3t1 3t2 4v2q23 61 27 76q2 6 4 15q2 16 2 45v8q2 6 2 8q-6 -4 -13 -8q-8 -6 -14 -8l-16 -4 q-4 0 -9.5 -1.5t-7.5 -2.5t-4 -1h-4h-2q-18 -2 -37 -4l-12 2q-10 4 -18 11q-4 -2 -13 -9q-12 -8 -20 -10q-12 -2 -37 17q-2 2 -3 6t-2 5t-1 -1q-2 0 -2 4l-2 6q0 2 -2 0q-2 2 -5 10zM240 76h2q2 -2 4 -2l-2 -2h2q0 -14 -4 -33v-6v-4q10 -6 20 10q8 14 6 31q2 0 2 2q2 4 0 6 h-2q-2 2 -2 4l-2 -2h-4l4 4q-6 6 -12 8q-2 0 -6 -2h-2q0 -4 2 -8h-2h-2v-3t-2 -1v-2zM240 125q2 0 8 -4q2 -2 4 -2l4 -2q4 0 4 -2q2 0 4 -2v-7q2 0 2 -2v15l-2 2l-2 2q-2 2 0 4l-4 4h2h2h2q-6 6 -12 6q-8 0 -10 -8v-2q-2 0 -2 -2zM242 129h2h-2zM244 129h4l-2 2q-2 0 -2 -2z M246 72l8 -4q6 -4 10 -2l4 4v2v6q-2 2 -4 2q-2 -2 -4 -2l-4 -2l4 4q-4 2 -8 2h-6v-2v-6v-2zM248 129q2 0 4 2q-2 -2 -4 -2zM252 74q2 0 2 2v-2h-2zM252 131h6h-6z" />
<glyph unicode="-" d="M31 479v4v4v7q2 0 2 2l4 4v2q2 2 8 2v2l14 8h35q6 0 20.5 -1t20.5 -1h10.5h10.5q6 0 24.5 -1t24.5 -1h4h2q2 0 4 2h2q12 0 42 -1t32 -1q4 0 39 -2l8 2h18q2 0 4 -1t5 -1h2h9h11h2q2 0 39 -2q2 0 10 2t21 2q2 0 4 -1t6 -1h2h9h14h6v-2q4 2 18 0h41h4h4h3h3h5.5h5.5 q10 -2 20 0h2h6t4 1t5 3q10 0 32 -4q16 -2 19 -2q2 -2 4 -2q2 -2 2 -6l4 -2l4 -2q0 -2 -2 -10.5t-6 -12.5q-2 -2 -7 -4t-6 -2h-2h-4h-2v-2q-2 0 -3 1t-1 -1q-18 -2 -94 -2l-4 -2q-10 -2 -33 -6h-23.5h-19.5t-10 -1t-10 -1h-26.5t-26.5 -3h-3q-2 2 -2 0h-4q2 -4 2 -6 q-2 -14 -6 -14l-2 -4l-4 -4v-2h-2h-2l-12 -13q-4 0 -17 5q-2 0 -7 4t-7 4t-4 1t-4 1q-2 2 -9.5 5t-9.5 3h-2h-2q-4 2 -14 5t-12 5q-4 0 -9 2l-6 4l-2 -2h-2h-8q0 2 -2 2v2h-2h-4t-4 2h-4l2 3q-2 -2 -9 0q-10 2 -20 2q-2 2 -4 2q-2 -2 -3 -1t-2 1h-3q-4 2 -11 0h-2h-3t-2 -1 t-3 -1q-4 0 -20 2l-10 4q-2 2 -4.5 2h-3.5h-3h-3h-5l-4 2h-21h-4h-3t-5 -2h-2q-10 -2 -33 4q-14 2 -16 4q-2 0 -4 2q-2 0 -2 6l-4 2z" />
<glyph unicode="." horiz-adv-x="514" d="M138.5 86q-5.5 18 4.5 45q10 23 47 29q17 2 29 2q6 4 12 6t19 4h18h27t6 -1t4 -1q25 -6 49 -20l2 2l15 -15q0 -6 -2 -12q2 -2 2 -4q2 -23 -11 -39q-4 -14 -8 -27q-2 -2 -2 -4q2 -27 -12 -43q-14 -18 -55 -31l-4 -2q-2 0 -5.5 -1t-7.5 -1h-6l-18 -6q0 -2 -6 -2 q-18 -2 -33 6h-2v-2l-4 6q-20 33 -29 58l-4 4q-20 31 -25.5 49z" />
<glyph unicode="/" horiz-adv-x="741" d="M10 -10q-2 16 2 51q0 8 3 18.5t6.5 21.5t5.5 17q0 4 2 13.5t2 15.5q4 12 11 34.5t9 31.5q0 2 1 4t1 4v4v2q6 25 29 78q2 4 2 8q2 10 4 16t7 17.5t5 17.5q4 12 14.5 40t16.5 46q2 8 8 22.5t8 22.5q6 20 18.5 61.5t18.5 57.5q31 102 39 123q0 4 49 133q2 6 4.5 14t4.5 14.5 t6 14.5t6 10q2 8 5 17.5t5 15.5l2 6q2 4 4 7t2 5q4 8 13.5 30t13.5 34h-2l8 18q18 37 46 106.5t32 76.5q2 8 11 26.5t11 24.5v4q2 4 5.5 8t3.5 6q20 39 45 78q18 31 20 33q27 33 29 35l2 2l2 2h2v2l2 2h2h2q8 4 9 3t1 1h2q2 0 8.5 -4t6.5 -6l2 -4q4 -4 2 -9v-2h3t0 -2t-1 -4 q2 -2 4 -10t3 -11t-1 -12q0 -2 -27 -59q-6 -14 -22.5 -46t-24.5 -50q-6 -10 -14 -31.5t-8 -24.5q-55 -133 -62 -153q-2 -2 -4 -8t-4 -10.5t-3 -10.5t-1 -8q-12 -33 -47 -127t-47 -133q-12 -33 -31 -82q-6 -16 -12 -29q4 -2 6 -4q6 -4 11 -9l11 -11q2 0 1 -9.5t-1 -11.5v-2 l-2 -2q2 0 2 -1t-2 -2t-2 -2t2 -1l-2 -2v-2q-6 -23 -51 -111v-2q-2 -2 -4 -6l-4 -8q0 -2 -1 -5t-2 -5t-4 -6.5t-5 -6.5q-4 -8 -9.5 -17t-7.5 -11q-2 -4 -5 -8.5t-5 -6.5q-2 -6 -16 -41q-2 -6 -6.5 -20t-8.5 -21v-2q-12 -37 -20 -75q0 -2 -2 -9.5t-4 -11.5v-7t-1 -9t-4 -12.5 t-5 -12.5q-6 -25 -9 -47q0 -2 -1 -8t-1 -10q0 -6 1 -11.5t1 -7.5q0 -16 -12 -61q-8 -23 -8 -25l-6 -6q0 -2 -15 -2l-4 -4l-4 -4h-10h-8q-12 -2 -15 0q0 2 -6 4t-8 4h-2h-2l-2 4q-2 0 -2 2q-4 2 -10 6q-8 6 -12.5 10.5t-4.5 8.5z" />
<glyph unicode="0" horiz-adv-x="1159" d="M20 37q4 43 103 166l39 47l-27 57q-27 59 -31 109q-2 51 -14 51q-10 0 -13 12.5t-11 79.5q-4 37 -3.5 113t5.5 100q4 12 18 16q10 4 10 5.5t-6 7.5q-12 6 -12 35q0 102 22 178q10 33 10.5 48t11.5 26.5t25.5 8.5t20.5 15q10 25 54 87.5t69 86.5q70 70 91.5 83.5 t68.5 21.5q43 8 100 8q39 0 47 -2t10 -13q2 -16 -5 -16t-7 -4t16.5 -10t32.5 -6q2 -2 10.5 -2h12.5q10 -2 30 -23q23 -18 45 -35q23 -14 51.5 -42.5t37 -28.5t22.5 -17l16 -14l11 20q10 23 15 23t13 20q4 8 27 66q20 47 35.5 57t34.5 -10q14 -12 10 -33q-10 -47 -74 -155 q-27 -47 -31 -67t13 -36q8 -10 12 -31.5t8 -103.5q14 -262 2 -393q-6 -76 -41 -181.5t-71 -158.5q-20 -29 -21 -47q0 -31 -82 -88q-33 -23 -79 -45.5t-70.5 -26.5t-26.5 -10q-4 -4 -59.5 -4t-102.5 18q-29 12 -49 27.5t-63 58.5q-68 66 -72 80q-6 18 -14 12q-2 0 -2 -6 q0 -4 -29 -37q-25 -25 -43 -53q-16 -25 -30.5 -33t-31.5 -24q-14 -18 -26 -19q-10 0 -11.5 5t-1.5 26zM268 688q0 -156 8 -196q8 -43 3 -70l-5 -29l54 68q29 37 90 112l37 48l-13 26q-14 27 -10 45q4 23 17.5 42.5t23.5 19.5q14 0 19 8q4 6 18 5t22 -9q10 -8 13.5 -7 t13.5 15q14 18 47 53q70 76 99 125q16 27 26 37q8 10 8 18.5t-6 40.5q-10 43 -24 72q-12 27 -7 37q18 31 -69 117q-47 45 -68 53q-20 6 -20 18q0 6 -1 9.5t-7.5 2.5t-15.5 -3.5t-25 -8.5q-78 -29 -78 -55q0 -16 -25 -76q-25 -55 -55 -153q-45 -139 -49 -154 q-14 -43 -17.5 -70.5t-3.5 -140.5zM303 298.5q0 -9.5 8 -38.5q10 -43 25.5 -65.5t15.5 -32.5t53.5 -52t83.5 -53l37 -14l56 29q39 20 50 29.5t25 39.5q20 37 39 92q20 66 25 80q10 33 14 68q4 39 15 57q26 45 16 342q-4 86 -8 105l-6 18l-11 -16q-10 -16 -77 -105 q-70 -96 -62 -98q6 0 6 -10t11.5 -18.5t5.5 -24.5q-16 -33 -84 -41q-33 -4 -52 -27q-25 -31 -59.5 -82t-42.5 -71q-12 -27 -27 -31q-35 -6 -38 -25q-2 -14 -13 -32q-6 -14 -6 -23.5z" />
<glyph unicode="1" horiz-adv-x="923" d="M270 1229q0 4 2 8q2 6 90.5 51t143.5 70q20 8 20 18t15.5 11.5t38.5 -7.5q43 -18 28 -127q-8 -63 -2 -274q8 -436 10 -766q0 -33 2 -82q2 -33 6.5 -42t23 -25.5t29.5 -20.5t46 -4q49 -2 55 -8t0 -21q-2 -16 -28.5 -19t-131.5 3q-106 6 -132.5 6t-30.5 -6q-4 -8 -82 -7 t-84 9q-10 12 -3 20.5t23 8.5q45 0 101 51q18 16 22 26.5t8 44.5q6 90 9.5 346.5t-0.5 428.5q-4 156 0 206q2 37 -0.5 45.5t-16.5 22.5q-18 16 -45 27q-20 10 -29.5 10t-38.5 -8q-49 -12 -49 4z" />
<glyph unicode="2" horiz-adv-x="1097" d="M66 51l43 43q45 45 90 82q49 41 73 74q29 37 50 59q23 27 47 66q33 49 81 102t62 53q8 0 41 45.5t61 98.5q47 84 62 287q4 43 -8 73q-14 29 -14.5 38t-6.5 9t-6 12.5t-6 16.5t-6 14q0 12 -16.5 34t-32.5 28q-18 8 -66 16q-47 10 -50 21.5t-50 11.5q-57 0 -87 -13.5 t-79 -60.5q-45 -45 -56.5 -64.5t-15.5 -54.5v-28l-35 -2q-29 -2 -37 3t-12 25q-8 45 7.5 84t62.5 88q39 39 76 80q65 74 215 92q25 2 57 5q39 0 49 -13q10 -14 27 -14q18 0 72.5 -20.5t78.5 -36.5q29 -20 60.5 -50t40.5 -43q8 -16 20 -86q14 -72 10 -137q-6 -88 -24 -88 q-8 0 -35 -65q-29 -66 -49 -103q-25 -45 -72 -108.5t-80 -98.5q-47 -51 -73 -82q-35 -43 -102.5 -116.5t-88.5 -91.5q-23 -20 -20 -23q4 -4 -5.5 -21.5t-19.5 -25.5q-20 -16 12 -19q6 -2 15 -2q35 0 67 -4q31 -6 154 0q186 8 250 19l51 10l20 37q23 39 35 41q10 2 30.5 -7.5 t20.5 -17.5q0 -10 -20.5 -58t-36.5 -77q-27 -45 -25 -57q4 -12 -2 -17q-18 -10 -211 -10q-27 0 -290 2q-229 2 -260 -2l-29 -6l-6 27z" />
<glyph unicode="3" horiz-adv-x="1001" d="M82 82q2 23 20 37q16 12 27 22q10 12 49 12.5t55 -14.5q16 -12 33 -12t29 -12q14 -12 59 -25q45 -14 101 -10q66 4 95.5 16.5t70.5 48.5q31 27 41 42.5t18 39.5q31 88 18 172q-16 104 -28 131q-23 43 -150 111q-51 27 -57 31q-6 8 -47 6q-59 -2 -73.5 0t-14.5 16 q0 8 4 12.5t16 6.5t17.5 5t3.5 7q-4 10 7 17.5t25 2.5q18 -2 27 9q10 8 25 6q16 -2 16 2q4 6 45 43q100 88 100 119q0 12 17 49q14 37 6 48t-8 32q0 12 -21.5 62t-29.5 56q-6 4 -19 23q-14 20 -59 41q-33 14 -49.5 17t-61.5 3q-80 -2 -94 -20q-6 -6 -16 -14q-10 -6 -38 -42 t-28 -42q0 -4 -10 -4t-10 -11.5t-13 -27.5q-8 -10 -12 -10.5t-18 6.5q-31 16 -30 41.5t36 70.5q95 121 245 160q43 12 109 12q43 -2 60.5 -5t43.5 -17q43 -20 59.5 -24.5t44 -32t40.5 -50.5q33 -63 33 -131q0 -51 -49.5 -143t-90.5 -119q-8 -6 -24 -27l-17 -24l35 -17 q39 -18 89 -65t69 -82q12 -29 31 -47q18 -20 22 -43q12 -63 -14 -176q-10 -47 -11 -70q2 -41 -69 -125q-61 -76 -184 -145q-59 -33 -99 -35q-41 -4 -61 -14q-23 -10 -80 -10.5t-86 12.5q-29 10 -59 10q-70 0 -87 41q-10 20 -16 22q-8 4 -8 25z" />
<glyph unicode="4" horiz-adv-x="1138" d="M43 391q-16 31 0 94q6 20 51 82q45 59 82 125t55 84q16 20 23 37q2 12 45 68.5t86 101.5q35 39 45 59q6 16 39 66q23 33 57 88q31 51 64 84q37 39 37 47q-2 6 10 31q8 14 13 18t20 2q94 -10 108 -22q10 -8 6 -287q-2 -276 -6 -369q-2 -23 -4 -77t-2 -72l-2 -57l66 -5 q84 -4 106 -6q43 0 51 -8t2 -18.5t-18 -10.5q-16 0 -17.5 -14t13.5 -29q35 -39 -35 -41q-27 0 -76 5q-68 6 -72 2t-2 -158q0 -115 -4 -147.5t-18 -32.5q-8 0 -11 -8.5t-64.5 -13.5t-76.5 3q-8 6 -10 13.5t2 29.5q2 35 4 144q0 72 -2 92t-12 39l-12 26l-195 4q-195 4 -235 2 q-92 -6 -111 29zM125 483l20 6q20 4 240 5l221 -2v172q2 172 0 215v170q4 123 0 122.5t-43 -57.5q-31 -43 -65 -117q-10 -23 -45 -65q-53 -72 -78 -125q-8 -20 -19 -21q-8 0 -28.5 -21.5t-36.5 -45.5q-14 -23 -41 -51q-25 -29 -25 -35t-35.5 -61.5t-50.5 -71.5z" />
<glyph unicode="5" horiz-adv-x="1040" d="M91 127.5q1 5.5 13 15.5q37 31 103.5 29t81.5 -33q8 -16 76 -41q66 -23 81 -26q14 -2 82 24q49 18 65.5 29.5t55.5 52.5q82 84 82 129q0 16 8 49q10 31 6 37q-4 2 4.5 12.5t2.5 18.5q-6 6 -17 45q-8 27 -31.5 83t-29.5 62q-4 2 -10 17q-8 10 -37 32.5t-58 49.5 q-33 29 -90 49q-59 18 -96 39q-27 12 -45.5 16t-77.5 4l-84 2v27q-2 29 12 51q12 20 27 51q10 27 39 78t53 125q14 39 22.5 45t28.5 66q20 61 27 69q8 8 33.5 8t36.5 7q12 6 194 8q187 4 189 8q8 8 33.5 -2t25.5 -23q-2 -10 -12 -32q-10 -20 -13 -31q0 -6 -10 -27 q-6 -12 -16 -41q-10 -25 -27 -20q-14 2 -258 10q-119 4 -131 4q-16 2 -18 -10q-4 -16 -14.5 -30.5t-20.5 -47.5q-10 -31 -32.5 -75t-22.5 -46t49 -6q53 -4 71 -12q20 -8 78 -27q61 -23 88 -35q31 -12 74 -41.5t43 -36t39 -42.5q78 -74 80 -146q0 -33 10 -61q10 -31 10 -45.5 t10 -46.5q25 -80 -4 -160q-18 -59 -98 -141q-35 -39 -35 -49.5t-26 -24.5q-29 -14 -41 -29q-12 -16 -78 -40.5t-76 -35.5q-23 -20 -162 -36q-61 -6 -116.5 7t-68.5 22t-24 9q-14 0 -28.5 15.5t-14.5 32t-6 40.5q-6 16 -5 21.5zM360 442.5q0 8.5 15 26.5q16 23 18.5 37 t16.5 22q18 10 38.5 8.5t32.5 -12.5q12 -12 18.5 -12t9.5 -10t0 -16.5t5 -6.5q10 0 20.5 -12t10.5 -23q0 -14 -10 -24q-10 -6 -45 -15.5t-39 -5.5q-4 2 -13 -10q-10 -12 -18 -12q-12 0 -23.5 11t-11.5 20q0 12 -12.5 19t-12.5 15.5z" />
<glyph unicode="6" horiz-adv-x="1101" d="M92.5 471q-4.5 68 5.5 107q6 27 8 77q0 51 25 103q23 51 33 84q29 82 106 188q43 55 56 74q16 27 77.5 85t98.5 85q92 63 196 104q33 13 72 19q43 10 94 10t51 -9t-4 -9q-6 0 -4 -19q0 -12 -9 -15t-58 -12q-137 -23 -228 -100q-47 -41 -47 -45t-24 -31 q-23 -23 -57.5 -70.5t-41.5 -62.5q-4 -14 -20 -35q-16 -18 -33 -77q-18 -61 -27 -80q-10 -20 -10 -25q0 -6 -12 -31q-12 -29 -12 -30l6 4q6 4 16 10q23 16 105 43q80 25 145 29l66 4l75 -39q84 -41 107.5 -61.5t64.5 -88.5q18 -29 27 -30q14 0 18.5 -37t-3 -103.5 t-25.5 -152.5q-6 -29 -47 -110t-64 -109q-18 -23 -63 -54.5t-78 -44.5q-20 -6 -24.5 -12t-30 -11t-50.5 -5q-29 0 -30 -8q-6 -6 -43 -5.5t-72 11.5q-29 8 -66.5 28.5t-46.5 32.5q-4 6 -34 23q-27 14 -78 61q-43 39 -70 85t-20 73q4 25 4 57.5t-6 38.5q-14 18 -18.5 86z M283 426q-14 -20 24 -133q25 -74 41 -88q12 -8 12 -35q0 -20 4.5 -28.5t26.5 -22.5q88 -63 166 -62q23 0 66 10.5t47 16.5l2 4q4 4 9 11t9 12q18 25 43 65l23 37v92q0 92 6 101q10 12 -2 92t-31 123q-16 37 -54 82t-65 55q-18 10 -73 12q-51 4 -72 -6q-51 -29 -90 -51 l-72 -41l-4 -70q-6 -72 -8 -119q-2 -51 -8 -57zM463 426q-8 25 14 33q15 4 37.5 28.5t42.5 22.5q23 -2 33 -25q12 -20 6 -26q-12 -14 6 -21q14 -2 13 -15t-17 -28q-12 -12 -43 -21t-53 -9q-14 0 -24.5 10t-12.5 24q-2 23 -2 27z" />
<glyph unicode="7" horiz-adv-x="1163" d="M78 1090l2 18q4 14 4 20q2 6 41 52l43 49l-12 16q-10 16 0 24.5t8 29t10 20.5t16 16q0 8 -6 11q16 2 43 4q53 6 78 12q29 6 135 2q221 -8 430 0q113 4 119 -12q2 -6 -2 -19q-4 -18 -24 -24q-12 -4 -19.5 -17.5t-28.5 -74.5q-27 -86 -51 -148q-33 -82 -65 -182l-6.5 -19.5 t-7.5 -23.5t-5 -17q-8 -20 -14 -49l-6 -24l123 2q139 4 139 -13q0 -2 -2 -8q-6 -8 -38 -13t-151 -11q-90 -6 -90 -9q-4 -4 -59 -159.5t-84 -235.5q-39 -121 -55 -149q-16 -33 -17 -60q0 -25 -12 -45t-14 -41q-2 -14 -6.5 -19t-16.5 -7q-20 -6 -35 -4q-14 4 -29.5 16 t-15.5 18.5t43 130.5q43 127 47 164q4 39 52 168q14 39 36.5 100.5t24.5 65.5l18 53q4 8 -1 10.5t-25 2.5q-41 0 -109.5 8t-89.5 14q-16 6 -21 11.5t-5 13.5q2 8 11 10t54 2q57 0 135 -4l72 -6l8 18q4 14 33 115q27 96 37 121q10 23 33 92q23 72 30 86l11 18l-82 -6 q-82 -4 -226 -4q-139 -2 -167.5 -12t-43 -10t-14.5 -15q0 -18 -20 -6q-10 8 -27.5 -18.5t-17.5 -51t8 -28.5q6 -2 -17 0q-20 2 -20 0q2 -2 6 -4t7 -10.5t3 -14.5t-4 -6q-2 0 -33 18q-27 18 -47 23q-23 6 -18 25z" />
<glyph unicode="8" horiz-adv-x="1073" d="M139 332q0 33 4 48t21 52q29 51 94 119q90 92 137 117l19 8l-19 12q-20 10 -41.5 39t-60.5 61q-88 74 -88 91q0 10 -12 20q-16 8 -7 22.5t-1.5 25.5t-18.5 63q-4 49 -10 59q-8 14 -6 21.5t14 21.5q16 14 18 51q2 31 11.5 52.5t37.5 52.5q35 39 98.5 68.5t133.5 39.5 q98 12 205.5 -14.5t158.5 -75.5q23 -23 43.5 -56.5t20.5 -49.5q0 -14 10 -29q10 -20 8 -63.5t-16 -71.5q-29 -55 -102.5 -138t-133.5 -126q-18 -14 -15 -23.5t54 -36.5q82 -43 95 -84q4 -12 38 -51q31 -35 41 -55q2 -6 8.5 -17.5t6.5 -13.5q8 -14 12 -51q8 -39 17.5 -50.5 t6.5 -17.5t5 -24q8 -16 4 -59.5t-17 -55.5q-8 -10 -26 -47q-31 -55 -99.5 -103.5t-150.5 -70.5q-111 -29 -217.5 -10.5t-183.5 81.5q-33 27 -44.5 44.5t-11.5 39.5q0 18 -16 48q-25 41 -25 137zM287 330q4 -4 16 -6q20 -8 27 -33q8 -29 12 -33q8 -14 18.5 -54t8.5 -50 q-4 -16 -17 -27q-10 -8 -9 -12t17 -19q55 -53 148 -57q74 -4 121 11.5t90 55.5q33 31 53 76q29 59 12 60q-8 0 -22 23.5t-17 39.5q-4 16 -18 43q-20 33 -22 43q-8 18 -12.5 18.5t-24.5 30.5q-20 33 -27 33q-4 0 -71 66t-81 84q-8 10 -14 9t-31 -20q-20 -14 -52 -48t-32 -42 q0 -6 -21.5 -48t-19 -47t-12.5 -30q-12 -23 -8 -41q2 -18 -6 -18q-18 0 -6 -8zM311 1159q4 -31 6 -61q6 -94 23 -94q8 0 52 -48.5t44 -56.5q0 -10 76 -65q39 -29 47 -41q4 -8 9 -7.5t24 15.5q27 23 61 59q47 51 56 60q18 20 10 26q-10 6 0 47q8 35 7 100.5t-9 82.5 q-6 6 -2 32q2 16 -1 24.5t-22 24.5q-53 48 -135 62q-41 4 -45 4q-2 0 -43 -6q-80 -12 -124 -56t-34 -102zM485 311.5q4 24.5 27 32.5q68 20 84 -25q8 -23 5 -27.5t-26 -4.5q-29 0 -34.5 -6.5t-14.5 0.5q-10 6 -2 6q6 0 6 26q0 43 -26 13q-10 -10 -10 -14.5t8 -16.5 q8 -16 6 -16h-4q-23 8 -19 32.5zM487 1059q0 39 52 33q24 -2 32 2q12 8 35 0q16 -6 16.5 -16.5t-12.5 -2.5q-14 6 -26 6q-14 0 -11 -10q10 -27 7.5 -34t-27.5 -13q-66 -16 -66 35z" />
<glyph unicode="9" horiz-adv-x="1153" d="M98 896q-2 71 4 95q10 31 11 78q2 88 67 148q37 35 47 51q12 18 37 24q23 6 49 29q51 48 133 68q53 14 109.5 5.5t85.5 -34.5q10 -10 18 0q20 23 62 -10q43 -29 70 -76q10 -20 26 -27q14 -6 41 -71q25 -68 27 -78q4 -14 28 -13l27 2l23 -53q25 -53 24 -63q0 -12 6 -12.5 t6 -37t7 -42.5q8 -8 3 -21.5t-18 -15.5q-10 -2 -12 -10.5t-2 -40.5q0 -43 -10 -91q-6 -31 -11.5 -40t-17.5 -15q-18 -8 -29.5 -32.5t-7.5 -43t-8 -60.5t-27 -71q-16 -29 -26 -55q-10 -23 -42 -69t-57 -72q-49 -51 -92 -60q-14 -2 -41 -32q-41 -49 -109.5 -96.5t-125.5 -65.5 q-57 -20 -126 -19.5t-69 21.5q0 8 29 18t67 17q90 12 162 75q27 25 81 92.5t65 90.5q2 2 8 16t15 33.5t20 38.5q25 53 47 118.5t18 71.5q-4 2 -14 -4q-14 -6 -64 -16q-59 -12 -71 -19q-20 -4 -58 -4q-37 2 -53 -6q-20 -10 -71.5 2t-92.5 39q-20 12 -43.5 36.5t-23.5 33 t-23 30.5q-23 20 -41 56t-18 57q0 18 -8.5 38.5t-10.5 91.5zM299 991q-4 -12 9.5 -19t13.5 -40t9 -65.5t9 -49t8 -18.5q4 -2 12 -31q6 -27 15.5 -49.5t15.5 -22.5t7 -10t-2 -22.5t-7 -14.5q-31 -10 17 -39q18 -10 43 -20q41 -12 68.5 -11t88.5 21q84 27 111 55 q16 16 24.5 16.5t10.5 65.5q0 74 -2 82q0 16 6 43t2 31q-4 2 -4 57q0 53 -8.5 61.5t-4.5 45.5q4 35 -10 47t-14 22q0 6 -21.5 45t-27.5 46q-4 2 -27 28q-20 29 -28.5 29t-12.5 12.5t-39 32.5q-55 31 -96 16q-53 -20 -105.5 -111t-54.5 -171q-2 -53 -6 -62zM463 954 q0 43 41 45q19 1 31 5q20 8 40.5 -1.5t20.5 -25.5q0 -12 -13.5 -27.5t-23.5 -15.5t-24 -14q-20 -18 -46 -6t-26 40zM471 956q15 -38 31 7q6 20 6 24t-6 4q-12 0 -25 -8q-12 -10 -6 -27zM557 963q-2 -23 2 -23q6 0 11 13.5t3 21.5q-8 20 -14 2q-2 -6 -2 -14z" />
<glyph unicode=":" horiz-adv-x="555" d="M156 842q0 31 4 43q0 6 3 9t3 5q18 41 55 57l21 2q10 -2 18 -4q37 8 59 2q18 -4 39 -32q18 -25 20.5 -55.5t-16.5 -53.5q-6 -6 -16 -12h2q11 -11 17 -19q2 -8 2 -11t-2.5 -11t-2.5 -10l-2 -2q-2 -4 -2 -7l-2 -2q-2 -4 -4 -6h2q-2 -4 -8 -8q-51 -25 -102 18q-20 16 -33 37 q-14 4 -29 11q-12 6 -20 20q-6 10 -6 29zM176 49q-20 55 2 84q4 6 15 10q6 12 20 37l2 6q6 6 10 9q49 25 97 18q16 -2 31.5 -23.5t8.5 -35.5q-4 -13 -14 -23q6 -2 12 -6q55 -35 54 -86q-2 -12 -19 -25q-6 -4 -24 -8q-8 -2 -17.5 -5t-11.5 -3t-5 -1t-5 -1q-8 0 -23 -2 q-16 -12 -39 -21l-6 -2q-23 0 -39 9.5t-28 27.5q-12 20 -21 41zM275.5 161q-1.5 -5 0.5 -7q3 0 5 -2q0 6 -2 8q-2 6 -3.5 1z" />
<glyph unicode=";" horiz-adv-x="616" d="M76 74q2 4 26 26q43 43 72 54q2 4 6 6q37 27 83 32t59 -6q16 -12 16 -36q14 -6 29 -17q18 -10 53 -41q18 -16 20 -20q18 -25 31 -68v-4v-4t1 -4t1 -4q-4 -51 -39 -94q-4 -4 -39 -31q-2 -2 -4 -8v-2q-4 -8 -12 -17q-4 -2 -6 -2t-4 -4v-2q-2 -2 -8.5 -7t-10.5 -9l-4 -5 l-2 3q-2 -6 -14 -17q-16 -14 -33 -33q-2 0 -4 -2l-3 -3t-2 -3t-2 -3t-5.5 -3t-4.5 -4q-10 -6 -16 -16q-2 -2 -4 -4.5t-3 -3.5t-3 -4t-2 -5q-8 -8 -33 -22l-18 -9q-4 -2 -6.5 -2t-6.5 5q0 2 -4 0h-6l-6 10q-4 10 -6 16q0 4 4 9t4 6.5t2 3.5q0 2 2 4l2 2l2 2q6 8 74 80l2 2 q2 2 5 4t3 4q2 2 4 5t4 5t5.5 4t5.5 4q6 4 12 11.5t10 9.5q2 2 6 5t4 5q2 2 25 31q10 12 16 28q6 14 8 27q0 2 -1 3t-1 2t1 2t1 3t-2 4v2v11h-2l2 2q0 10 -8 32l-6 15h-2q-2 2 -2 4v2q0 2 -2 2q0 -2 -6 -8q-18 -18 -55 -25v-2h-15q-29 0 -55 17q-14 -6 -31 -11l-2 -2h-7 t-7 -1t-7 -1t-9.5 -1t-8.5 -1q-20 -2 -24 0q-55 18 -37 66zM147 72q-2 -8 9 -11q6 -4 14 -2q0 -6 2 -10t8 0q-6 4 -8 10h6h-2q2 6 -4 9q0 -2 -2 -5v-4q-4 6 -6 15h-8q-6 0 -9 -2zM168 879q0 4 4 14q12 35 30.5 50t63.5 18q12 0 23 -11h8q14 2 29 -8q8 -4 16 -18q2 -2 4 -2 q23 -8 33 -23q14 -23 2 -49q-6 -12 -14 -23q0 -6 -2 -12h2l-13 -18q-25 -8 -51 -13q-4 0 -10 -2q-4 -2 -19 -4q-10 -4 -16 -4l4 -6l6 -6q-4 -2 -8 -7t-9 -9.5t-9 -4.5q-8 -2 -12.5 -1t-12.5 3t-10 2q0 2 -3 4.5t-5 2.5v-2q-2 0 -6 4l-3 2h-2q-4 0 -8 6q-12 27 -4 55 q-4 14 -4 27q-2 10 -2 28zM170 59h2h-2zM227 100q10 -10 19 0q-9 7 -17 11l-2 -2q-2 -4 0 -9z" />
<glyph unicode="&#x3c;" horiz-adv-x="1304" d="M86 705q6 8 10 12q0 23 13 51q4 12 14 20.5t30.5 18.5t22.5 12q98 57 211 99q35 12 102.5 34.5t100.5 34.5q23 8 54.5 21.5t77.5 34t75 32.5q10 4 25.5 10.5t29.5 12.5q6 2 55 20q76 29 84 31q4 2 8.5 3t8.5 2t8 1q63 18 117 27q10 2 28 2q2 -37 -52 -76t-111.5 -62.5 t-116.5 -41.5q-20 -6 -63.5 -18.5t-51.5 -14.5l-12 -6q-8 -2 -19.5 -5.5t-15.5 -3.5q-143 -45 -217 -69q-43 -16 -109 -45q-27 -12 -80 -41t-55 -29t-10 -6t-10 -6t-10.5 -6t-10.5 -6q-2 -2 -5 -3.5t-5 -3.5q-6 -2 -11.5 -6t-8.5 -6t-5 -3t-4 -1t-6 -4l-4 -2q25 -10 76 -43 l8 -4q29 -10 55 -21q41 -12 87 -24.5t67 -18.5q16 -6 47 -26q20 -14 29 -23q6 -4 18 -18l4 -4q35 -18 51 -27q14 -8 39 -22.5t33 -18.5q2 -2 7 -4t7 -4q4 -2 8.5 -5t6.5 -3q4 -4 9 -6.5t8 -4.5t5 -2l3 -3l3 -3q4 -2 9 -4q10 -4 12 -6q6 -4 14 -8h2l2 -2q20 -12 45 -25 q25 -14 43 -22q16 -8 33 -17q35 -14 35 -16h4q4 0 6 -2t4 -2q29 -12 45 -19q18 -6 39 -12q14 -4 35 -8q4 -2 6 -4q16 -4 19 -4q0 -2 2 -2h4q2 0 4 -1t3 -1h1q2 -2 2 -3q16 -2 18 -2l-6 -2h2q2 0 3 -5t-1 -7q-2 0 -4 -2t-8 -2v-2h-2q-4 -2 -6 -2q-33 -10 -35 -10 q-35 2 -74 10q-25 6 -88 29q-35 12 -41 14q-16 6 -35.5 15t-40 18.5t-26.5 13.5q-2 0 -6 2t-6 4q-2 0 -6.5 2t-6.5 2q-33 16 -147 80q0 2 -68 45q-2 0 -7 2t-9 4h-4q-12 4 -31 17q-6 4 -8 6t-8 6h-4q-6 2 -17.5 8t-19.5 12l-8 7v2l-31 12q-31 12 -74 22q-4 2 -9 3.5t-7 3.5 h-6.5t-6.5 2q-2 0 -20 8q-10 4 -25.5 9t-19.5 6t-9 4t-7 3q-4 2 -11 4l-6 3q-14 8 -37 32q-23 12 -33 27q-6 8 -10 20l-2 2q-6 4 -8 3zM147 735q1 0 3 -2v4z" />
<glyph unicode="=" horiz-adv-x="1267" d="M53 564q0 11 4 14h6l5 2l4 2h5h3h2q16 2 17 2h3h4q8 -2 9 -9q-4 -2 -9 -4q-4 -4 -10 -8v-2h-2l-6 -4q-2 -2 0 -4h2h6l4 2h4h7v2h6h2q0 2 2 4t0 6q4 -2 6 -2q2 -2 6 -2q20 -4 39 -6h70h63h4h10h7q37 0 49 2h6h6h6h6q27 2 154 2q6 0 76 -2h7t7 2h4h35q6 0 9 -1t11 -1l5 2 q6 0 18 -1t23 -1h10h2v-2q8 2 35 2q37 -2 77 0h7.5h7.5h5h7h10h11h38q2 0 7.5 1t9.5 1h8l6 2q16 2 68 0h37q6 -2 12 -2q4 0 4 -6h6q2 -2 4 -2h4l-2 -4q0 -2 2 -4q2 -6 0 -6t-4 -3.5t-6 -3.5h-1h-1h2v-2h-2q-4 -2 -10 -4q-2 0 -4 -2q-25 -8 -25 -10q-18 0 -69 -2 q-16 -2 -46 -2h-38.5t-21.5 -1t-19 -1h-50h-51h-4h-6h-6l-4 -2h-150q-6 0 -73 2h-7.5h-9.5l-4 -2q-12 -2 -33 0q-6 0 -9 1t-9 1l-4 -2q-6 0 -19.5 1t-21.5 1h-10h-2v2q-8 -2 -33 -2q-39 2 -76 2h-7h-9h-5.5h-5.5h-6q-6 0 -20.5 -1t-18.5 -1h-4q-2 -2 -4 0h-4h-16h-9 q-4 -2 -6 -2q-35 -2 -67 4q-18 4 -25 4q-12 6 -18 10q-14 10 -13 15q-6 14 -6 25zM66 844v4v4v6q2 0 4 2q0 4 2 4l2 2q0 2 4 4v9q2 12 14 18q14 6 21 4h2l2 -2l2 2v-2h2l2 -2l2 -2q8 -8 8 -10l2 -4v-2h10q10 0 31 -2h8q2 2 2 6t-2 8h2t7.5 1t7.5 -1q10 -4 18 -14q2 -2 2 -5 h8h15q8 0 44 -1t48 -3h5h5h7h5q25 0 82.5 -1t69.5 -3q2 0 80 -4q2 0 7 1t9 1h4q14 2 37 0q8 0 11.5 -1t9.5 -1h4h20.5h24.5q4 0 10 -2h2v-2q8 2 37 0q41 -2 82 0q2 0 8 -1t8 -1t5 1t7.5 1t10.5 -1t10 -1h39h7h9q4 2 9.5 2t7.5 2q16 0 63 -4q31 -2 33 -2q6 -2 10 -2t4 -6 l6 -2h5q2 -2 4 -2q-2 -2 -4.5 -7.5t-4.5 -9.5t-6 -6q-2 -2 -7 -3t-10 -1t-7 -2q-2 0 -5 1t-3 -1h-3h-6h-2h-4q-43 -4 -194 -2l-4 -2q-4 0 -11.5 1t-11.5 1t-11 -1t-11.5 -1t-12.5 1t-12 1q-10 0 -28.5 1t-28.5 1q-4 0 -13.5 1t-15.5 1h-41h-33h-29q-29 0 -43 2 q-16 0 -43.5 1t-35.5 1h-8.5h-6.5q-4 0 -9 1t-7 1h-23h-4h-4q-23 2 -37 2v-2l-10 2q-20 2 -108 4q-4 0 -16.5 1t-14.5 1l-4 -2q-2 2 -4 2h-4q-6 0 -13 2q-10 -2 -14 0h-4h-4h-13h-2h-2l-2 -2h-2q2 2 -2 4q-2 0 -2 3h-6h-8q4 -4 8 -7h-2h-2h-2h-2l-2 -2q-6 -2 -25 2 q-12 4 -14 4q-2 2 -4 2.5t-2 6.5l-2 2zM90 510v2h2q-2 0 -2 2q-4 -2 0 -4zM117 575q-6 -6 4 -8v4q0 6 -4 4zM127 827q8 -4 10 0l-2 2q-4 0 -8 -2zM137 874h8q-6 2 -8 3v-3zM156 899h2l6 -2q6 -2 8 -2t8 -2q2 -2 4 -2q-4 12 -22 14q-4 0 -5 -1t-1 -3v-2z" />
<glyph unicode="&#x3e;" horiz-adv-x="1298" d="M2 227q2 0 4 2q-2 2 -4 6.5t0 6.5q2 0 4 2l4 4v2h2q2 2 3 2t10.5 7t15.5 7q51 14 57 17q66 20 82 24q6 4 39 17q33 23 84 53q115 72 180 104l9 4q8 4 23 9.5t24 9.5q4 2 17 7t22 7q6 4 13 6t17 5t17 6q70 25 108 36q10 4 28.5 9.5t26.5 9.5q27 8 76 24.5t68 22.5 q14 6 44 14t52 17q18 6 35 14q-8 0 -19 2l-24 4q-6 0 -15.5 3t-11.5 3q-12 4 -26.5 8.5t-16.5 4.5q-4 0 -8 2t-6 4q-35 10 -82 24l-25 11q-240 90 -301 114q-18 8 -53 23.5t-41 19.5l-10 2q-6 4 -15.5 8.5t-11.5 6.5q-88 43 -157 82q-51 29 -70 40q-66 45 -72 54l-4 4l-4 2 v2l-4 4q-4 2 -4 3v3l-2 2q-8 12 -8 13.5t-2 3.5v2q0 4 7 11t9 7q2 -2 6 0q6 0 10 -2q2 -2 4 0v2l5 -2l4 -4q4 0 14 -3t19.5 -5t15.5 -8q68 -47 117 -74q104 -59 190 -101q33 -16 102 -45q160 -68 250 -100q4 -2 13.5 -5t13.5 -5q6 -2 15 -4t12 -4q12 -4 61 -18.5t74.5 -24 t60.5 -25.5t49 -35q6 -6 11 -14h6q2 0 4 -6l6 -2h4h2q0 -2 -3 -10.5t-5 -12.5q-4 -4 -12 -6l-9 -2q-6 -4 -18 -8q-14 -4 -35 -8l-155 -52l-5 -2q-4 -2 -12 -5t-14 -5q-4 0 -10.5 -3t-10.5 -5t-13 -5t-13 -5q-14 -6 -62 -25q-4 -2 -15 -6t-18 -6q-10 -4 -79 -37 q-10 -6 -39 -19.5t-43 -19.5q-18 -8 -50 -22.5t-40 -18.5q-4 -2 -9.5 -4t-9.5 -4t-10 -4t-8 -4q-6 -2 -11.5 -5.5t-9.5 -5.5t-6 -2t-4 -2h-4q-8 -4 -23.5 -10t-21.5 -10l-12 -4q-20 -8 -56 -23q-4 -2 -6 -4q-66 -39 -131 -59q-53 -14 -84 -19q-6 0 -14 -1t-17 -3 q-10 2 -10 4q-14 -2 -16 0l-2 -2h-4v2l-2 -2h-3.5h-3.5v2l-8 2q-2 0 -6 -2z" />
<glyph unicode="?" horiz-adv-x="987" d="M123 1106q-10 61 16.5 123.5t71.5 95.5q53 41 141 49q88 10 187 -6q-6 6 -17 12q-8 4 -6 11q0 2 -20 8q-20 4 -25 4q8 2 18.5 7t16.5 8t14 3q25 0 86 -24q2 -2 11.5 -8.5t11.5 -6.5v2q2 -2 11 -8t9 -8q0 2 2 2l8 -6q10 -8 11 -10q18 -14 37 -29q10 -6 34 -29 q4 -6 13.5 -13t13.5 -12t4 -9q74 -84 72 -164q0 -27 -9.5 -55.5t-16.5 -47t-28.5 -53.5t-28.5 -45t-37 -50t-34 -44l-6 -12q-8 -10 -23.5 -31t-25.5 -33q-2 -2 -37 -55q-37 -53 -43 -62q-10 -18 -18 -35v-6q-2 -6 -2 -16v-19.5t2 -17.5v-6q-2 -20 3 -47t6 -38t-5 -28 q-8 -14 -17.5 -28.5t-9.5 -16.5t-8 -7t-13.5 -4t-26 -2t-44.5 -7q-8 -2 -29 20q-4 49 -2 87t17 81q2 6 6 14.5t8 14.5l2 6l4 -2l4 12q18 82 86 178q98 141 137 215v3q-8 14 -10 22t-2 25q0 12 1 28.5t1 18.5t-3 6t-3 6q-4 6 -4 20q0 4 2 6.5t0 8.5l-2 2q0 4 -1 12t-1 17v6 l4 2q-6 4 -6 22q-2 25 -10 45q0 2 -1.5 5.5t-1.5 4.5t-2 2t-2 2v5v4q-2 8 -6 16l-2 2v2l-2 2h-2q-10 27 -13 29l-6 4t-6.5 3t-5.5 1q-4 2 -6 4q-4 0 -2 4q-25 8 -51 17q-102 25 -178 10q-27 -4 -55.5 -22.5t-40.5 -32.5l-5 -8q-4 -4 -7 -9.5t-5 -8.5t-2 -5q-6 -41 16.5 -90 t28.5 -84q0 -2 2 -4q10 -47 -18 -66q-29 -16 -61.5 -15t-43.5 13q-2 4 -10 19.5t-8 19.5h2q2 20 8 31q-10 18 -12 43zM332 119q0 16 20 35l2 4q6 2 17 2h2q10 10 35 10q6 0 14 2t14 2q23 0 45 -20q14 -10 19 -15q23 -25 22 -57q2 -55 -12 -76q-6 -6 -16.5 -12t-17.5 -8 t-21.5 -4t-18.5 -2q-12 -4 -14 -5q-6 0 -14 5q-16 8 -17.5 9t-2.5 2t-1 3q-10 8 -20 22h-2l-3 9q-31 74 -30 94z" />
<glyph unicode="@" horiz-adv-x="1972" d="M104 287q-8 78 0 174q27 260 109 438q104 223 264 354q147 123 434 179q37 8 105 10q57 4 106 2q109 -6 160 -17q25 -4 51 -10q123 -33 232 -92h2l57 -43q70 -84 119 -207t51 -241q2 -195 -100 -394q-45 -86 -142 -192l-14 -19q-37 -33 -49 -41q-104 -63 -159.5 -83.5 t-125.5 -12.5q-31 2 -64.5 39t-39.5 74q-2 18 -2 43l-4 6v2v2h-2l2 2v2h-2q-2 2 -2 4h2q-2 23 8 82q-2 -2 -2 -4q-8 -8 -13 -12l-6 -6l-2 2q-37 -59 -88 -101q-152 -123 -284 -121q-10 0 -21 5l-22 -2q-6 8 -13 18q-23 10 -37 23q-27 29 -39 63q-27 82 -28 162q-2 27 2 71 q6 72 8 76q25 90 64.5 171t72.5 120q61 72 121 109q16 8 47 22q16 6 17 0l4 2q6 2 14 5t12 5q4 0 17 2q4 0 8 3q8 2 16 6q27 10 78 12t86 -6q51 -10 117 -47q20 -12 37 -23q2 4 6 6q14 8 28 13q4 0 9 2v2v6q-2 6 -4 8l12 -8q2 2 2 4q-8 10 -4 10q6 2 10 6q2 4 8 0q6 8 8 9v2 h2l3 2l2 -2h2l4 4q0 -2 2 -4v1t2 1q16 -6 16 -11l5 -5t5 -3l2 -2l3 -2v-2l16 -18q0 -6 -6 -23q2 -12 0 -20t-6 -29v-2q0 -2 -1 -5t-3 -5v-5.5t-1.5 -5.5t-3.5 -5t-2 -5l-6 -12t-6 -14q-2 -2 -4 -6.5t-4 -6.5q-2 -4 -6 -16t-6 -17q-10 -31 -15 -34q-4 -6 -14 -13 q-4 -12 -10 -26q-16 -45 -21 -60q-4 -12 -9 -22t-10 -22.5t-7 -16.5q-2 -2 -2 -6v-8l2 -5q-2 -10 -9 -28q-2 -6 -5 -7t-5 -8l2 -4q-2 -4 -5 -15t-7 -17l-4 -11l-4 2q4 -8 -4 -28q-10 -27 -17 -56q0 -2 -1 -5t-1 -5v-4v-4t-2 -6t-2 -6t-2 -4v-35l2 -4q2 -6 -2 -19 q0 -115 35 -127q51 -18 127 31t156 141q70 82 116 215q68 184 49 361q-14 150 -88 285q-12 23 -32 47q-29 31 -45 41q-90 59 -211 97t-246 36q-137 0 -258 -32t-187 -83q-96 -72 -158.5 -152.5t-121.5 -185.5q-20 -35 -43 -108q-45 -150 -53 -201q-20 -106 -21 -111v-24 q-6 -121 8 -248q4 -41 8 -57q-4 14 -7 14t5 -17q2 -8 18.5 -49t31 -73.5t28.5 -51.5q78 -109 158 -179t182 -132q29 -18 86 -41q25 -10 68 -22q76 -25 115 -31q133 -16 227 0q47 8 86 22q47 18 80 41q113 74 192.5 143.5t109 112.5t61.5 95.5t36 60.5q20 29 39 59 q16 20 20 13l5 6q6 8 13 20.5t11 17.5t12.5 14t13.5 16.5t7 15.5q-4 -23 -8 -57t-8 -48q-10 -33 -25.5 -62.5t-30 -54t-18.5 -34.5q-2 -2 -12.5 -17.5t-10.5 -17.5q-2 -2 0 -2q0 -2 -5 -9t-11 -15.5t-6 -10.5q-10 -18 -25 -35q-231 -252 -485 -313q-238 -57 -617 96l-24 13 q-74 43 -129 83q-57 43 -99 82q-66 66 -96 117q-55 94 -79.5 162t-37.5 162zM233 193q2 0 3 -3q-1 3 -3 3zM670 309l4 -16q16 -70 47 -113q82 61 199 189q141 152 213 270q12 20 28.5 54t26.5 51.5t29 35.5v19q2 14 4 24q0 6 4 17l2 6q-10 16 -23 26q-57 43 -128.5 56.5 t-123.5 -10.5q-66 -33 -112.5 -94.5t-91.5 -151.5q-31 -63 -52 -158q-20 -92 -24 -190q-2 -8 -2 -15z" />
<glyph unicode="A" horiz-adv-x="1423" d="M-31 4q0 14 4 17.5t29 5.5q57 8 129 79q31 33 46.5 61t74.5 165q96 227 194 510q84 246 95 348q6 78 10 93t18 15q27 0 27 88q0 40 8 44q12 4 41 3t33 -8q10 -13 24 -73q10 -42 11 -57q0 -6 -2 -7q-6 -2 -3 -35.5t9 -35.5q6 -4 12 -33q8 -35 35 -102.5t33 -73.5 q10 -6 22 -45q14 -39 25 -45q10 -8 16 -39q6 -33 21 -64q16 -33 16 -49q0 -10 6 -33.5t10 -27.5q2 0 41 26.5t89.5 64.5t78.5 60q113 90 146 90q14 0 14 -16q0 -12 -15.5 -27.5t-66.5 -50.5q-141 -100 -250 -190l-16 -15l20 -59q23 -72 70 -172q31 -68 39 -109 q8 -37 34.5 -95t37.5 -58q6 0 21 -28t15 -40q0 -8 9 -12q8 -2 -4 -13q-10 -10 4 -10h28q45 0 54 -10q23 -27 -29 -35q-11 -2 -24 -2q-19 0 -42 4q-24 3 -40.5 3t-24.5 -3q-16 -6 -53 0t-47 -4q-7 -6 -49 -6q-25 0 -62 2q-90 6 -109.5 9t-19.5 16q0 16 15.5 21t64.5 5h63 l-4 19q-2 4 -4 14t-2 12q-4 8 -4 23q0 16 -12 26q-14 10 -15 27q0 18 -20 84q-23 63 -25 102q-4 37 -33 91l-28 55l-127 -109q-106 -92 -256 -225q-121 -111 -154 -135q-29 -18 -28 -25q0 -4 -7.5 -4t-15.5 -10t-18 -4q-7 3 -30 3q-31 0 -93 -5l-60 -4v18zM354 287 q57 47 221 166l160 118l-22 62q-46 129 -99 233q-16 31 -32 72l-15 33l-18 -62q-16 -57 -60 -174q-8 -25 -22 -61.5t-23.5 -63t-13.5 -39.5q-20 -57 -55 -133q-84 -193 -84 -198q0 -4 63 47z" />
<glyph unicode="B" horiz-adv-x="1224" d="M35 1391q-2 10 14 26q10 10 24.5 13.5t61.5 3.5q86 3 176 3q45 0 91 -1q138 -2 143 -6q4 -8 61 -11q57 -6 94 -14q37 -10 74 -12q39 -2 86 -25q47 -25 60 -25q10 0 33.5 -21.5t31.5 -39.5q8 -12 8 -47q2 -39 15 -74q10 -33 10 -82v-16q-2 -59 -19 -92q-29 -70 -133 -129 q-53 -31 -53 -35q0 -6 -16.5 -12.5t-24.5 -3.5q-8 4 -61.5 -12.5t-75.5 -20.5q-20 -4 -19 -8q4 -10 48 -5q9 1 18 1q32 0 70 -11q37 -10 81 -29.5t48 -27.5q4 -6 43 -27q78 -43 135 -147q18 -35 21 -49.5t1 -63.5q-2 -123 -39 -198q-29 -53 -92 -91.5t-182 -70.5 q-82 -23 -101.5 -27t-31.5 2q-16 4 -36.5 -2t-35.5 0q-12 6 -52 6q-15 0 -35 -1q-70 -3 -116 -13q-51 -10 -65 -10h-129h-113v16q0 12 9.5 17.5t37.5 5.5q27 0 56.5 10t46.5 10q16 2 19 25.5t5 165.5q4 129 9 210v17q0 47 -9 106q-10 63 -10 361q1 97 1 170q0 146 -3 198 l-4 70h-21q-22 0 -26 8q-2 5 -31 5q-14 0 -35 -1q-41 -2 -52 0t-11 11zM422 692q-2 -24 -2 -56q0 -124 31 -366q2 -20 2 -38q0 -63 -21 -117q-8 -25 -6 -35q4 -12 4 -19q1 -6 23 -6q35 0 122 15q72 12 115 32.5t88 65.5q31 31 42 47t22 47q26 71 26 125q0 30 -8 55 q-25 86 -49 121q-47 63 -110.5 97t-180.5 57q-68 14 -82 18q-10 4 -12 -2t-4 -41zM422 760l14 6q18 8 64 10q72 6 141.5 28.5t69.5 39.5q0 12 22 26q37 23 62 93q22 68 22 144q-1 25 -3 51q-10 104 -52 155q-21 25 -72 45q-68 26 -169 26q-28 0 -58 -2l-39 -2l4 -22 q4 -29 4 -206t-4 -275z" />
<glyph unicode="C" horiz-adv-x="1421" d="M92 684q-1 21 -1 40q0 68 11 120q25 119 49.5 181t67.5 120q25 35 62 86q25 35 66.5 78t58.5 49q14 4 22 -2q10 -8 39 18q8 8 16.5 8t24.5 13q18 14 67 28q51 16 56 17l114 -6q123 -8 172.5 -19.5t122.5 -48.5q35 -18 58 -29l20 -8q-4 6 12.5 16.5t16.5 30t12 23.5 q14 2 21 16q12 25 41 -8q16 -20 12 -35q-2 -12 4 -19q3 -4 3 -32.5t-3 -83.5q-4 -65 -4 -93q0 -18 2 -20q4 -8 -2 -22.5t-12 -14.5q-10 0 -9 -45q2 -39 -6 -51t-39 -12q-29 0 -36 14.5t-9 75.5q0 68 -14 98q-12 29 -12 39.5t-6 10.5q-4 0 -13 20q-8 23 -48 56.5t-75 47.5 q-78 31 -178 48q-13 2 -26 2q-63 0 -136 -39q-86 -47 -129 -92q-12 -12 -16 -13q-6 0 -6 -9t-27 -62q-18 -36 -44 -132q-23 -83 -24 -100q0 -3 1 -4q4 -4 -7 -55q-8 -39 -8 -92v-21q2 -41 0 -53t-12 -22.5t-8 -30t26 -164.5q14 -78 15 -109q0 -35 49 -121q43 -80 81 -119.5 t101 -70.5q86 -41 154 -44h12q64 0 141 30q88 33 109.5 50t85.5 103q23 33 29 55q4 23 28 50q16 20 20.5 32.5t8.5 47.5q2 49 10 59q16 18 51 -2l19 -12l2 -183q0 -186 2 -211q2 -27 -6 -36t-33 -9q-37 0 -45 10.5t-8 53.5q0 51 -6 55q-6 2 -19 -10q-25 -29 -80 -60.5 t-114 -50.5q-65 -21 -186 -21q-31 0 -66 1q-98 4 -154 22q-55 20 -80 23q-37 2 -110 57q-33 27 -73 70t-40 53q0 12 -53 66q-49 53 -53.5 65t-10.5 12q-4 0 -5 7.5t1 16.5t6 11q4 4 2 15q-12 33 -39 145q-8 37 -14 131zM680 760q0 16 13.5 27.5t23.5 33t33 25.5q13 2 25 2 q21 0 41 -6q32 -10 46 -33q10 -16 19.5 -16t9.5 -15q0 -31 -22.5 -62.5t-43.5 -31.5q-18 0 -32 -16l-15 -17l-26 13q-20 10 -46 43.5t-26 52.5z" />
<glyph unicode="D" horiz-adv-x="1527" d="M39 -8q0 14 15.5 20t19.5 19q4 10 16 14t68 10q31 4 35 8.5t6 32.5q2 12 14 15l14 6l-4 299q-6 299 -12 348q-6 44 -6 78v16q0 45 14 57q10 8 11 18.5t-5 61.5q-8 70 -14 105q-10 57 -10 70.5t10 25.5q12 12 20 12q16 0 0 13q-2 4 -8 6q-10 4 -12 13t0 46v27.5v22.5v10 q2 2 20 8q41 8 -14 14q-18 4 -47 4q-70 6 -86 10q-10 4 -11 6.5t9 10.5q14 10 54 13t181 5q179 4 222 8q10 2 21 3.5t18.5 2.5t9.5 1h4q17 0 98 -9q156 -16 248 -51q43 -16 70 -16q37 0 97 -39t114 -94q43 -45 63 -109q10 -37 23 -39q25 -2 53 -119q14 -57 20 -61 q8 -6 8 -141q0 -115 -8 -169.5t-39 -150.5q-37 -111 -73.5 -165t-98.5 -89q-41 -23 -65 -43q-27 -23 -33 -22.5t-12 -16.5q-6 -12 -24.5 -19t-94.5 -26q-145 -37 -217 -46t-234 -9q-188 0 -196 -6q-6 -4 -82 -4h-36q-52 0 -87 -4t-41 -3t-6 11zM426 90h16q18 0 23 -20 q2 -20 -8 -29q-8 -8 0 -8q4 0 14 -2q113 0 274 26q51 8 67.5 13.5t41.5 23.5q180 137 258 578q15 91 15 148q0 13 -1 24q-4 61 -36.5 153.5t-45.5 116.5q-94 182 -225 232q-37 14 -86 22t-57 0q-3 -2 -32.5 -2t-84.5 2l-110 4l2 -18q4 -25 14 -56q14 -51 -12 -51 q-8 0 -13 -227q-1 -104 -1 -156v-38q1 -38 7 -42q10 -8 7 -59q-6 -66 -15.5 -279t-9.5 -274zM670 676q-3 10 -3 21q0 25 19 44q12 14 21.5 17.5t40.5 3.5q31 -2 40 -5t23 -16q34 -35 35 -63q0 -20 -19 -35q-18 -14 -53 -18t-61 4q-33 9 -43 47z" />
<glyph unicode="E" horiz-adv-x="1320" d="M23 1395q-2 20 18 24q25 4 199 8q104 2 158.5 2t60.5 -2q16 -2 164 -6q152 -2 155 -8q6 -6 55.5 -1t53.5 11q4 8 23 8t53 -8q37 -10 51 0q16 11 33 11q19 0 40 -13q16 -8 21.5 -21.5t5.5 -44t13.5 -34.5t13.5 -49q2 -39 4 -66q6 -78 10 -86q4 -6 0 -22q-4 -8 -6 -21 q0 -4 -27.5 -7t-42 1t-18.5 21q-16 86 -39 112q-23 25 -41 51q-20 25 -53 58q-31 31 -31 37q0 5 -40 5q-30 0 -81 -3q-38 -1 -76 -1q-77 0 -157 5q-90 6 -111 6h-6q-1 -1 -1 -18q0 -33 3 -127q3 -61 3 -100q0 -52 -5 -64q-4 -9 -4 -29q0 -25 6 -66q8 -74 8 -94v-53v-31h101 q168 2 174 19q2 8 30 8q20 0 24.5 2t4.5 18v31q0 12 8 16q10 4 6 9q-2 6 4.5 10t37 0t38.5 -10q10 -6 14 -48t-6 -49q-8 -4 -2 -32q2 -8 8 -28.5t5 -27.5q8 -35 -11 -41q2 -4 5 -4q14 -2 14 -12t2 -23q2 -6 -5 -8t-36 -2h-45l2 21q2 23 -16 39q-16 16 -17 39v22l-37 -4 q-43 -4 -94 -10q-45 -4 -133 -10l-72 -5l-2 -186q0 -188 -8 -215q-4 -31 6 -37t10 -102v-97h48q31 0 231 7h20q59 2 83 3t55.5 5t39 7t24 15.5t22.5 21.5t20 34q4 6 6 8q41 63 41 76q-2 12 13 18q10 6 18 28.5t6 37.5q-4 12 4 24q9 12 26 12q20 0 50 -16q27 -14 27 -30 q0 -10 -11 -21q-8 -10 -8 -123q0 -117 -8 -141q-8 -18 -14 -22.5t-33 -8.5q-41 -4 -228.5 -4t-326.5 4q-94 4 -133 4q-26 0 -29 -2q-6 -4 -147 -10q-135 -2 -168 -6q-25 -4 -35 3t-2 18t33 15q31 4 57 19q27 10 59 10h11q41 -4 41 4q0 6 -13 17q-23 19 -23 186q0 40 1 90 q3 127 3 229q0 51 -1 97q0 123 6 153q4 14 4 72q0 73 -6 217q-3 64 -3 105t3 59q4 27 -2 47q-6 16 -2 39l6 20l-55 -4q-33 -2 -58 -2q-72 0 -75 17z" />
<glyph unicode="F" horiz-adv-x="1298" d="M55 1398q-4 9 3.5 19t105.5 10q90 1 129 7q20 3 74 3q101 0 321 -10q68 -3 109 -3t55 3q29 4 111 7l77 2l23 -19q12 -12 16 -21.5t4 -33.5q0 -37 6.5 -37t6.5 -16.5t22.5 -72.5t22.5 -66.5t8 -20.5q20 -20 -19 -45q-12 -8 -48 -8h-15q-49 2 -55 12q-6 8 -6 53 q0 86 -17 99q-6 4 -24 30q-16 27 -41 43.5t-29 22.5t-102 10q-96 4 -117 6q-50 6 -112 6h-31q-80 -2 -99 -14q-4 -4 6.5 -19.5t3.5 -60.5q-4 -41 -4 -112.5t4 -100.5q4 -27 8.5 -70t12.5 -67q8 -23 4 -44.5t-18 -27.5q-10 -4 -12.5 -12t-2.5 -35v-41l86 4q84 4 90 10 q8 4 72 8.5t67 7.5t5 42l4 41l31 -2q31 -2 49 -15q10 -8 13 -20t7 -64q2 -72 8 -84q4 -10 -4 -19t-8 -21q0 -20 -63 -21q-27 -2 -36 9.5t-7 43.5v25l-129 -4q-31 0 -68 -1t-58.5 -2t-27.5 -1h-25v-156q-1 -93 -1 -160q0 -135 3 -168q4 -29 7 -73q4 -49 8 -66 q4 -12 35.5 -27.5t50.5 -15.5q39 0 39 -25q0 -14 -19 -18l-24 -6q-6 -2 -33 2q-25 6 -57 -2q-29 -8 -168.5 -8t-153.5 -4q-16 -4 -29 6q-10 8 -10 14q0 14 43 23q2 2 6 2q35 6 64 20l22 10l-4 60q-4 63 -6 297q-2 240 -12 264q-10 23 -2 39q5 9 5 59q0 25 -1 60 q-6 90 -6 231t4 156q4 10 -4 20q-8 8 -4 60l4 51h-35q-72 0 -76 20q-4 12 -16.5 12.5t-16.5 9.5z" />
<glyph unicode="G" horiz-adv-x="1544" d="M76 793q0 45 4 68.5t22 74.5q39 113 95 178q37 47 55 72q31 43 90 95t84 60q12 2 55 29q45 25 90 41q52 21 62 27q14 6 96 6h45q123 -2 162 -14q92 -25 160 -84q31 -27 37 -27t13 38t28 60q18 20 26 21.5t23 -15.5q12 -12 13 -19t-5 -36q-6 -31 -6 -153v-66 q0 -125 -1 -152.5t-10 -33.5q-10 -8 -26.5 -9.5t-26.5 4.5q-6 6 -20 33q-10 20 -13 39q-3 12 -3 43q0 17 1 41q0 66 -2 81t-12 28q-18 23 -41 51q-47 63 -119.5 98t-154.5 35q-59 0 -130 -19.5t-71 -37.5q0 -20 -72 -70q-72 -45 -110 -102q-25 -39 -33 -70t-21 -141 q-14 -102 -16 -251v-48q0 -114 8 -179q6 -47 18.5 -89t20.5 -42q6 0 6 -12t13.5 -28.5t11.5 -22.5t26.5 -48t33.5 -42t5 -10q0 -6 30 -34t38 -28t12 -12q4 -10 46 -32.5t92 -41.5q35 -12 51 -14t61 2q61 2 76 14q18 16 51 35q41 23 74 57l35 35v57q-1 15 -1 29q0 40 5 62 q4 27 1 34t-20 23q-14 14 -24 18t-35 4q-37 0 -41 9q-4 10 -35 14q-49 6 -22 29q7 5 71 5q32 0 78 -1q103 -4 170 -4q44 0 72 2q40 4 68 4q63 0 63 -19q0 -33 -72 -41q-45 -4 -65 -18q-20 -12 -22 -29q-1 -5 -1 -14q0 -28 6 -104q1 -24 1 -41q0 -35 -5 -43q-8 -8 -8 -162 q0 -158 2 -189q2 -29 -3 -53t-15 -24q-6 0 -9 -23q0 -70 -16 -72q-10 -2 -10 -8q0 -4 -22.5 -8t-35.5 0q-16 4 -21 42t-5 152q0 143 -10.5 155.5t-14.5 53.5q-2 43 -8 50q-4 6 -18 -15q-18 -27 -95 -50.5t-180 -33.5q-75 -7 -104 -7h-6q-27 1 -37.5 13.5t-63.5 22.5 q-20 4 -32.5 7t-19.5 7t-9 8.5t0 8.5q2 2 -2 4t-13 4q-47 12 -120 61q-76 51 -127 127q-31 45 -45 66q-14 18 -28.5 60t-25.5 46q-23 8 -43 88q-8 39 -12 131q-2 94 -8 103q-4 8 -4 76z" />
<glyph unicode="H" horiz-adv-x="1542" d="M90 1426.5q0 5.5 10 11.5q6 4 224 5h123q102 0 120 -1q14 -2 19 -12q2 -4 2 -8q0 -21 -47 -21q-25 0 -34 -4t-32 -27l-31 -31l7 -57q4 -33 4 -96q0 -106 -11 -295l-2 -78h78q80 0 88 -6q10 -6 27 10q14 14 43 26.5t49 12.5q18 2 27 12q6 10 32 4q16 -4 20.5 -8t4.5 -22 q0 -14 2 -18.5t10 -4.5q14 0 19 -4q4 -6 100 -6l96 -2v27q0 115 13 180q3 20 3 125v59q-1 158 -7 164q-2 6 -39 14q-39 8 -50.5 15.5t-33.5 13.5q-20 4 -24.5 10t8 18.5t20.5 8.5q10 -2 149.5 -2t143.5 -6.5t89 -6.5t89 -10q6 -14 -6.5 -21t-42.5 -10q-33 -4 -60.5 -12 t-40 -20.5t-6.5 -22.5q4 -10 6 -147q2 -422 3 -521.5t10 -109.5q8 -12 4 -29.5t-17 -21.5q-10 -4 -13 -26q-2 -13 -1 -43v-50q2 -96 14 -178q5 -30 5 -49q0 -10 -1 -17q-2 -18 7 -18q6 0 14 -15q18 -37 27.5 -45t31.5 -10q31 -2 31 -6q0 -6 14 -8q12 -4 11.5 -22.5 t-17.5 -20.5q-14 -2 -22 -12q-8 -8 -59 -8q-15 0 -34 1q-47 4 -110 4q-42 0 -92 -2h-123l-8 19q-8 18 -2 39l8 22h49q47 0 57 4q4 4 4 42q0 26 -2 67q-5 87 -5 245q0 79 1 175l2 158l-28 2q-61 2 -125 4q-37 4 -42 -3.5t-25.5 -17.5t-25 -20.5t-22.5 -19.5t-35 -9 q-27 0 -73 29.5t-46 48.5q0 6 -47 5t-86 -7l-45 -8l4 -33q4 -29 4 -154q0 -121 -12 -155q-6 -21 -6 -81q0 -36 2 -87q8 -133 14 -164q6 -18 12.5 -22.5t28.5 -10.5q31 -8 60 -8q23 0 30 -8.5t-4 -20.5q-6 -7 -82 -7q-31 0 -73 1h-67q-94 0 -148 -4q-38 -4 -60 -4 q-15 0 -23 2q-20 4 -20 22q0 20 17 25q70 29 82 41q10 12 8 18q-4 6 4 9.5t10 87.5t4 563q1 122 1 215q0 277 -5 287q-6 12 -10 39q-2 25 -33 55q-33 29 -33 38t-24 13q-14 2 -20.5 7t-6.5 10.5z" />
<glyph unicode="I" horiz-adv-x="741" d="M49.5 1420.5q-4.5 13.5 3.5 23.5t56 6q41 -2 243 -8q197 -4 201 -10q8 -4 24.5 -4t20.5 -9.5t-4 -21.5q-10 -12 -74 -15l-65 -4v-82q2 -88 2 -135q0 -35 -1 -47q-3 -28 -18 -27q-8 0 -8 -6q0 -8 10 -84q18 -162 18 -277q0 -46 -3 -85q-4 -68 -8.5 -84t-14.5 -27l-16 -18 l6 -98q10 -100 16 -146q6 -32 6 -74q0 -33 -4 -73l-4 -31l33 -16q31 -16 31 -22.5t32 -8.5q45 -3 45 -19q0 -8 -12 -20l-14 -14h-223q-225 2 -240 6q-16 4 -16 16q0 24 35 24q7 0 16 -1q20 -2 25.5 0t7.5 10q4 12 22 10q20 0 31 8q8 6 8 60.5t-10 269.5q-4 100 -4 262 q0 100 2 127t9 35q7 9 8 31v11q0 29 -3 103q-5 107 -5 189q0 27 1 51q0 106 -8 150l-8 43h-25q-18 0 -59 4q-35 0 -49 8q-12 6 -16.5 19.5z" />
<glyph unicode="J" horiz-adv-x="757" d="M-55 -133q-2 9 -2 18q0 51 47 103q18 20 28.5 25t34.5 10q20 2 35.5 -0.5t25 -7.5t7.5 -13q-4 -8 18 -14q23 -8 29 -16.5t8 -65.5q1 -20 1 -34q0 -27 -3 -34q-8 -12 -27 -12q-16 0 -22 -4q-2 -6 10 -10q8 -4 29 -7q18 -4 20 -6q4 -4 20.5 5.5t31.5 21.5q28 25 28 139v23 q-1 37 -1 60.5t1 33.5v29q0 45 -4 100q-1 17 -1 33q0 39 7 65q8 25 8 50.5t-6 111.5q-10 123 -10 219v21q0 75 10 261q13 216 19 224q1 1 1 6q0 14 -5 64q-6 61 -21 73q-12 10 -10 29l4 18l-59 5q-57 2 -70 8q-22 8 -4 24q6 6 248 7q174 0 207.5 -2.5t35.5 -10.5 q2 -12 -10 -20t-33 -8q-27 0 -55.5 -10.5t-28.5 -20.5q-1 -12 -1 -48.5t1 -95.5q2 -120 4.5 -128.5t-6.5 -32.5q-12 -27 -13 -75v-12q0 -51 7 -167q9 -166 9 -281q0 -101 -7 -164q-6 -51 -6 -174q0 -117 -14 -147q-12 -31 -16.5 -61.5t-16.5 -45.5q-12 -10 -37 -55 q-14 -27 -22.5 -34t-20.5 -9q-20 -2 -47 -27q-27 -27 -37 -26q-12 0 -28.5 -12.5t-83.5 -12.5q-66 0 -72 8q-4 8 -31 13q-25 4 -47 26q-20 23 -29 23q-20 0 -28 47z" />
<glyph unicode="K" horiz-adv-x="1531" d="M80 1393l2 18h82q86 0 177 5t99 9q4 4 31 4q18 0 47 -2q51 -2 61.5 -4t10.5 -12q0 -23 -33 -22q-12 0 -63 -25q-37 -16 -44.5 -23.5t-13.5 -29.5q-6 -29 2 -58q4 -23 6 -202q0 -45 1 -81q0 -110 -5 -149q-2 -35 2 -37q2 0 7 4q16 8 43 56q4 10 102 106q96 96 154 160 q51 59 120 129q63 63 66 76q2 8 16 14q12 8 31 29q12 16 8 16q-8 -4 -47 2t-59 15q-18 8 -17 20q2 8 18.5 11.5t96.5 7.5q74 4 128 4q146 0 146 -31q0 -12 -14 -19.5t-53 -11.5q-49 -6 -82 -29.5t-127 -121.5q-119 -123 -160 -172q-31 -39 -88 -95.5t-80 -72.5 q-18 -12 -33 -33l-16 -23l25 -28q68 -76 137 -181q29 -43 194 -210q162 -166 162 -179q0 -8 33 -51t39 -43t23.5 -25.5t17.5 -35.5q2 -20 15.5 -27.5t54.5 -7.5q53 0 61 -8q8 -10 2 -11q-2 0 2 -2q2 -2 8 -4q14 -6 15 -16q0 -14 -32 -18q-13 -1 -42 -1q-41 0 -115 3 q-305 12 -325 16q-25 8 -5 20q8 6 21 9q27 8 37 12q10 8 37 8h26l-10 16q-10 18 -31 31q-18 12 -39 39q-70 98 -77 119q-8 16 -60 67q-61 57 -162 191q-43 57 -65 86q-29 39 -51 74q-27 37 -41 49q-16 12 -22.5 2t7.5 -19q12 -10 13 -41q0 -29 10 -122q8 -75 8 -133v-23 q0 -55 -10 -125t-21 -80q-6 -10 0 -41q8 -35 4 -45q-2 -12 19 -22q23 -10 24 -25q0 -10 6.5 -12t30.5 -2q18 -2 28.5 -3t15.5 -4.5t5 -8.5t-4 -13q-6 -8 -149 -10q-129 -2 -219 -6q-22 -1 -38 -1q-23 0 -35 2q-18 3 -19 17q0 8 16 16q47 20 47 31q0 8 14.5 8t20.5 11 q4 8 10 8q10 0 8 57q-2 39 -2 127q0 131 4 371q2 268 2 313q-2 362 -8 393q-4 18 -19.5 25.5t-56.5 9.5q-12 0 -27.5 1t-23.5 1h-10q-8 2 -6 19z" />
<glyph unicode="L" horiz-adv-x="1320" d="M53 1423q3 9 21 17q8 4 41 4q22 0 55 -2q70 -4 160 -4h90q47 0 88 2q100 0 100 -19q0 -10 -23.5 -18t-54.5 -8q-33 0 -45 -7.5t-30 -33.5q-16 -27 -23 -88q-6 -80 -6 -238t6 -231q6 -70 5 -139q0 -80 -7 -158q-4 -36 -4 -73q0 -46 6 -91q10 -78 10 -140q0 -48 -6 -87 q-6 -43 -6 -50q0 -6 54 -6h30q272 10 401 10h48l57 58q47 49 58.5 73.5t11.5 88.5q0 49 12 55q29 14 61 0l17 -8l-2 -88q0 -84 -7 -119q-2 -12 -6 -27.5t-7 -28t-7 -21.5t-7 -13t-5 -4q-4 -12 -4 -17q0 -18 -9 -22q-4 -2 -110 -4q-42 -1 -68 -1q-40 0 -45 2q-6 2 -206 2 h-155q-352 -1 -376 -5q-16 -2 -27 -2q-33 0 -33 12v6q4 6 -4 16q-14 18 25 25q16 4 43 3q49 0 47 5q-4 5 -4 96q0 46 1 113q3 201 9 209q7 11 13 123q5 86 4 160v45q-2 258 -27 430q-14 98 -20.5 116.5t-22.5 24.5q-23 10 -23 14q0 6 -41 15q-54 11 -54 25q0 2 1 3z" />
<glyph unicode="M" horiz-adv-x="1660" d="M-6 1409q0 12 12 14q12 7 20 11q5 2 65 2q45 0 121 -1q177 -3 187.5 -9.5t10.5 -18.5q0 -14 14 -16q12 -4 16 -19q6 -14 18.5 -34.5t63.5 -135.5q37 -84 96 -213q41 -88 62 -139q8 -25 29 -66q39 -82 96 -256l14 -45l10 23q12 31 27 80q18 70 41 137.5t45 150.5 q37 135 148 424q18 45 34 70q18 25 17 37q-3 23 25 27q18 3 91 3q36 0 86 -1q135 0 142 -11q4 -16 -13.5 -23t-68.5 -11q-68 -6 -70 -6.5t-1 -6.5t3 -14q4 -23 8 -109q0 -66 5 -133v-21q0 -37 -5 -75q-6 -53 -6 -57q0 -12 4.5 -126t6.5 -120q0 -2 6 -29q4 -23 -4 -41 q-10 -20 -13 -98q0 -74 -4 -107q-6 -33 -2 -34q6 -2 10 -236q0 -113 9 -119q10 -4 73 -14q72 -12 83.5 -16t11.5 -13q0 -23 -24 -26.5t-157 -5.5h-68q-308 0 -319 34q-2 4 5.5 8.5t18.5 6.5t17 2q10 -2 19 6q10 8 63 6q37 -2 45 0t8 9t2 7t11 -4l6 -4q-12 20 -15 586 q0 229 -2 414l-2 133l-28 -86q-27 -80 -60 -213q-31 -127 -72.5 -269.5t-58 -179.5t-16.5 -67q0 -104 -62 -281q-14 -47 -12 -55q4 -6 -7 -20.5t-22 -16.5q-16 -2 -30.5 6t-20.5 23q-6 16 -20 18q-12 0 -38 30.5t-38 59.5q-8 18 -14 19q-14 0 0 24q4 6 10 10q16 12 16 29 q0 33 -33.5 132.5t-70.5 170.5q-35 72 -43 96q-6 25 -25 64q-41 80 -82 213q-41 121 -55 166l-27 82l-4 -35q-4 -29 -4 -139q0 -102 -4 -109q-2 -4 -4 -260q-1 -119 -1 -176v-43q1 -41 9 -49q12 -10 13 -80q1 -25 1 -46q0 -55 -4 -93q-4 -43 4.5 -54.5t43.5 -15.5 q25 -2 59 -6q31 -4 25 -29q-3 -12 -49 -16q-31 -3 -107 -3q-38 0 -88 1q-174 2 -178 10q-4 10 8 18.5t29 8.5q18 0 24 9t51 5l45 -2v20q2 23 0 27q0 2 3.5 5t7.5 3q8 4 10 26q1 11 1 40.5t-1 79.5q0 133 -8 217q-6 83 -6 220q0 82 2 183q6 270 22 326q8 31 8 62q0 15 -2 30 q-2 10 -57 65l-53 56l-43 -4q-13 -1 -23 -1q-53 0 -53 17zM703 1330q-4 18 -4 33q0 23 10 38q16 23 57 33q21 5 38 5q28 0 48 -12q23 -14 50.5 -42.5t27.5 -38.5q0 -27 -60 -54q-20 -8 -25 -14t-5 -16q2 -16 -13 -21q-16 -4 -38.5 1t-24.5 11.5t-23 16.5q-27 14 -38 60z" />
<glyph unicode="N" horiz-adv-x="1456" d="M33 25q0 20 55 24q70 2 109 31l28 18v455q0 461 -4 600l-4 145l-27 15q-23 12 -57 37q-32 24 -61 24h-2q-27 0 -34 7.5t-3 27.5l4 21l104 4q104 2 109 12q4 8 14 24q6 10 10.5 10.5t18.5 -7.5q18 -12 20 -25.5t9 -13.5q8 0 38 -17q35 -16 50 -41q16 -27 26 -26 q12 0 24.5 -17.5t41.5 -75.5q35 -70 98 -153q63 -86 172 -250q111 -166 127 -184.5t27 -42.5q12 -25 16 -25q6 0 6 -22.5t47 -77.5q39 -48 48 -48q1 0 1 1q4 8 8.5 85.5t16.5 127.5q8 34 8 67q0 17 -2 33q-4 31 -4 89q0 39 2 89q3 97 3 180q0 110 -5 195q-2 23 -25.5 39 t-60.5 18q-41 4 -47 15q-10 12 -8 17t22 15q14 10 42 11.5t149 1.5l170 -2v-15q0 -12 -13.5 -19t-48.5 -13q-41 -6 -53 -15.5t-10 -30.5q4 -23 -6 -34q-10 -10 -15 -131q-5 -89 -5 -238q0 -50 1 -106q2 -226 8 -310q4 -53 11 -131q0 -10 3 -42t3 -44q4 -41 -4 -49 q-12 -16 -15 -180q0 -51 -4 -55q-8 -8 -35.5 -8.5t-39 6t-22.5 24.5t-46 88q-29 57 -74 129q-41 66 -199.5 305.5t-199.5 292.5q-35 51 -68 98q-100 147 -153 218q-8 10 -11 -11q-2 -16 -6 -106q-1 -66 -1 -100.5t1 -36.5q2 -4 4 -416l2 -410l29 -12q29 -10 35 -8q2 0 3 -3 t1 -10q0 -12 18.5 -12t35 -6t12.5 -25q-4 -12 -9.5 -15t-25.5 -1h-56h-96h-63.5h-53.5l-18 2h-45q-49 0 -51 19z" />
<glyph unicode="O" horiz-adv-x="1562" d="M106 618q-5 33 -5 75q0 79 18 186q14 78 20 102.5t29 77.5q31 76 90 145q53 68 112.5 114t100.5 54q23 4 61 23q52 25 142 41q62 10 94 10q25 0 31 -6q10 -8 50 -13.5t58.5 1t34.5 -2t96 -55.5q51 -31 112.5 -94.5t104.5 -126.5q45 -70 45 -76t31 -33q51 -46 75 -152 q15 -66 15 -140q0 -47 -6 -97q-6 -63 -31.5 -165.5t-40.5 -120.5q-12 -20 -24 -21q-10 0 -19 -22q-43 -131 -190 -234q-49 -33 -59 -47q-10 -12 -29 -12q-23 -2 -74 -19q-90 -28 -170 -28q-21 0 -41 2q-123 8 -202 45q-43 20 -64 26q-16 2 -51 23q-33 16 -62 26 q-25 8 -55.5 34t-46.5 52q-12 20 -37 37q-31 18 -47 46t-31 89q-18 78 -22 134.5t-13 121.5zM326 842q-1 -36 -1 -69q0 -180 19 -267q35 -174 55 -195q4 -8 4 -32.5t31 -76.5t58 -79q23 -18 73.5 -44t87.5 -38q66 -19 127 -19q100 0 187 50q29 16 48 42.5t56 98.5 q20 41 27.5 64.5t15.5 97.5q41 305 41 334q0 3 -1 17q-1 13 -3 40t-4 45q-6 92 -12 100q-6 6 -9 52q-6 43 -14 69.5t-4 46.5q2 7 2 14q0 31 -26 83q-32 64 -82 112.5t-90.5 70.5t-110.5 36q-63 12 -70 14q-10 4 -52 -9.5t-77 -29.5q-184 -90 -254 -362q-22 -88 -22 -160v-6z M654.5 740.5q-3.5 23.5 4.5 39.5q6 10 29 21.5t37 11.5q6 0 8 1t2 3q-4 7 0 17q2 10 26.5 11t41.5 -7q43 -23 43 -58q0 -25 8 -45q12 -31 2 -52t-43 -28q-25 -4 -33 -12q-6 -10 -18 -10q-10 0 -14 -10q-4 -8 -43 -9q-25 0 -33 2t-10 13q-4 10 0 29.5t12 27.5q6 8 5 19.5 t-9 11.5q-12 0 -15.5 23.5z" />
<glyph unicode="P" horiz-adv-x="1185" d="M46 1417q1 8 7 14.5t56 4.5q31 -2 292 -9q225 -8 275 -8q57 -4 96 -28q12 -6 35 -11q33 -6 90 -31.5t88 -48t51 -126.5q10 -52 9 -87q0 -34 -9 -51q-6 -10 -6 -26q0 -14 -20 -60q-22 -50 -41 -78q-25 -35 -78 -69.5t-60 -44.5q-8 -10 -30 -17q-29 -8 -62 -14 q-33 -10 -131 -16q-4 -2 -139 -11l-49 -6l2 -114q4 -285 10 -424q2 -45 10 -60q6 -12 6.5 -24.5t11.5 -16.5t54 -8q45 -4 60.5 -10t15.5 -19q0 -16 -29 -20t-170 -4q-182 -2 -252 -6q-29 -2 -47 -2q-28 0 -33 4q-10 10 -1.5 19t28.5 11q27 6 35 11q6 6 39 8q27 2 40 11 t27 36q4 8 4 37q0 69 -20 260q-7 68 -7 232v43q1 198 7 251q8 43 12 125q4 113 6 152l4 78l-24 43q-23 45 -23 53q0 23 -80 35q-49 6 -55 10t-5 12zM414 973q0 -195 4 -205q2 -6 27 -6q20 0 53 4q117 12 168 41q31 16 69.5 59t57.5 80q20 39 20 81q-1 9 -1 19q-6 54 -52 199 l-21 66l-69 16q-72 17 -115 23q-72 10 -89 10t-26 -6q-26 -17 -26 -356v-25z" />
<glyph unicode="Q" horiz-adv-x="2050" d="M98 746q2 69 13 98q6 25 14 76q16 98 68 188q27 49 26.5 56t22.5 30q20 25 69 84q49 57 70 65q29 10 84 40t67 40q12 14 20.5 15.5t21 -8t55.5 -0.5q45 10 127 10q205 0 327 -86q33 -23 90.5 -85.5t94.5 -115.5q27 -41 52.5 -95t29.5 -83q4 -31 12 -45q8 -12 8 -27 q0 -12 14 -67q14 -57 18 -154v-43q0 -68 -9 -113q-18 -104 -46 -168.5t-79 -132.5q-37 -45 -39 -55q0 -12 -26.5 -42t-49.5 -44q-74 -43 -141 -55q-23 -4 -56 -21q-35 -14 -43 -14q-16 0 -18 -125q0 -27 4 -36t25 -26q28 -24 33 -24t96 -41q63 -31 87.5 -37t80.5 -12 q160 -17 359 -17h60q56 1 92 1q62 0 62 -4q0 -7 49 -7t58 -6q10 -6 5 -15.5t-18 -11.5q-141 -4 -196 -16q-23 -6 -156 -20q-115 -14 -302 -17h-69q-128 0 -170 8q-37 10 -61 11q-25 -2 -62 10q-33 12 -36 6q-4 -8 -33 -2t-51 20q-45 29 -66 91q-10 31 -24 30 q-12 2 -16.5 13.5t-14.5 70.5q-8 50 -8 84t8 53q4 12 -8 13q-14 0 -37 10t-29 10h-1q-9 0 -108 50q-104 51 -114 61q-10 8 -17 8q-18 2 -90 86q-38 47 -38 72q0 8 4 14q6 8 -19 55q-20 41 -41.5 123t-30.5 152q-4 37 -4 84v33zM330 793q-1 -46 -1 -91q0 -79 4 -153 q7 -117 17 -150q6 -14 37 -108q20 -61 27.5 -75.5t29.5 -31.5q35 -23 60 -43q33 -25 104 -63q37 -18 39 -23q6 -8 86 -12q40 -2 70.5 -2t52.5 2q137 16 207 125q72 113 84 203q8 78 8 148q0 50 -4 97q-6 59 -8 107q-4 51 -15 121q-10 66 -10 160q0 90 -8 96q-6 4 -16 35 q-12 29 -27 45q-33 35 -23 53q6 12 -20 33q-106 80 -133 108q-19 19 -66 27q-35 5 -72 5q-44 0 -89 -7q-55 -8 -94.5 -29.5t-86.5 -66.5q-33 -35 -46 -54.5t-31 -60.5q-27 -61 -50 -150q-16 -63 -20 -97t-6 -148zM622 758.5q3 15.5 25 27.5l15 9l-15 8q-15 11 -15 20 q0 12 30 19q18 2 40 2q47 0 70 6q10 2 19 2q48 0 67 -53q8 -25 -4 -45q-8 -20 -23 -31q-12 -8 -8 -16q4 -10 -8 -23.5t-33 -17.5q-25 -7 -45 -7q-52 0 -75 46q-12 25 -25 30q-18 8 -15 23.5z" />
<glyph unicode="R" horiz-adv-x="1409" d="M47 1415q1 10 15 12q6 1 27 2q24 0 69 -2q88 -1 154 -1q181 0 194 8q12 8 55 2t45 2q4 10 23 10q30 0 98 -25q94 -31 158 -84q76 -61 108 -127q16 -33 19.5 -47t1.5 -57q0 -51 -12.5 -85t-45.5 -71q-39 -47 -106.5 -93t-112.5 -56q-20 -4 -12 -15q6 -8 2 -8t2 -8t10 -43 t13.5 -45t55.5 -93t73 -145q66 -133 85 -166.5t58 -74.5q109 -118 128 -118q2 0 3 1q6 6 -14 23q-21 19 -21 42q0 11 6 23q16 36 58 37q72 -1 82 -61q1 -9 1 -17q0 -52 -50 -106q-18 -20 -18.5 -24.5t-6.5 -5.5t-13.5 1t-9.5 6q-4 6 -18 2q-14 -2 -61 -4q-31 -2 -44.5 0 t-37.5 16q-72 37 -113 78q-27 29 -59 90q-23 37 -68 107q-55 84 -96 154q-43 76 -60 90q-18 14 -43 67q-27 55 -63.5 92t-36.5 43.5t-20 6.5h-23l2 -64q2 -98 11.5 -267t13.5 -175t6 -62q2 -59 6 -65q8 -12 44 -32t56 -24q37 -6 43 -18t-16 -39q-16 -23 -33 -18q-14 3 -78 3 h-35q-96 -1 -102 -5q-4 -4 -112 -8q-68 -2 -113 -2q-26 0 -43 1q-12 0 -10 19q2 10 8 14t26 10q84 18 123 95q8 17 8 81q0 46 -4 115q-4 68 -4 434q-2 375 -6 383q-3 4 -3 51q0 24 1 58l2 104l-16 2q-14 4 -8 17q4 6 0.5 10t-17.5 12q-14 4 -62 13.5t-65 9.5q-4 0 -2 14z M416 985q0 -84 6 -133l2 -39h25q27 0 138 20.5t122 26.5q31 20 63 84q16 35 16 92q0 137 -30 238q-10 31 -16.5 39t-32.5 18q-66 29 -142 35q-45 4 -63.5 6t-43 -3t-31.5 -11t1 -51q6 -39 6 -78q1 -11 1 -23q0 -32 -4 -70q-5 -54 -11 -60.5t-6 -90.5z" />
<glyph unicode="S" horiz-adv-x="1105" d="M84 113q-6 4 0 12q5 7 5 67q0 30 -1 73q-1 37 -1 65q0 69 7 76q20 20 50 0.5t30 -54.5q0 -37 29 -116q16 -43 61 -84q27 -27 44.5 -38.5t51.5 -21.5q37 -14 60.5 -16t99.5 -2h107l57 45q57 43 78 61q14 14 17 24.5t3 55.5q0 59 -12 78q-14 20 -39 68q-25 51 -49 67 q-23 14 -78 76q-55 59 -72.5 59t-70.5 41q-53 39 -76 51q-53 27 -121.5 87.5t-99.5 105.5q-23 35 -28 103q-1 18 -1 35q0 49 10 95q10 43 35 99q25 59 33 82q4 14 9 19t18 7q14 4 17 7t1 15.5t3 18.5t26 19q27 16 41 28q31 29 51 19q10 -6 13 -3t50 9q45 5 61 5h5 q12 -1 20 -9q10 -8 39 -8q27 0 66 -15q23 -8 98 -35l60 -20l8 35q6 33 13 40t30 7q37 0 46 -30t9 -163q0 -129 -16 -155q-14 -22 -39 -22q-10 0 -21 3q-16 6 -20 23.5t-6 77.5q0 45 -2 53t-13 8q-14 0 -30 33q-12 29 -36 42t-100 36q-64 21 -120 21q-40 0 -76 -11 q-49 -14 -68.5 -33.5t-27.5 -64.5q-12 -66 -19 -95q-6 -27 -1 -51t30 -86q12 -33 23.5 -46t43.5 -40q45 -37 123 -69q162 -70 250 -138q43 -35 55.5 -47t12.5 -20q0 -12 12 -17q25 -8 62.5 -85.5t46.5 -135.5q3 -18 3 -40q0 -24 -4 -54q-6 -57 -16 -72q-6 -8 -31 -57 q-25 -51 -73 -94q-152 -137 -389 -137q-160 0 -254 67l-19 12l4 -16q3 -12 2 -21q0 -28 -26 -32q-33 -6 -45.5 9t-18.5 73q-4 35 -10 41z" />
<glyph unicode="T" horiz-adv-x="1349" d="M25 1102q2 33 24 219q2 14 4 20q6 55 15.5 66.5t52.5 15.5q45 4 63 0q14 -4 29 4q14 6 27 0q10 -4 146 -8t250 -4t134 4q0 14 162 15q119 2 121 6q4 2 46 0t42 -6t14 -4q8 0 13.5 -6.5t11.5 -28.5q6 -20 6 -45q0 -29 -8 -64q-5 -27 -5 -69v-15q1 -53 7 -59q8 -6 18 -35 q10 -35 10 -37q2 -4 -26.5 -19.5t-40.5 -15.5q-6 0 -19 25q-8 23 -16 31q-10 6 -23 122q-4 41 -19 76t-30 35q-10 0 -65 23q-39 16 -60.5 20t-95.5 6l-102 4v-18q0 -18 6 -29q4 -6 0 -45q-4 -25 -12 -102q-6 -63 -11 -97q-6 -49 -7 -197v-40q0 -110 5 -117q6 -16 10 -270 q4 -266 7 -303q2 -88 32 -90q16 -2 19 -2q10 -2 14 -2q8 -2 8 -15q0 -8 11.5 -13t50.5 -18q10 -2 8 -15t-14 -17q-6 -2 -27 -2t-55 2q-70 4 -81 10t-24 0q-16 -4 -163.5 -4t-149.5 6q-12 18 39 37q31 12 76 20l39 9l4 40q2 41 -4 56q-1 10 -1 63t1 150q3 167 3 298 q0 180 -6 290q-3 57 -3 102q0 73 8 115q6 39 0 49q-6 14 -7 24q2 12 -2 62l-6 51l-57 -2q-59 -2 -68 -8q-4 -4 -41 -4h-28q-47 0 -58.5 -2t-23.5 -13q-27 -25 -64 -96q-6 -12 -10 -12t-4 -70q1 -28 1 -45q0 -16 -1 -24q-2 -14 -10.5 -14.5t-16.5 -14.5q-8 -10 -28.5 -11 t-33.5 9t-11 43z" />
<glyph unicode="U" horiz-adv-x="1503" d="M59 1407q0 4 9 12q10 10 172 12.5t168 8.5q16 16 24 0q4 -6 55 -6q39 0 49.5 -6.5t4.5 -22.5q-6 -14 -66 -21q-31 -2 -39 -6t-14 -18q-10 -18 -4 -29q6 -15 14 -127q6 -90 6 -146v-26q-2 -70 -2 -88q0 -12 -12 -33q-8 -12 -9 -51t-1 -198q2 -231 12 -256t6 -41 q-4 -18 4 -31q6 -14 17 -55q12 -43 22 -66q12 -25 12 -41q0 -20 40 -53t102 -66q31 -16 47 -20t49 -4q86 0 184 51q43 23 86 78t74 131q29 72 39 127t18 178q3 51 3 77q0 13 -1 21q-2 22 -10 25q-10 6 -10 133q0 154 -2 289q-2 117 -4 145.5t-12 58.5l-17 41l-51 -4 q-49 -4 -62.5 1t-14.5 24.5t5 28.5q11 7 162 7h40q190 -1 206 -11q6 -2 2 -15q-6 -26 -111 -26h-8q-43 0 -50 -9.5t-1 -52.5q10 -51 29 -301q8 -107 8 -229q0 -61 -2 -127q-6 -196 -25 -285q-25 -123 -76 -197q-25 -37 -34 -57q-12 -23 -52.5 -56.5t-79.5 -51.5 q-49 -23 -57 -23q-10 0 -22 -12q-11 -14 -69 -18q-17 -1 -36 -1q-45 1 -98 7q-37 4 -58 4q-22 0 -26 -5q-5 -8 -20 -8q-29 0 -95 29q-100 41 -121 82q-10 18 -32 53q-43 59 -66 148q-33 129 -33 333v123l-16 6q-16 6 -19 27q-1 9 -1 52q0 75 4 255q2 142 2 214t-2 73 q-6 2 -7 10q0 12 -82 21q-43 6 -45 14zM668 789q6 29 47 47q18 8 53 8q20 0 26.5 -2t6.5 -11q0 -10 18 -18q20 -8 20.5 -22.5t4.5 -26.5q2 -12 -3 -14t-30 -2q-27 0 -31 -2.5t-2 -12.5q4 -14 -2 -18t-31 -8q-20 -4 -27 -1t-26 21q-26 27 -26 52z" />
<glyph unicode="V" horiz-adv-x="1474" d="M8 1438q5 6 30 6q15 0 36 -2q82 -6 432 -12q39 0 59.5 -1.5t32.5 -4.5t15 -7t1 -12q-4 -10 -24.5 -13t-97.5 -8q-66 -2 -77.5 -5t-11.5 -13q0 -14 17 -47q16 -31 22 -72q8 -33 26.5 -93t29 -80.5t6.5 -37.5q-1 -4 -1 -9q0 -35 36 -109q25 -49 34 -103q10 -47 21 -63 q8 -14 20 -56q10 -35 33 -88q20 -49 41 -100q16 -49 23 -57q4 -4 18 -50q10 -43 16 -43q4 0 14.5 32t16.5 67q8 55 48 183t73 210q25 63 39 100q10 33 29 70q16 37 24 57q35 82 39 92q29 74 29 82q0 10 10 29q17 31 17 50q0 12 -7 18q-24 28 -74 28h-4q-37 0 -45 8 q-6 8 -2 13q2 2 -8 10q-8 8 -2 20q6 11 48 11q2 0 6 -1q52 0 300 -7q33 0 35 -11q4 -16 -9 -23t-46 -7q-29 0 -41 -4.5t-35 -18.5q-35 -23 -35 -41q0 -23 -9 -52.5t-19 -39.5q-14 -16 -41 -88q-27 -74 -45 -109q-41 -82 -120 -318.5t-79 -275.5q0 -23 -12 -51 q-10 -27 -20.5 -65.5t-20.5 -69.5q-6 -23 -31 -140.5t-25 -125.5q0 -2 -41 -2q-33 0 -43 5t-10 23q-2 12 -35 109q-31 92 -47 154q-43 156 -78 215q-20 35 -20 43q0 6 -16 38q-16 39 -23 80q-8 43 -27 60q-14 12 -42.5 67.5t-43.5 100.5q-10 31 -26 69q-27 59 -52.5 158.5 t-25.5 140.5q0 37 -20 82l-21 45h-31q-33 0 -41 13q-8 10 -30 10q-66 0 -66 22q0 11 4 15z" />
<glyph unicode="W" horiz-adv-x="2070" d="M-11 1409q-1 8 15 15q11 6 216 7q17 -1 36 -1q240 0 250 -7q8 -6 6 -15t-12 -13q-16 -4 -90 -9q-90 -6 -91 -14q0 -4 3 -10q8 -10 28 -8q16 2 20.5 0t10.5 -17q8 -20 12 -61t8 -47q2 -6 6.5 -53.5t16.5 -59.5q27 -33 49 -108q29 -96 78 -205q25 -55 30 -73.5t27 -80.5 q20 -51 55 -169t35 -132q0 -12 15 6q11 14 18 14q6 0 29 64q14 43 20 53.5t17 10.5q12 0 20 14t35 82q43 111 61 162l25 65l-39 82q-92 188 -113 289q-10 45 -32.5 109.5t-30.5 68.5q-6 6 -39 6q-31 0 -38 7.5t-30 7.5q-12 0 -16 3t-4 11q0 16 10 27q6 10 56 11h55 q78 0 246 -1q502 -2 512 -13q8 -6 -0.5 -16t-22.5 -12q-39 -8 -84 -13l-63 -8l-7 -22q-14 -59 -32 -86q-14 -18 -49 -103q-39 -98 -93 -213q-23 -43 -22.5 -53t20.5 -74q14 -43 20.5 -55t18.5 -18q18 -6 25 -33q12 -51 50 -161.5t44 -121.5q6 -8 12 -32q31 -92 39 -93 q6 0 12 23q4 25 19 31q14 8 16 15t-8 19q-8 10 -8 16.5t6 24.5q12 35 28.5 65t22.5 30q8 0 26.5 50t90.5 283q47 143 102 291q33 84 41.5 119t-0.5 49q-8 16 -8 28.5t-8 14.5q-25 8 -109 10q-16 2 -20 15q-8 25 31 26q20 0 30 11q6 8 31 10t119 4q141 2 149 2q10 2 21.5 -9 t11.5 -20q0 -28 -44 -28h-9q-23 2 -31 -2.5t-24 -22.5q-23 -27 -35 -78q-16 -66 -70.5 -238.5t-77.5 -238.5q-45 -125 -47 -131q-33 -90 -123 -279q-57 -117 -57 -125t-23 -75q-41 -121 -65 -121q-4 0 -5 -6t2 -14.5t9 -12.5q4 -8 4 -22q0 -12 -19.5 -22.5t-43.5 -10.5 q-18 0 -29 22q-10 25 -10 37q0 16 -22.5 79t-35.5 79q-43 61 -94 215q-59 166 -82 246l-6 22l-22 -45q-2 -8 -43 -92q-66 -141 -78 -190q-8 -25 -45 -107q-37 -76 -51 -127q-12 -47 -17 -49q-6 -2 -4 -23q4 -27 -5 -38t-36 -11q-31 0 -42 7.5t-11 27.5q0 23 -12 35 q-14 10 -31 67.5t-29 71.5q-10 8 -32.5 53t-26.5 64q-12 45 -60 139q-14 33 -14 39q0 8 -12 33q-8 16 -25.5 75.5t-25.5 92.5q-2 14 -15 28q-45 53 -125 316q-47 154 -69 227q-25 78 -25 80l-49 2q-47 4 -53 12q-8 10 -24.5 14.5t-17.5 12.5zM934 1346.5q6 -17.5 18 -23.5 q14 -6 29 -39q16 -41 36.5 -98.5t20.5 -65.5q0 -12 9 -18q2 -2 6 2t13 19.5t21.5 40t32.5 65.5q70 141 70 142q0 3 -36 4q-15 0 -36 -1t-37 -1q-40 0 -49 7q-12 8 -16 2t-37 -6t-41 -6q-10 -6 -4 -23.5z" />
<glyph unicode="X" horiz-adv-x="1435" d="M-10 10q-4 16 10 19q12 4 16 18q4 8 16.5 11t61.5 3q72 2 78 11q6 10 21 49q18 49 63 138t82 144q25 37 115 177q66 104 77 118q6 6 0 22.5t-34 74.5q-41 82 -76 141q-35 55 -35 59q0 2 -64.5 136.5t-87.5 179.5q-10 18 -28 43q-14 16 -30.5 21t-76.5 11q-39 6 -51 15 q-10 12 -22 14q-10 6 -11 10q0 16 55 16q14 0 31 -1q55 -6 129 -6q78 0 82 8q2 10 17.5 10t31.5 -8q12 -6 16.5 -5t12.5 11q8 14 16.5 13t24.5 -17l21 -21l96 2h27q88 0 90 -12q0 -4 -5 -10q-10 -10 -94 -14q-59 -4 -72.5 -6.5t-15.5 -12.5q-3 -10 -3 -21q0 -21 11 -44 q12 -25 25 -66q10 -35 39 -84q25 -41 45 -86q16 -37 22 -41q4 -2 31 -67l29 -64l24 29q25 29 25 41q0 10 26.5 48t57.5 75q41 45 79 101t42 77q4 27 12 51q6 20 5 26.5t-13 20.5q-10 12 -18.5 16.5t-32.5 4.5q-37 0 -53.5 6t-14.5 20l2 15l182 2h52q133 0 151 -9 q16 -8 20.5 -20t-5.5 -19q-10 -4 -80 -4h-74v-20q0 -20 -68 -127q-63 -94 -84 -133q-14 -29 -55 -82q-39 -55 -65 -109q-43 -86 -60 -106q-1 -1 -1 -4q0 -18 42 -94q47 -84 55 -97q4 -6 17 -33q53 -123 63.5 -135t48.5 -94q43 -84 52 -92q10 -12 49 -80q27 -47 33 -47t6 -12 q0 -29 26 -43q20 -10 60.5 -22.5t56.5 -12.5q18 0 33 -2q12 -4 18 -17.5t-2 -17.5q-4 -3 -99 -3q-48 0 -118 1q-420 6 -446 22q-10 6 -2 19q6 12 36 12q27 0 58 6q29 6 86 9q53 4 63 4q2 0 1 3t-4 8t-7 9q-12 18 -27.5 53t-15.5 50q0 12 -47 83q-47 74 -68 113 q-20 43 -26 51q-8 10 -37 74q-31 66 -41 80q-6 10 -9 8t-18 -20q-31 -43 -63 -86q-51 -70 -58 -80q-4 -4 -43 -62q-96 -144 -96 -163q0 -15 -14 -37q-16 -27 -29 -56q-4 -6 -8 -15t-7 -14.5t-3 -6.5t10 -3t28.5 -3t39.5 -3q82 -4 85 -10t18 -6t17 -4q6 -8 0 -17.5t-16 -9.5 q-14 0 -33 -10q-18 -8 -139 -8q-40 -1 -67 -1q-55 0 -60 3q-6 6 -72 6q-47 0 -56 2t-11 12z" />
<glyph unicode="Y" horiz-adv-x="1378" d="M10 1378v27v25l86 -3q85 -3 140 -3q93 0 96 8q4 8 16 0q16 -8 105 -9q70 0 82 -2t20 -14q12 -16 12 -23q0 -14 -106 -14q-76 -2 -76 -4t35 -78q35 -72 35 -76t37.5 -70.5t58.5 -101.5q53 -86 84 -176q45 -127 67 -129q6 0 11 8q4 6 16 41q20 66 80 195q25 57 25 70 q0 10 12 27.5t20 17.5t17 26q10 33 43 101q35 72 35 77q0 4 10 13q10 10 6 18q-14 33 4 41q8 4 -4 4q-14 2 -18.5 6t-58.5 15.5t-69 11.5q-6 0 -4 14l2 15l195 -2q201 -2 209 -15q6 -6 -2 -20q-4 -12 -12.5 -14.5t-36.5 -2.5h-41l-21 -34q-6 -10 -20.5 -34t-16.5 -28 q-6 -8 -55 -86q-39 -57 -45 -72q-4 -18 -85 -179t-89 -171q-14 -16 -37 -82q-21 -55 -21 -69q0 -3 1 -4q1 -2 1 -7q0 -15 -8 -59q-4 -30 -4 -46q0 -17 5 -19q5 -4 5 -53q0 -23 -1 -56q-2 -145 -2 -197v-90l22 -24q18 -16 29.5 -21.5t50.5 -9.5l55 -6l6 -23q2 -12 0 -20 t-15 -10t-35.5 0t-59.5 8q-51 8 -246 12q-188 4 -195 6q-6 4 -2 17.5t13 15.5q18 4 75 6q47 4 57.5 7t18.5 16q10 18 8 43q0 27 6 95q5 52 5 127v48q0 104 6 143t0 43q-6 2 -25 54q-16 51 -39 84q-20 33 -20 38q0 8 -21 11q-16 4 -40.5 44t-75.5 146q-45 90 -95 187 q-55 106 -73 147q-37 74 -47.5 85t-51.5 11z" />
<glyph unicode="Z" horiz-adv-x="1261" d="M123 -18q-7 6 -7 23q0 19 8 51q15 62 44 100q18 27 18 33t16.5 26.5t16.5 37.5t14 30q16 16 66 110q49 96 53 103q6 6 61.5 115.5t55.5 113.5q0 10 57.5 119.5t81.5 146.5q51 76 80 152q14 43 29 69q14 25 14 31t26.5 58.5t35.5 62.5q4 4 -7 6q-10 2 -60 2t-140 -2 q-217 -2 -224 -6q-8 -4 -35.5 -40t-43.5 -62q-18 -33 -31 -72q-14 -41 -27 -64q-12 -25 -14 -53q-8 -57 -29 -65q-10 -4 -35 4l-24 8v86q2 86 9 89t15 42q8 37 21 63q12 29 12 42.5t13 17.5q10 2 18 18q4 10 3 13.5t-9 3.5q-12 0 -12 14q0 29 69 31q33 2 49 6q11 3 38 3 q47 0 145 -9q74 -6 192 -6q315 0 326 -13q4 -4 10 -26q2 -23 -33 -84q-66 -109 -115 -250q-31 -86 -49 -123t-18 -43q0 -18 -88 -143q-39 -55 -78 -136q-55 -113 -104 -174q-33 -43 -64 -118q-33 -80 -37 -84t-26 -58q-20 -51 -31 -61q-6 -6 -22.5 -37t-16.5 -35q0 -2 76 -2 q55 0 213 -6q58 -2 94 -2q35 0 51 2q30 4 78 31q37 23 55 26q18 6 43 56q23 47 25 55q0 10 12 29q39 51 41 135q2 39 11.5 51t36 8t33.5 -14t3 -37q-2 -35 4 -47t0 -47q-4 -16 -20 -109q-12 -78 -23 -106q-10 -31 -8 -56l4 -22l-111 -2q-92 0 -157 -2q-39 -2 -247 -2t-249 2 q-23 0 -76 6q-31 4 -39 2t-16 -12q-20 -27 -51 -4z" />
<glyph unicode="[" horiz-adv-x="768" d="M117 297v4v4q-6 57 8 217v4q0 4 1 12.5t1 14.5v9t1 12.5t3 13.5t4 12q2 12 5 30.5t5 31.5q2 4 4.5 14t2.5 14q4 16 6 45t4 35q0 4 3 32.5t5 45.5q2 14 7 43t7 41v8v8q2 4 4 9.5t2 7.5v8v31q2 16 5.5 48.5t3.5 37.5l-2 8q0 8 3 16t3 10q4 25 8 45q2 31 6 107l4 67 q4 12 4 21h-4l-4 -2l-2 -2q-12 -4 -18 -4q-6 -2 -31 4q-2 0 -6 4l-4 2q4 53 41 55l6 -2l2 -2q0 4 10 4t31 4h5h4t2 1t3 1h6h6h25h6h6t6 1.5t7 1.5q20 2 53 -7q10 -2 18 -4h13h12l10 -2q0 -2 2 0l2 2h6v-2h2h4h2h3v-2q2 2 6 0h2h6h4h2h2q2 0 4 -2q4 0 6 2h2h1t3 2q4 2 13 -2 q6 -2 6 -4q6 0 10 -2v2l4 -2q4 0 37 -2l4 -2h6h2h2q10 -2 23 -6l4 -2q4 0 6 -1t6 -1q6 -2 8 -4h3v-2h2v-3l2 -4h2v-8l-2 -6l-2 -2q-2 -2 -5 -4v-2h-2l-12 -12q-4 0 -20 2q-4 2 -12.5 4t-12.5 2h-6h-6q-2 2 -9.5 3t-12.5 1h-7h-2h-2h-2h-2q-6 0 -22.5 1t-20.5 3h-12h-15h-2 h-8h-4v2h-12h-2h-11h-8h-8q-12 -8 -20 -25q-16 -29 -31 -90q-2 -6 -2 -12q-4 -33 -6 -39v-8q0 -102 -11 -262l2 -6q0 -8 -2 -20.5t-2 -18.5v-16.5t-1 -16.5t-3 -18.5t-2 -18.5v-4v-10v-11.5v-11.5t1 -11t1 -9q2 -51 3 -157.5t1 -129.5q2 -35 0 -88l-2 -53q0 -4 2 -13.5 t4 -17.5l2 -6q4 -23 5 -64q0 -12 -2.5 -18t-2.5 -16l3 -9q0 -10 1 -34.5t1 -42.5v-23q-2 6 -5 6h-2v-2l2 -2q6 -16 5 -65v-48q4 -72 4 -96q2 -10 0 -26v-3q0 -2 1 -8t1 -12t-1 -18.5t-1 -18.5q0 -35 2 -72q2 -12 -4 -36q-2 -8 -2 -17q4 2 10 2q4 0 14 -2h14q23 2 47.5 3 t30.5 1h20.5t7.5 -1t-1 -3v-2h6h5t5 -2h4q-2 -2 -2 -4t2 -4q0 -4 -2 -6l-2 -2q-4 -2 -10 -4l-2 -2q-8 -4 -16 -7q-8 -2 -15 -2q-49 -14 -55 -16q-6 0 -44 -6t-52.5 -6t-39 6t-38.5 22q-12 14 -14 41t2 51.5t10 57.5q6 25 8 41q0 31 -2 70l-2 6v21v22q0 6 -1 17t-1 17 q-2 8 -1 22.5t1 20.5v11q-2 29 -4 45v9v11q-2 4 -3 10.5t-1 10.5q-6 57 -13 125l-4 -9l-22 5q-21 4 -31 10q-4 4 -8 17.5t-4 14.5v4v4t-2 1v4v4h-2zM221 1411h23h2q-2 0 -2 2q-10 4 -17 0zM225 1372h2q2 4 13 4v2h-2q-2 0 -3.5 -1t-2.5 -1h-3h-2q-2 -2 -2 -4zM246 1409h2h-2 z" />
<glyph unicode="\" horiz-adv-x="745" d="M-31 1534q0 6 6 8q4 2 8.5 2t12.5 8q0 2 3 2t3 2q6 2 8 5q5 18 19 26q2 2 22 -2l2 -2h2l2 -2v-1t0 1h2l2 -2v-2q23 -29 78 -184l4 -4q2 -6 5.5 -17.5t5.5 -17.5q2 -4 5 -14.5t5 -15.5t5 -18.5t5 -19.5q6 -20 14.5 -49t12.5 -45q2 -8 6 -24.5t8 -26.5q8 -25 24.5 -74 t20.5 -59.5t21.5 -61.5t25.5 -78q8 -29 24.5 -82t24.5 -77q2 -6 6.5 -15.5t6.5 -15.5q2 -8 4 -18.5t4 -14.5q2 -10 6 -19.5t7 -16.5t3 -9q2 -4 2 -9v-7q14 -43 25 -76h2l6 -23q20 -74 76 -219q2 -8 10 -30.5t10 -28.5l4 -6q2 -4 3 -9.5t1 -7.5q8 -25 21 -61q2 -2 4 -8l6 -6 q2 -4 6 -8.5t6 -4.5q12 -16 23 -55q6 -18 6 -22.5v-8.5l-10 -8v-6l-2 -4q-2 -2 -8 -4q-8 -14 -15 -15h-6q-2 0 -4 -2q-4 0 -8 -2h-1h-1q-2 0 -4 2q-4 0 -8 4h-2q-27 4 -31 9q-16 23 -39 71q0 2 -12 35q-23 43 -52 100l-4 7q-2 4 -7 15t-7 17q-2 4 -7 13.5t-7 13.5 q-2 6 -6.5 18.5t-6.5 18.5q-6 12 -16 39.5t-18 46.5q-2 8 -7.5 23.5t-9.5 21.5q-8 23 -25.5 62.5t-23.5 56.5q-41 100 -49 123q-6 14 -49 137q-2 8 -5 15t-6 13q-4 6 -5 15.5t-3 11.5q-2 10 -5 18.5t-6 14.5t-3 8q-2 2 -2 6t-1 6t-20 68h-2l-4 18q-10 39 -29.5 108t-23.5 87 q-2 8 -6 28.5t-4 24.5l-4 4v9.5v7.5q-6 47 -6 88q0 25 2 35q-2 0 -2 2t-2.5 6t-4.5 8t-3 12t-3 13q-6 23 -14 40q-2 2 -4 6.5t-4 6.5q-2 4 -5 7t-6 5q-12 20 -8 39z" />
<glyph unicode="]" horiz-adv-x="688" d="M92 -360l2 4q0 2 2 2v2l2 2l11 12q4 0 24 2h14.5h14.5h2q2 14 5 17.5t3 4.5t14 1l4 2q4 4 7 4q8 0 24.5 -1t26.5 -1q2 0 7 -1t7 -1h2h2q-2 -4 -4 -6v-2l2 -3v-2v-2q2 -2 4 -2h8h29q2 0 6 2q6 2 13 2q2 0 3 -1t5 -1q2 0 7 1t7 1l4 -2v-2q4 4 12 2q12 -2 25 0h3h2h2h2t3 -1 t4.5 -1h4.5v2q0 2 -1 8.5t-1 10.5v13v13v44v34q-4 4 -9 10q-16 20 -20 33q-14 49 -21 92q0 4 -4 117q0 12 -1 32.5t-3 29.5q0 25 -2 84t-2 81q-2 4 -2 10.5v8.5q0 6 -1 12t-1 8q-2 39 -6 269q0 14 4 135q0 4 -1 12t-3 14l-2 9q-2 23 -2 61q2 10 4 15.5t2 17.5l-2 6v30.5 v41.5l4 18q2 -4 4 -4t0 4q-6 14 -4 57q6 59 6 121v10.5v12.5v7v9t1 13.5t3 13.5q2 27 0 53v10v10.5t-2 11.5t-2 9q0 20 8 55q-12 0 -45 2q-35 2 -47 4q-113 8 -114 8.5t-6 1.5t-7 1h-6q-4 0 -5 1t-3 1h-2q-14 4 -14.5 5t-2.5 1h-2q0 2 -1 7t1 5l4 2q2 2 9 4h4l6 2q57 8 67 9 q68 -2 177 -9q2 8 4 11q4 6 4 10q2 2 14 0q2 0 6 6t6 6l13 -4h6q10 0 12 -2q0 -2 4 -4q4 -4 8 -6q0 -2 2 -2h2v-2q4 -2 9 -15q0 -2 2 -4q6 0 14 -2q18 -4 35 -12q10 -6 18 -43q4 -20 17 -141v-9.5v-9.5q0 -6 2 -12t2 -8q4 -98 0 -318q0 -23 -10 -182q0 -4 1 -15.5t1 -21.5 l2 -10q2 -31 0 -84q-2 -16 -4.5 -23.5t-2.5 -23.5v-8q0 -14 -1 -46t-3 -57q0 -4 -1 -11t-1 -11v-4q-2 6 -4 6v-6q4 -18 0 -80q-8 -88 -8 -168v-16.5v-16.5q0 -4 1 -10t0 -12.5t-2 -18.5t-1 -18v-4q4 -29 6 -74q0 -12 -2 -19q0 -2 -2 -4q2 -4 2 -6q4 -8 4 -10q2 -16 0 -45 v-33l-2 -18h-4v-2q6 -12 6 -45q-2 -45 2 -72q0 -2 -1 -4t0 -4t2 -3t-1 -3q0 -8 -4 -11q-53 -18 -85 -19t-32 3q-20 2 -28 2h-17h-12q-31 0 -75 1t-52 1h-67q-12 2 -23 2l-4 2h-4l-4 1t-7.5 1h-5.5h-2v2h-2v2h-2q-2 2 -4 0l2 2h-2q-4 10 0 13zM92 -375z" />
<glyph unicode="^" horiz-adv-x="1034" d="M86 752q16 37 31 69q4 20 10 43q10 27 18.5 42.5t22.5 41.5q6 12 22 39q25 57 48 107q25 59 84 166q2 4 6 14l8 20l4 9q20 45 41 71q10 14 16 19q2 0 4 2q-2 2 -4 2q-6 4 -8 6q-29 25 -39 63q-8 31 -6 43.5t2 14.5q0 4 14 6l5 10l4 8q6 -2 23.5 -5t29.5 -7q4 -2 10 -10 t8 -8v-2v-5h2v-2l2 -2h2v-2v-2q27 -35 48 -59q27 -8 65 -35q2 0 0 -12l-4 4q-2 0 0 -6q4 -6 6 -19v-2q2 -2 4 -2q2 -2 7.5 -6t8.5 -6t8 -7t9 -7q31 -29 39 -37q0 -2 18 -21q33 -39 45 -57q27 -37 39 -62q8 -16 33 -73q0 -4 3 -7.5t3 -7.5q2 -4 3 -9t1 -7q2 -4 4 -9t5 -7 l2 -5v-4v-4q2 -8 6 -20t6 -19h2l2 -10q4 -23 37 -117q0 -4 4 -17t4 -17l4 -2v-5.5v-5.5q6 -20 14 -61q2 -2 5.5 -13.5t3.5 -15.5q2 -2 2 -6q2 -6 6 -10q2 -6 -2 -8q0 -2 2 -2v-8.5t1 -3.5t1 -2t-2 -1v-2q2 -2 2 -3t-2 -3v-4v-6l2 -2h-6v-2q-2 -2 -10.5 -8.5t-10.5 -4.5 q-2 0 -6 -2q-8 0 -10 2l-2 -2h-2l-4 2l-2 2q-4 2 -13.5 3.5t-15.5 4.5t-10 7q-10 18 -27 57q-2 6 -6 14q-2 2 -4 9q-4 6 -6 6q-152 176 -250 381l-6 8q0 2 -19 53q-14 41 -16 45q-4 16 -6 35l-27 -45q-20 -39 -67 -119q-20 -35 -37 -63q-39 -88 -52 -117q-4 -8 -7 -17.5 t-5 -15.5q-2 -4 -6 -10t-6 -8q-6 -16 -15.5 -36t-9.5 -22l-8 -12t-6 -10q-35 -68 -63 -102v-3h2q-6 -6 -31 -10q-4 20 -6 41q-10 2 -21 6q-12 4 -8 13zM608 1178q4 -6 6 -15q0 -2 5.5 -14t7.5 -19q2 -4 6 -10t6 -12t6 -17.5t8 -19.5q8 -16 17 -31q-16 45 -25 62 q-6 16 -14 37.5t-10 27.5l-5.5 5.5l-5.5 5.5h-2z" />
<glyph unicode="_" horiz-adv-x="1142" d="M-111 -383q2 2 4.5 5t6.5 5l4 2l2 2h2h4l2 2l2 2h2q51 18 168 29l4 2h14.5h12.5q2 2 9 2h13q0 2 11.5 1t15.5 -1q47 2 63 2q6 0 17.5 -1t15.5 -1q14 0 44 1t46 1q66 0 90 -2q10 0 101 -2h9h9q6 0 12.5 -1t8.5 -1q6 0 13 -1t10 -1h5h5h6q33 -2 47 -2l14 -2q29 -2 135 -6 q6 0 20.5 -1t18.5 -1h4q2 0 5 -1t5 -1q25 -2 60 -4q2 0 12 -1t13 -2t10.5 -1t11.5 -1t6 -1h2h2v-3h4v-2q2 -2 4 -2t4 2q-2 0 -4 -2h2q6 -10 2 -12l-2 -2q-2 -2 -2 -4q-2 0 -1 -1t0 -1h-2t-1 -2q-16 -10 -18 -10h-2q2 -31 -45 -45q-53 -14 -109 -9l-4 -2q-4 2 -11 4t-9 2 t-8.5 1t-10.5 2.5t-11 4.5t-9 3q-16 6 -45 16q-20 6 -23 6q-18 6 -55 8q-55 4 -60 4q-10 0 -34.5 3.5t-36.5 3.5h-7.5h-7.5t-10 2h-4q-6 2 -11 2h-8h-5.5h-3.5h-3q-20 2 -39 4v-2l-12 2q-53 4 -123 0h-37l-2 -2h-7h-5q-51 -4 -65 -6l-31 -7q-6 0 -20.5 -4t-16.5 -4h-4l-2 -2 l-2 -2h-3h-1l-2 2l-9 -2h-2q-2 0 -6 4t-2 6v5q2 4 6 6l-2 2q2 0 4 1t2 3q6 4 11 8h-4h-5.5t-6.5 -1t-9 -1h-10q-18 -2 -35 -4l-12 -4q-2 0 -6.5 -2t-6.5 -2q-10 -4 -28 -6l-17 -3q-4 -2 -8 -3t-6 -2t-4 -1h-6l-4 4h-4h-2zM807 -395q16 -6 31 -8q0 -2 4 -3.5t8 -1.5h2 q4 0 6 -2q2 0 6 -2h4q2 6 4 13q-14 2 -22 2h-23q-14 0 -20 2zM948 -403q-2 -2 0 -5q0 -2 3 -2h5h2q4 0 9 7h2v2q-7 -2 -21 -2zM969 -395v-4v4z" />
<glyph unicode="`" horiz-adv-x="581" d="M92 1382q6 10 13.5 17.5t12.5 11.5t14 8t12 4t13.5 2t12.5 2q14 4 33 5q59 2 80 -11q2 -2 6 -4l2 2h2h2l27 8q4 -2 10 -10q0 -4 2 -10t2 -8q2 0 4 -2l2 -4q2 -2 6 -10.5t6 -10.5l2 -2q0 -2 2 -2q4 -6 12.5 -18.5t8.5 -13.5t6 -19h2h4q4 -2 6 -8v-2q-2 -2 -2 -4h2 q2 0 3 -3.5t3 -5.5v-4h-2l-2 -2q6 2 7 0v-4q2 -10 8 -16q2 0 2 -1v-2t1 -1h2t1 -2v-5q0 -4 4 -6q2 0 2 -1t1 -1h3h4q4 -2 2 -12q0 -8 -2 -10t-2 -3t-6 -3q4 -8 6 -17h2l2 -12q6 -37 -2 -70l-1 -1l-1 -1q-2 -8 -6 -14q-16 -41 -78 -43q-6 0 -9 4t-6 12t-4 15.5t-3 15.5l-2 8 l-5 6v6v7q-2 10 -4 30h-2t-2 2l-2 2q-4 2 -6 5l-4 2l-2 2v2l-14 14h-2l-2 6q-6 10 -22.5 32.5t-20.5 33.5l-6.5 13t-6.5 11l-2 2q-2 2 -2 4v5q-4 10 -6 18l-4 -8q-6 -8 -16 -13l-5 -4q-12 -14 -14 -10q-2 0 -2 2q-2 4 -6 6h-6l-6 2q-4 4 -13.5 10.5t-11.5 8.5q-23 16 -25 18 q-27 29 -12 49zM188 1370h2v2v2q-2 -2 -2 -4zM195 1382l2 2zM299 1194h4t0 2h-2v2z" />
<glyph unicode="a" horiz-adv-x="1060" d="M64 261q2 11 14 30q53 82 246 192q174 98 262 105q3 1 3 40q0 19 -1 48v88l-43 41q-73 65 -157 65h-3q-29 0 -38 -3t-21 -15q-20 -20 -35 -60q-11 -30 -11 -50q0 -7 1 -13q4 -31 -3.5 -45t-39.5 -29q-39 -16 -56.5 -15t-40.5 26q-25 29 -24 49q0 59 57 116 q39 41 59.5 53.5t77.5 30.5q43 14 62.5 16.5t62.5 0.5q26 -2 41 -2q23 0 23 4q0 6 13 6q18 0 62 -12q88 -25 119 -66q12 -18 25 -33q10 -10 29 -47q14 -29 14 -58.5t-10 -135.5q-6 -39 2 -62q8 -20 8 -200q2 -135 6 -173t20 -47q6 -4 41 27t35 41q0 12 33 -8q6 -4 10 -8 q10 -8 11.5 -13.5t-5.5 -17.5q-10 -16 -34 -39q-27 -20 -23 -25q4 -8 -11.5 -20t-35.5 -18q-14 -4 -19.5 -8.5t-3.5 -10.5q2 -12 -13 -19t-46 -7q-27 0 -68 18t-56 36.5t-11 53.5l4 35l-14 -10q-70 -49 -109 -66q-33 -12 -61.5 -26.5t-46.5 -14.5q-16 0 -19.5 -12t-25 -12 t-48.5 12q-23 10 -36 12q-27 0 -89 57q-74 70 -81 160q-4 27 -2 38zM289 344q-10 -49 -10 -90q0 -45 12 -82q8 -27 15 -35t32 -22q33 -18 64 -18q8 0 17 1q40 6 109 47q44 29 52 41q6 10 6 44v20v6q0 19 8 78q7 48 7 96q0 19 -1 39q-4 70 -6 72h-1q-11 0 -138 -60 q-96 -47 -113 -53q-25 -8 -36 -25.5t-17 -58.5z" />
<glyph unicode="b" horiz-adv-x="1101" d="M14 1298q0 12 9 17q10 6 10 18.5t17.5 18.5t84.5 16q40 8 103 39q55 29 74.5 31t25.5 -19q8 -41 14 -265q3 -96 2 -157q0 -82 -4 -102q-2 -10 -6 -51q0 -33 4 -35q12 4 12 12q0 20 63.5 55t115.5 46q43 8 63 16q14 8 33 8q40 0 101 -38q89 -54 149 -140q43 -61 56 -101 t17 -112q1 -26 1 -49q0 -45 -5 -76q-8 -51 -35.5 -128t-50.5 -112q-25 -37 -49 -65.5t-35 -28.5q-6 0 -18 -14q-18 -18 -111 -70q-59 -32 -141 -32q-45 0 -96 10q-55 10 -107 20q-106 20 -135 82q-18 41 -22 114t-9 433q-4 303 -8 346q-3 38 -3 84q0 23 1 47q0 92 10 141 q2 14 -18.5 22.5t-24.5 12.5q-2 6 -28 0q-24 -6 -39 -6q-20 0 -21 12zM324 170l41 -49q39 -47 57 -55q26 -10 104 -16q38 -3 59 -3q24 0 31 4q23 12 42.5 29.5t17.5 23.5q-4 10 22 33q27 25 27 38t15.5 28.5t15.5 27.5q0 10 8 11q10 0 16 16t7 108v24q0 71 -5 99 q-8 39 -27.5 94.5t-33.5 75.5q-20 29 -54 62t-61 47q-33 18 -81 18t-62 -12q-16 -14 -60.5 -35.5t-52.5 -21.5q-12 0 -8 -12q6 -16 12 -98.5t6 -123.5q0 -121 -20 -198q-6 -25 -12 -72zM477 416q-7 20 -7 35q0 22 15 34q16 14 9 14.5t-7 16.5q1 19 17 29q18 10 33.5 4 t44.5 -35q20 -18 24 -28q4 -11 4 -36q0 -49 -41 -69q-23 -11 -41 -11q-36 0 -51 46z" />
<glyph unicode="c" horiz-adv-x="978" d="M45 442q-2 13 -2 24q0 37 27 42q18 6 22 9t0 9q-6 8 0 60q8 72 21.5 98.5t68.5 89.5q37 45 45 66q8 18 21.5 28.5t21.5 3.5q6 -4 25 11q41 29 113 45q51 13 95 12q51 0 95 -16q33 -12 82 -29q35 -12 51.5 -28.5t26.5 -16.5t29.5 -24.5t23.5 -43.5q4 -20 -4 -41 q-8 -16 -4 -28q4 -8 -2 -31t-10 -23q-2 0 -43 -8q-19 -3 -35 -3q-48 0 -62 28q-8 18 -22.5 32.5t-10.5 30.5q2 10 -3 25.5t-13 21.5q-4 4 -16 27q-27 53 -70 61q-16 2 -31 2q-46 0 -86 -22q-25 -16 -68.5 -68.5t-60.5 -87.5q-24 -50 -28 -66q-2 -7 -2 -23q0 -17 2 -44 q10 -219 41 -258q14 -23 26 -49q14 -29 27.5 -41t56.5 -35q33 -18 93.5 -39.5t78.5 -21.5q14 0 31 16q20 18 58 40t49.5 20t19.5 11t33 75q20 51 31.5 62t31.5 -3q19 -14 19 -35q0 -20 -19 -61q-41 -100 -129 -185q-43 -39 -62.5 -49t-27.5 2q-16 23 -16 2q0 -8 -47.5 -24.5 t-94.5 -24.5q-25 -4 -66.5 -4t-51.5 4q-4 2 -2 14.5t6 16.5q8 8 -2 14q-6 4 -33 17q-39 18 -100 82q-63 61 -63.5 67t-23.5 37q-23 35 -38 82t-15 80q0 27 -8 65zM405 494.5q1 5.5 11 25.5q16 25 18 43q0 17 2 19q0 2 26.5 0t37.5 -7q16 -4 18 -18t12 -14q2 0 8.5 -1t8.5 -1 q6 0 13 -33t3 -43t-30.5 -10t-26.5 -9q0 -6 -39 -4q-29 2 -35 4.5t-8 14.5q-2 14 -12 22q-8 6 -7 11.5z" />
<glyph unicode="d" horiz-adv-x="1200" d="M81 391v16q0 113 13 175q16 70 54 127t122 139q23 23 39 31q16 10 35 30q36 43 58 43q7 0 12 -4q4 -2 6 -8q4 -12 29 -12l18 4q-2 0 -6 4q-12 8 -12 14q0 4 21.5 4t49 -4t43.5 -10q37 -12 53 -12q12 0 25.5 -9.5t20.5 -21.5q2 -6 26 -16l23 -11l2 95q0 115 2 180 q1 21 1 39q0 52 -5 65q-6 14 -25.5 25.5t-38.5 11.5q-12 0 -16 10.5t-25 8.5q-12 -2 -16 0t-4 14q-2 10 2 15t18 9q25 6 35.5 6.5t106.5 45.5q96 43 111 43t34 -21q10 -14 13 -30.5t7 -90.5q5 -145 5 -250q0 -211 -19 -266q-6 -18 -6 -65q0 -28 2 -66q8 -103 8 -188 q0 -61 -4 -113q-4 -58 -5 -83q0 -8 1 -13q2 -4 3 -33t3 -47q2 -59 8 -65.5t47 1t61.5 17.5t29 2t11.5 -14.5t-14.5 -17.5t-44 -24.5t-79.5 -35.5q-102 -43 -113 -55q-20 -23 -37 -3q-10 10 -18.5 10.5t-18.5 10.5t-6 53l2 43l-22 -10q-23 -10 -72 -43q-104 -68 -184 -72 q-12 -1 -22 -1q-26 0 -43 4q-24 5 -48 24q-18 14 -69.5 38.5t-90.5 67.5q-49 55 -82 127q-14 37 -15 162zM252 406q4 -49 9 -68t32 -74q37 -74 78 -114t65 -48q10 -3 28 -4q22 0 56 6q51 8 118 29t81 33q8 6 9 22v5q0 19 -5 75q-6 96 -8 293q0 137 -2 171t-11 36 q-12 6 -53 39q-43 33 -76 49q-29 12 -64.5 16.5t-53.5 -2.5q-76 -25 -133 -131q-27 -57 -39 -143q-6 -45 -21 -86q-10 -35 -10 -86v-18zM439 458.5q-9 26.5 16 49.5q14 10 16 17t0 28q-2 29 6 31q10 6 36 4t34 -6q8 -10 14 -31q2 -23 12 -33q8 -12 15 -41q8 -31 0 -41 q-8 -8 -44 -12t-61 0q-35 8 -44 34.5z" />
<glyph unicode="e" horiz-adv-x="1011" d="M96 532q14 82 62 188q47 103 69 103h2q10 -2 39 27q31 31 80 54.5t92 29.5q27 3 53 3q175 0 291 -146q32 -43 58 -109q17 -45 18 -63q0 -8 -4 -11q-10 -4 -12 -20q0 -10 -5 -12.5t-26 -2.5q-14 1 -47 1t-84 -1h-121h-149l-168 -2v-14v-15q0 -27 4 -81q4 -63 18 -96 q16 -35 17 -41q0 -16 120 -113q51 -39 101.5 -67.5t68.5 -28.5q35 0 113 104q43 57 59 64q10 4 20.5 -2.5t10.5 -18.5q0 -4 6 8q8 8 17 27q20 39 34.5 46t28.5 -13q12 -18 4 -44t-41 -77q-31 -45 -80 -97.5t-81 -74.5q-27 -18 -31 -23q-23 -20 -60.5 -27t-126.5 -10 q-66 0 -102.5 19.5t-114.5 101.5q-74 78 -98.5 117t-24.5 88q-2 43 -8 115q-5 41 -5 72q0 24 3 42zM238 625q2 0 6 2q5 2 53 2t139 -2h13q77 -2 118 -2q29 0 39 1q22 3 23 25v2q0 23 -17.5 83.5t-27.5 76.5q-17 19 -54 37q-31 16 -45 18t-49 -6q-45 -8 -105.5 -64.5 t-86.5 -115.5q-16 -35 -16 -49q0 -9 6 -9q2 0 4 1z" />
<glyph unicode="f" horiz-adv-x="1050" d="M78 881q0 8 10 12q8 4 12 16q2 8 16 11q7 1 28 1q17 0 42 -1l84 -2v63q0 61 6 100q6 33 13 103q6 61 21.5 91t49.5 48l33 16.5t35 16.5q43 20 82 33q41 12 41 24t18 14q10 2 22 2q48 0 124 -26q63 -23 102 -31q27 -6 37 -13t29 -32q25 -31 25 -53q0 -13 -7 -23 q-10 -12 -10 -26q0 -16 -19.5 -31.5t-40.5 -15.5q-27 0 -61.5 17t-48.5 40q-39 53 -53.5 68.5t-36.5 23.5q-31 10 -60 10q-29 -2 -62.5 -18t-39.5 -33q-8 -14 -18 -102q-8 -86 -15 -117q-8 -33 -10 -92l-4 -60l82 -2q80 -2 102 -2q33 -2 37 -2q33 -2 14 -41l-10 -20h-112 h-113l4 -135q4 -102 4 -320q0 -186 10.5 -221t8.5 -63v-37q0 -8 56 -17.5t116 -9.5q8 0 6 -18q-2 -20 -51.5 -26.5t-225.5 -6.5h-89q-117 0 -124 4q-8 4 -6 31l2 24l43 2q35 2 42 5t18 22q12 25 16 74q6 41 9 228q2 112 2 192q0 53 -1 92q0 27 2 98l4 78l-16 4q-20 2 -78 4 q-96 2 -96 29z" />
<glyph unicode="g" horiz-adv-x="1153" d="M70 -246q-6 14 6 35q14 18 14 24.5t12.5 18.5t38.5 64q25 47 52 92l24 41l-22 10q-46 22 -46 53q0 13 9 29q8 16 12 41q4 23 16 49q8 16 57.5 65.5t59.5 49.5q4 0 4 6t-8 6t-54 48t-46 56q0 10 -15 25q-40 37 -40 121q0 53 16 125q14 59 34.5 90t65.5 59q86 54 137 64 q36 6 88 6h27q74 -2 119 -19q96 -35 98 -41t136 -6t141 -6q8 -8 1.5 -18.5t-18.5 -10.5q-14 0 -20 -10q-4 -10 -68 -14q-45 -2 -53 -4t-6 -12q27 -82 35 -179q2 -31 -1.5 -44t-19.5 -46q-63 -137 -174 -188q-62 -27 -192 -27h-35l-80 4l-17 -32q-27 -51 -31.5 -68.5 t-0.5 -40.5q2 -20 6 -26.5t22 -10.5q27 -6 174 -6h54q99 0 123 -6q29 -6 75 -10q88 -14 144 -70q29 -27 40 -51.5t17 -71.5q1 -16 1 -29q0 -23 -4 -39q-7 -26 -36 -65q-66 -92 -168 -151.5t-209 -67.5q-14 0 -25.5 -2t-19.5 -2l-4 -2q2 -2 -4 -17q-4 -8 -13.5 -10t-45.5 2 q-49 4 -110.5 19.5t-94.5 31.5q-8 4 -21.5 11.5t-32 16.5t-26.5 13q-43 23 -60.5 41.5t-25.5 44.5q-2 23 -12 41zM213 -172q0 -39 10 -58.5t43 -37.5q35 -20 70 -27q10 -2 35.5 -7t36.5 -7q39 -8 149 -8q82 0 105.5 3t64.5 15q55 18 88 51q57 57 66 142l4 40l-23 13 q-27 8 -39 8q-10 0 -73 10q-68 10 -189 15q-131 6 -176 16q-44 10 -63 10q-4 0 -8 -1q-15 -3 -33 -30q-68 -94 -68 -147zM319 725q-1 -14 -1 -29q0 -41 4 -95q6 -73 14 -89q6 -18 6 -43q6 -86 150 -115q45 -8 53 -8t20 14q14 16 52 26.5t40 21.5q6 16 21 51q10 31 12 50 q1 9 1 32t-1 59q-4 88 -8 116.5t-16 51.5q-18 29 -46 63.5t-40 42.5q-16 10 -88 13h-19q-53 0 -73 -9q-25 -12 -54 -59q-18 -31 -22.5 -45t-4.5 -49zM425 659.5q1 14.5 36 24.5q33 8 40 17.5t11 7.5q2 0 5 -2t10.5 -6.5t13.5 -6.5q16 -8 19 -13t1 -22q-6 -23 -14 -33t-8 -14 q0 -8 -14.5 -19t-24.5 -11q-12 0 -45 32q-31 31 -30 45.5z" />
<glyph unicode="h" horiz-adv-x="1153" d="M23 1298q-4 10 9 19.5t38 13.5q29 6 92 35q57 27 92 41q20 8 36.5 11t27 1t10.5 -10q0 -10 10 -23q7 -10 7 -27t-5 -63q-4 -41 -4 -67t4 -37q6 -27 6 -90.5t-6 -97.5q-8 -39 0 -52q4 -6 6 -18t0 -22.5t-6 -10.5t-4 -51q-2 -51 2 -51t37 32q68 63 157 99q70 29 97 29 q13 0 16 -7q2 -10 43 -18q57 -10 73.5 -17.5t35.5 -29.5q20 -25 39 -64q16 -37 34.5 -106.5t20.5 -102.5q2 -47 2 -51q0 -18 -4 -84q-6 -66 -6 -217q0 -109 1 -133.5t11 -40.5q12 -18 26.5 -26.5t55.5 -18.5q27 -8 32 -16.5t-5 -24.5q-6 -8 -36 -10t-169 -2q-197 0 -199 6 q-2 8 6 22q6 16 29 19q29 2 52.5 26.5t33.5 61.5q6 24 6 80q0 33 -2 78q-6 104 -10 274q-2 160 -8 172q-4 18 -33 47q-20 23 -31.5 29t-54.5 12l-58 10l-38 -18q-37 -18 -37 -23q0 -6 -15 -6q-10 0 -40.5 -28.5t-51.5 -59.5q-10 -14 -12 -32.5t-2 -90.5q0 -102 8 -102 q4 0 4 -55q0 -36 -2 -97q-6 -141 -6 -186v-17q2 -26 22 -44q23 -20 80.5 -28.5t68.5 -12.5t9 -17l-2 -14h-205q-172 0 -222 2t-54 12q-4 12 7 17.5t42 7.5q43 0 58.5 9t13.5 32q-2 8 10 39q8 20 10 55q1 18 1 62t-1 116q-4 358 -18 416q-6 25 -6 68q0 35 4 81q6 111 10 136 q6 31 4 32q-2 4 -4 95v90l-21 14q-23 12 -69 12q-49 0 -53 6z" />
<glyph unicode="i" horiz-adv-x="655" d="M75 814q-7 11 5 19.5t46 16.5t38 20q2 12 12 13t65.5 23t67.5 32q12 8 35 9t35 -7q8 -6 10 -352q2 -336 6 -403.5t23 -100.5q12 -23 38.5 -39t37.5 -10q8 4 13 -5.5t5 -23.5v-16l-209 -2q-209 0 -219 4q-8 6 -4 16t15 14.5t22 10.5q12 4 26.5 4t29.5 22.5t24 57.5 q20 70 24 305q0 70 -9 210t-15 154q-4 12 -13.5 14.5t-48.5 2.5q-53 0 -60 11zM209 1294q-6 15 -6 30q0 16 7 32q13 32 48 55q29 16 61.5 16t51.5 -16q20 -18 24 -29q2 -12 25 -22q28 -13 28 -46q0 -8 -2 -18q-4 -23 -17 -31t-30 1q-10 4 -10 2q2 -6 -4 -10.5t-6 -20.5 q0 -8 -5 -12t-20 -6q-11 -2 -21 -2q-31 0 -65 17q-45 23 -59 60z" />
<glyph unicode="j" horiz-adv-x="569" d="M-145 -373q-12 23 -12 43q0 29 26 51q12 12 22.5 14.5t38.5 0.5q43 -2 70 -25q27 -20 33 -35.5t18 -15.5q37 -4 51.5 -18.5t20.5 -14.5q8 0 39 24.5t35 33t6 67.5q2 53 8 187q8 156 10 227q4 98 6 135q2 11 2 27q0 39 -10 110q-12 93 -12 188v27q1 38 1 64q0 52 -3 53 q-2 0 -15 25q-8 18 -13 20t-27 0q-31 -4 -35 -8q-10 -10 -19.5 -6t-12.5 14t1 21q6 12 69.5 41t112.5 41q55 16 87 16q25 0 36 -10q10 -10 6 -19q-2 -8 6 -20q8 -10 9 -134q1 -25 1 -49q0 -99 -5 -196q-3 -47 -3 -83.5t3 -62.5q10 -102 10 -190q0 -78 -8 -145 q-16 -150 -28.5 -190t-55.5 -103q-29 -39 -33 -51q-6 -14 -41 -42t-70 -45q-43 -23 -45 -26q-4 -6 -35 -6q-31 -2 -43 -6q-18 -8 -63 0t-80 24q-45 20 -59 47zM205 1272q-6 12 0 41q8 29 8 45q0 18 20.5 36.5t45.5 22.5q29 4 40 2q13 -4 25 4q10 8 17.5 5t23.5 -23 q2 -4 8 -9t9.5 -10.5t5.5 -5.5q6 -8 14 -35.5t4 -33.5q-2 -6 -23 -6q-10 0 -14 -2.5t-2 -6.5q1 -2 1 -3q0 -16 -52 -48q-27 -16 -69 -18t-52 10t-6 18q4 4 -4 17z" />
<glyph unicode="k" horiz-adv-x="1177" d="M20.5 41q8.5 10 57.5 10q35 0 43 2t8 8q0 10 18 39q14 20 17.5 32.5t3.5 47.5q0 51 4 66q6 24 8 198v80q0 107 -4 144q-5 41 -5 100q0 44 3 98q10 212 11 266v9q0 49 -9 88q-12 53 -28 62q-11 6 -45 6q-15 0 -35 -1q-12 0 -15.5 3.5t-3.5 15.5q0 18 14 20q16 2 24.5 11.5 t55.5 19.5q47 12 72 23q27 12 41 12q18 0 14 31q0 8 29 4q35 -4 45 -11.5t6 -21.5q-6 -18 -4 -25q4 -25 5 -80v-21q0 -38 -3 -52q-6 -29 1 -35t7 -336q2 -330 4 -334q4 -2 5 4q2 2 2 4q0 12 20 29q6 6 62 51q43 35 75 72q37 41 60 57q25 23 55 58q25 25 28 32t-5 15 q-12 14 -7 24q4 6 1 8.5t-17 2.5q-20 0 -33 8q-8 6 -8 8t8 10q12 10 189 12q197 -6 198 -14q0 -10 -8 -13t-53 -11q-49 -8 -96 -33q-37 -18 -61.5 -39t-90.5 -86q-98 -100 -131 -121q-33 -25 -39 -39q-4 -10 -1 -15t19 -18q27 -18 56.5 -51t40.5 -57q10 -23 20 -33 q10 -8 10 -20q0 -10 41 -54q43 -41 60 -65q23 -29 31 -37q10 -12 8 -21q-4 -8 29.5 -39.5t62.5 -46.5q41 -18 49 -24t8 -12q0 -8 25 -13q47 -8 59 -24q6 -10 -1 -19.5t-23 -13.5q-88 -10 -250 -19h-18q-49 -1 -60 9q-12 12 -47 10q-25 -2 -31 0t-14 16q-7 14 -7 24 q0 27 52 27q37 0 35 11q0 4 -11 12q-16 10 -16 16.5t-14.5 27t-19.5 22.5t-5 11t-43 56q-43 45 -58.5 80t-27.5 43q-14 10 -63 57l-50 47v-49q-2 -49 -8 -73q-6 -27 0 -33q4 -8 4 -92q2 -88 13 -115q8 -18 14 -22.5t20 -3.5q23 0 35 -9q10 -8 14 -25q4 -18 -4 -24 q-6 -4 -119 -4h-87q-209 6 -209 10q0 8 -10.5 16.5t-2 18.5z" />
<glyph unicode="l" horiz-adv-x="673" d="M88 1298q-4 14 4 22.5t31 12.5q29 2 31 8q4 6 51 29q51 25 71 39q35 27 50 16q2 -2 2 -4q0 -8 25.5 -4t25.5 -4t8 -18q8 -8 12 -42t-2 -36q-5 -2 -5 -104q0 -34 1 -80q0 -135 -2 -340q-2 -189 -3 -311v-105.5v-71.5q1 -55 3 -55q4 0 4 -51q2 -57 11 -78q2 -2 4 -8.5 t4 -15.5t4 -15l8 -29l37 -4q23 -2 46 -9t23 -11q0 -8 -6 -15.5t-14 -7.5q-12 0 -14 -8q-4 -4 -113 -4h-85q-192 2 -202 9t-5 17.5t20 10.5q16 0 20 6q2 8 33 8h31v37q0 35 14 74q10 27 11 51v25q0 34 -1 102q-4 160 -4 162v353v228q-2 0 -6 40t-8 69q-10 78 -19.5 95 t-40.5 11q-49 -12 -55 6z" />
<glyph unicode="m" horiz-adv-x="1718" d="M23 811q-4 8 5 17.5t27 11.5q25 6 140 61q117 58 129 60q16 4 20 4t6 -11q4 -10 14 -22q7 -8 7 -36q0 -16 -2 -40q0 -16 -1 -30.5t1 -22.5v-10q4 0 59 38q63 41 90 54q33 18 35 24t80 17l78 10l45 -23q45 -20 80 -57q31 -37 45 -61l14 -21l16 14q82 76 154 115l59 33h86 q59 0 79 -2t46 -14q55 -23 80 -74t41 -180q17 -118 17 -243q0 -49 -3 -99q-2 -36 -2 -60q0 -38 6 -40q10 -6 11 -54q2 -51 8 -61q6 -14 0 -23q-10 -12 -3 -23.5t21 -11.5q18 0 18.5 -7t16 -7t23.5 -6q6 -6 7 -18.5t-5 -14.5q-6 0 -162 -3q-94 -2 -140 -2q-31 0 -40 1 q-76 0 -76 24q0 18 55 19q37 0 45.5 4t8.5 19.5t16 33.5l16 17l-4 77q-4 88 -6 320l-2 242l-18 18q-29 31 -52.5 41t-66.5 10q-51 0 -78 -12q-23 -14 -31 -14t-53 -39q-39 -37 -59 -54q-10 -10 -11.5 -16t2.5 -33q8 -39 5 -49q-2 -10 -7 -180q-2 -156 -8 -211q-6 -38 -6 -61 q0 -29 10 -33q6 -4 6 -11q0 -18 35 -44.5t70 -38.5q23 -6 0 -29q-12 -12 -49 -6q-35 4 -129 6q-219 2 -256 8q-14 4 -15 16q0 18 56 19q18 0 27.5 5t25.5 24q41 45 46 57t5 63q2 66 4 80q6 51 6 141.5t-6 149.5q-10 86 -10 123q0 35 -12 49q-14 20 -31 47q-16 33 -23 39 q-4 4 -61 8q-41 0 -55.5 -3t-53.5 -21q-51 -25 -84.5 -56.5t-37.5 -33.5q-8 -4 -17.5 -129t-9.5 -254v-174l16 -37q18 -39 25 -39q4 0 4 -6q0 -20 47 -29q18 -2 24.5 -6t8.5 -15q6 -25 -19 -28q-18 -3 -89 -3q-36 0 -85 1q-154 4 -183.5 7t-35.5 17q-18 37 27 37 q35 0 52.5 19.5t29.5 70.5q13 65 13 130q0 53 -9 106q-3 25 -3 68q0 23 1 49q2 80 10 114q4 19 4 46q0 18 -2 40q-4 54 -14 72q-8 14 -30.5 33.5t-29 15.5t-42 -9t-37.5 5z" />
<glyph unicode="n" horiz-adv-x="1148" d="M29 825q0 16 26 25q25 8 39 14q18 8 77.5 29.5t66.5 21.5q10 1 18 19q4 14 9 17t28 -1q29 -2 35 -7t6 -95q2 -86 4 -86q4 0 50 39t75 63q35 35 78 49.5t112 16.5h68l51 -33q35 -23 47 -35t23 -35q16 -35 16 -43t16 -22q16 -12 17 -25q2 -36 2 -63q0 -53 -8 -66 q-5 -12 -5 -64q0 -26 1 -61q4 -119 10 -164q6 -53 6 -77q-2 -58 -2 -96q0 -58 4 -72q2 -16 32 -27.5t66 -13.5q8 -2 8.5 -17.5t-10.5 -21.5q-6 -6 -47 -6h-22q-21 1 -35 1q-27 -1 -31 -5q-8 -8 -22 2q-16 6 -98 7h-23q-65 0 -95 -5q-34 -6 -40.5 -2t-4 18t10.5 16 q12 4 21 10.5t26 10.5q18 2 47 31l31 26l4 80q4 88 4 209q0 96 -7 153.5t-36 213.5l-8 43l-33 10q-31 10 -84 12q-37 0 -49 -4t-39 -20q-39 -27 -84 -66l-45 -37v-86q-4 -100 -6 -147v-29q0 -49 4 -134q6 -114 12 -149q6 -29 -2 -38q-12 -20 17.5 -42t68.5 -22q25 2 33 -6 q8 -6 2 -20.5t-18.5 -18.5t-204.5 -4h-193v22v23l39 2q35 2 48.5 13.5t27.5 45.5q11 34 11 59q0 24 -9 75q-8 61 -8 225q2 162 6 178q4 12 8 68l4 51l-35 30l-32 31l-41 -4q-31 -4 -36 -2t-3 12z" />
<glyph unicode="o" horiz-adv-x="1099" d="M85 502q15 114 58 194q31 57 46.5 79t33.5 34q27 16 47 39q46 46 66 46q3 0 6 -1q10 -2 23 6q34 25 106 35q20 3 46 3q31 0 69 -4q72 -7 102 -22q37 -14 113 -77.5t96 -94.5q12 -20 37 -90q16 -49 19 -71.5t3 -69.5q0 -72 -16 -133q-33 -115 -48 -151t-63 -101 q-35 -45 -99 -85t-134 -54q-33 -8 -73 -8q-42 0 -91 9q-96 17 -141 56q-25 20 -45 25q-49 10 -76 59q-12 25 -33 51q-18 23 -26.5 43.5t-20.5 75.5q-11 54 -11 114q0 44 6 93zM258 512q12 -70 18 -102q12 -78 19 -91q6 -10 10 -36q6 -27 14 -41q6 -16 3 -25q-2 -3 -2 -7 q0 -23 55 -79q82 -80 172 -94l43 -6l33 24q31 20 47 33q10 10 41.5 56t44.5 73q28 54 28 183v26q-2 63 -5 82.5t-23 69.5q-23 57 -39 104q-10 35 -41 88q-23 37 -34 47.5t-46 28.5q-60 31 -113 31q-51 0 -96 -29q-57 -39 -80 -86q-12 -29 -22 -41q-9 -10 -21 -97 q-8 -57 -8 -88q0 -15 2 -24zM424 514q0 20 3 26.5t17 16.5q23 12 46.5 11t37.5 -15q6 -6 13 -8l6 -4q4 4 28 -15q27 -16 27 -30q0 -16 -8 -17q-10 -2 -23 -2q-23 -4 -20 -10q2 -4 6 -4q8 -4 8 -10.5t-12 -1.5h-5t1 -5q4 -6 0 -20q-2 -12 -19.5 -19.5t-35.5 -3.5 q-12 2 -21.5 13.5t-9.5 25.5q0 18 -10.5 18.5t-10.5 8.5t-10 12q-8 4 -8 33z" />
<glyph unicode="p" horiz-adv-x="1095" d="M-25 829q0 12 22.5 25.5t53.5 17.5q18 4 23.5 2t7.5 -10l4 -12l35 14q37 12 43 19.5t49 22t70 18.5l30 4l4 -47q3 -34 3 -77v-22q-1 -57 -5 -63l15 6l4 2q22 16 22 37q0 20 48 66q47 45 65 55t18 18q1 19 50 27q20 5 42 5q17 0 35 -3q43 -6 146 -33q20 -6 54 -39t48 -61 q8 -18 31 -49q27 -35 36 -53.5t15 -57.5q11 -56 11 -133q0 -61 -7 -137q-8 -106 -78.5 -208t-164.5 -149q-37 -16 -39 -28q-4 -8 -20 -10q-10 -2 -38 -2q-22 0 -57 1q-92 4 -132 13.5t-79 36.5q-25 20 -27 20q-1 0 -1 -20.5t1 -60.5q2 -81 7.5 -165t7.5 -90q6 -20 0 -43 q-4 -14 -2 -20t14 -19q12 -14 20.5 -16t38.5 0q37 4 47.5 -3t8.5 -32l-2 -20l-166 2q-168 0 -213 4q-33 2 -40 5t-5 13q0 8 8 11t39 3q45 2 47 9q0 4 -6 10q-8 6 18 39q24 28 24 42q0 16 -7 68q-10 64 -10 118q0 49 8 89q6 37 -3 47q-8 8 -10 154q-4 156 -4 172 q-4 51 -4 146.5t2 105.5q3 9 3 29q0 26 -5 73q-8 82 -16.5 96.5t-15.5 16.5t-38 0q-29 -2 -56.5 5t-27.5 15zM307 573q-1 -16 -1 -38q0 -34 2 -83q3 -81 6 -148.5t7.5 -67.5t16.5 -23q43 -84 61 -100q10 -10 10.5 -22.5t32.5 -29.5q25 -12 39.5 -15t57.5 -1q66 2 69.5 9 t16.5 12q23 8 59.5 37.5t48.5 46.5q25 41 32 86t7 145q0 86 -3 108.5t-13 47.5q-16 35 -21 65q-4 25 -18 70q-8 33 -26.5 54t-63.5 56q-23 17 -55 17q-30 0 -68 -15q-68 -29 -148 -104l-49 -49v-58zM438.5 476.5q2.5 13.5 22.5 21.5q11 4 37 4q13 0 30 -1q50 -3 66 -12 q18 -10 31 -10q6 0 8 -6t2 -29l-2 -36l-29 2q-27 4 -26.5 -1.5t-26.5 -5.5q-20 0 -38.5 9.5t-18.5 19.5t-12.5 6t-29 10.5t-14 28z" />
<glyph unicode="q" horiz-adv-x="1153" d="M74 428q23 199 90 301q31 43 45 70q10 18 54 51t87 55q33 17 40 29t22 10q35 -7 61 -7q17 0 29 3q25 8 34 0t60 -16q74 -14 123 -50q10 -6 39 13q35 25 82 34t57 -8q4 -5 4 -52q0 -41 -3 -113q-7 -156 -17 -179q-8 -22 -8 -162q0 -119 6 -325q4 -130 4 -191q0 -40 -2 -49 q-1 -6 -1 -18q0 -25 5 -74q6 -66 8 -92q2 -14 20.5 -30.5t34.5 -18.5q12 0 19 -10q8 -8 24 -9q14 0 18.5 -10t-5.5 -22q-11 -12 -79 -12q-44 0 -112 5q-74 6 -151 7q-112 2 -112 26q0 3 1 6q4 8 15.5 10.5t47.5 2.5h58l14 22q25 42 25 143v15v72q1 10 1 34.5t-1 63.5 q0 80 6 104q3 15 3 31t-3 33l-4 24q-2 -12 -53.5 -54t-90.5 -62q-127 -62 -160 -62q-12 0 -12 8q0 14 -86 21q-45 4 -51 14q-4 8 -47 49q-82 76 -106.5 111t-30.5 80q-7 45 -7 94q0 40 5 84zM246 397q4 -53 8 -69.5t25 -55.5q49 -90 96 -114q61 -29 127 -39q14 -4 28.5 3 t57.5 36q12 8 33.5 23.5t37 25.5t21.5 16l31 21l4 180q0 41 1 92t2 82t1 39v8q0 39 -17 93q-18 59 -40 83q-8 13 -33 31q-16 12 -30.5 15t-59.5 3q-34 2 -57 2q-28 0 -40 -3q-20 -5 -47 -31q-37 -33 -53 -45q-20 -14 -29 -48q-6 -27 -18 -63q-12 -35 -25.5 -87t-9.5 -57.5 t-6 -37.5q-8 -24 -8 -80v-23zM413.5 546.5q0.5 12.5 16.5 20.5q12 6 43 4q41 -2 49 -2q18 -2 31 -16q12 -16 20 -16q6 0 19.5 -17.5t19.5 -32.5q8 -27 -28 -41q-16 -6 -30 -6q-18 0 -34 11q-14 10 -16 0q-8 -20 -51 -5q-16 6 -16.5 32t14.5 38l12 12l-25 2q-25 4 -24.5 16.5 z" />
<glyph unicode="r" horiz-adv-x="849" d="M8 20.5q2 14.5 23 16.5q78 6 110 35q0 2 4 4q27 28 32 64q3 20 3 90q0 56 -2 145v41q-4 291 -8 313q-4 29 -17.5 39t-60.5 27.5t-62.5 17.5t-19.5 12.5t6.5 24.5t10.5 18t30 13q141 37 174 51q27 12 34 13t26 -7q20 -8 33.5 -24.5t9.5 -24.5q-6 -10 -6 -66v-55l41 39 q74 74 125 100q16 10 22 19q8 10 47 13t53 -7q16 -10 31 -12q16 -4 39 -31q22 -27 22 -52q0 -11 -4 -22q-14 -35 -67 -53q-30 -12 -52 -12q-24 0 -38 14q-14 16 -21 16q-4 0 -28 17q-43 29 -43 0q0 -10 -9 -11q-12 0 -88 -96l-28 -35l2 -120q0 -35 1 -122t1 -120 q2 -121 8 -133q2 -2 23 -37q16 -29 30.5 -41t36.5 -19q35 -8 39 -14q8 -6 5 -18.5t-12 -12.5t-5 -6t-3 -15t-215 -10h-36q-172 0 -176 9q-4 10 -13.5 10t-7.5 14.5z" />
<glyph unicode="s" horiz-adv-x="880" d="M77 201q-7 8 1 12q6 4 6 23q0 43 13.5 58t43.5 5l27 -6v-39q0 -27 9 -51.5t20 -24.5q6 0 18 -24q18 -43 109 -95q31 -16 40 -18t21 6q16 10 41 6q14 -2 27.5 3t50.5 30t45 33t6 20q-4 14 -4 45q-2 41 -37 115q-6 16 -39 37.5t-49 21.5q-8 0 -63.5 30t-92.5 54 q-27 18 -32 18.5t-54 49.5q-39 41 -47 57.5t-20 81.5q-2 14 -2 30q0 24 5 51q9 46 30 75q23 33 54.5 64.5t41.5 31.5q12 0 12 10q0 8 21.5 15.5t46.5 7.5q18 0 22 10q6 16 47 -2q25 -10 55.5 -6t51 -6t53.5 -17q33 -4 45 -8q10 -2 13 0t5 15q4 25 15.5 29.5t34.5 -3.5l28 -8 v-49l2 -121q1 -38 1 -58.5t-1 -23.5q0 -8 -24.5 -17.5t-44.5 -9.5h-25l-4 33q-4 35 -19.5 59.5t-56.5 67.5q-12 12 -12 21q0 12 -54.5 30.5t-88.5 18.5q-23 0 -52.5 -11.5t-42.5 -25.5q-8 -8 -19 -47t-11 -60q0 -16 10 -53t37 -55q76 -57 284 -164q37 -18 68 -44t31 -38 q0 -8 6 -8t6 -8t10 -17q8 -6 23 -43q20 -52 20 -91q1 -17 -3 -31q-12 -48 -77 -111q-55 -55 -79 -68q-78 -39 -170 -46q-17 -1 -33 -1q-67 0 -98 25q-12 12 -35 22q-25 12 -25 18.5t-11 15.5t-15.5 9t-4.5 -24q2 -23 -4 -28t-32 -5q-49 0 -50 31q0 18 -8 41q-10 20 -10 70.5 t-7 58.5z" />
<glyph unicode="t" horiz-adv-x="708" d="M34 867.5q-1 9.5 13 18.5t45 19q16 6 60.5 56.5t62.5 80.5q18 35 18 59.5t11 31.5q6 4 0 22q-5 12 -5 24q0 21 15 40q8 14 20 14q14 -2 31 -15.5t19 -27.5q6 -18 10 -23q6 -4 6 -135v-131h109q109 0 113.5 -10t-7.5 -19q-16 -12 -182 -16l-39 -2v-39v-57q-1 -29 0 -72 q0 -86 2 -229q4 -215 8 -236q6 -57 14.5 -73.5t32.5 -28.5l33 -19l18 15q14 10 39 38.5t35 47.5q8 14 25 4q18 -10 24 -21q6 -12 -11 -40.5t-42 -45.5q-29 -25 -53 -47q-47 -47 -101 -47q-27 0 -58.5 11.5t-45.5 23.5t-20.5 12t-22.5 17.5t-23 29.5q-15 32 -15 98q0 15 1 31 q2 50 2 93q0 86 -8 143q-4 38 -4 123v61q2 133 10 158q6 23 0 37q-4 12 -13 14t-59 0q-47 -2 -57 0t-11 11.5z" />
<glyph unicode="u" horiz-adv-x="1155" d="M14 910.5q0 9.5 9 15.5q8 8 45 10q16 1 43 1t67 -1q78 -2 101 -4q43 -8 43 -25q0 -12 8 -12q14 0 15 -80v-10q0 -71 -13 -88q-4 -4 -4 -94q0 -45 1 -112q3 -200 11 -259q6 -55 18 -94q6 -25 13.5 -33t29.5 -19q35 -16 66 -16q25 0 51.5 8t36.5 19q6 8 32.5 25.5t33 17.5 t29 26.5t38.5 46.5q16 14 18 46v15q0 45 -6 175q-5 112 -5 179q0 95 10 100q8 6 2.5 37.5t-19.5 50.5q-31 41 -61 41q-10 0 -33 14t-23 20q-1 15 23 19q16 2 57 3q24 0 56 -1q102 -4 132.5 -13.5t34.5 -35.5q3 -10 3 -39.5t-3 -77.5q-4 -58 -4 -107q0 -32 2 -59 q3 -38 3 -118v-42q-1 -114 -3 -133q-1 -5 -1 -16q0 -22 3 -70l3 -78l30 -26q23 -23 32 -26t36 7q37 12 37 -16q0 -10 -8.5 -15.5t-38.5 -13.5q-33 -8 -97.5 -31.5t-68.5 -29.5q-8 -4 -18.5 -4t-28.5 -13q-14 -8 -18.5 -8t-14.5 8q-10 10 -13.5 22.5t-5.5 78.5q-2 72 -8 72 t-6 -17q0 -31 -84 -80q-47 -29 -59 -43q-15 -16 -67 -26q-43 -8 -91 -7h-20q-111 8 -127 52q-10 23 -23 39q-16 18 -16 31.5t-19 52.5q-33 72 -33 288v25q0 57 -6 100q-6 37 -6 122t6 112q6 29 -8 47q-10 14 -17 17t-32 3t-31 2t-12 17q-10 18 -18.5 18t-8.5 9.5z" />
<glyph unicode="v" horiz-adv-x="1144" d="M38 888q-7 7 1 16t27 14q20 4 192 4t178 -4q23 -14 -14 -35q-23 -12 -49 -13q-12 0 -16.5 -4t-9.5 -20.5t0 -34.5t30 -82q35 -94 43 -129q8 -33 20 -53q8 -20 9 -29q0 -10 65 -125q10 -16 39 -76q25 -55 30 -55t13 20.5t14 30.5q2 6 17 31q12 33 22 55q35 78 82 222 q39 125 66 176l24 51l-20 16q-23 18 -41 19q-20 0 -31.5 9t-9.5 23q2 10 8 13.5t31 3.5q37 2 37 10q0 6 36 2q4 0 36 -3t46 -5q59 -4 75 -9t16 -22q0 -12 -4.5 -16t-18.5 -6q-18 -2 -40.5 -17.5t-25.5 -23.5q0 -2 -1 -11.5t-1 -15.5q-2 -31 -94 -221q-37 -74 -37 -82 t-20 -41q-20 -35 -39 -88q-18 -43 -45 -98q-25 -45 -33 -78q-10 -31 -16 -45q-8 -16 -17.5 -45t-7.5 -35q2 -8 -12 -14q-12 -6 -16.5 -21.5t2.5 -28.5q6 -14 -1.5 -19t-35.5 -9q-9 -2 -18 -2q-33 0 -53 24q-26 30 -30 97q-2 35 -47 131q-49 109 -67 159q-27 70 -35 84 q-10 27 -35 99q-27 80 -33 86q-12 12 -40.5 59t-43.5 80l-20 47l-37 2q-37 2 -37 13.5t-7 18.5z" />
<glyph unicode="w" horiz-adv-x="1615" d="M18 879q-12 20 11 30q16 4 18 11q4 6 174 6l170 2v-15q0 -15 -39 -39q-41 -26 -41 -47t23 -82q4 -12 12 -39.5t14.5 -27.5t6.5 -12.5t12 -40.5q14 -25 29 -68q18 -49 24 -61q12 -27 27 -78q29 -98 53 -144l12 -18l8 25q33 88 82 176q18 39 60 118q37 70 43 87.5t0 27.5 q-8 14 -25 58q-14 39 -19 38.5t-5 12.5q0 8 -13.5 23.5t-19.5 15.5t-10 16q-2 10 -16.5 19.5t-28.5 9.5q-8 0 -8.5 6t-14.5 8t-14 14q0 10 12 11.5t74 1.5q72 0 183.5 -5.5t121.5 -7.5q8 -4 8 -16q0 -18 -45 -27q-16 -4 -31 -30q-12 -21 -12 -44q0 -9 2 -18q6 -33 39 -108 q35 -80 35 -87.5t8 -25.5q10 -23 20 -66q6 -31 46 -119.5t47 -88.5q8 0 35.5 66.5t43.5 121.5q35 121 87 244q43 104 43 140q0 10 -3 15q-6 6 -40 9q-23 2 -29 5t-8 11q0 8 3 12t17 6q20 4 8 9q-8 2 -9 10t7 16q7 7 49 7t119 -7q72 -6 85.5 -10t13.5 -16q0 -31 -27 -31 q-8 0 -14 -10q-6 -23 -43 -64q-25 -27 -25 -33t-12.5 -17t-14.5 -26q-27 -100 -47 -159q-2 -6 -6 -16.5t-5 -16.5t-3 -8q-2 -8 -12 -13q-12 -2 -49 -84t-39 -108q-4 -55 -68 -191q-27 -61 -31 -82q-8 -25 -12 -36q-2 -6 -6 -17q-2 -12 -8.5 -15t-32.5 -5q-51 -4 -51 22 q0 10 -21 56q-55 115 -78 231q-10 55 -18 70q-2 6 -7 15t-11.5 23.5t-10.5 22.5q-20 47 -28 78q-12 37 -23 49l-12 14l-15 -41q-16 -41 -38 -86q-25 -49 -25 -65q0 -18 -33 -86q-33 -72 -35 -80q-4 -14 -30 -53q-49 -70 -54 -103q0 -18 -12 -24q-10 -6 -10 -13 q0 -10 -12.5 -17t-30.5 -7q-25 0 -33 16q-27 55 -27 88q0 14 -20 68q-23 55 -33 84q-57 176 -82 211q-10 16 -20 43.5t-10 43t-5 15.5q-6 0 -43 76q-39 78 -43 84q-49 95 -49 118q0 12 -4 14q-6 3 -33 9q-39 8 -43 15z" />
<glyph unicode="x" horiz-adv-x="1134" d="M27 891q-1 14 23 17q14 2 51 2q24 0 59 -1q25 -1 43 -1q47 0 59 7q14 10 29.5 11.5t19.5 -6.5q4 -6 30 -3t28 -1.5t37 -0.5q29 4 36 1t7 -17q0 -23 -35 -22q-10 0 -13.5 -5.5t-3.5 -29.5q0 -35 27 -84q59 -121 100 -148q10 -6 13 2q4 8 45 64q33 43 65 88l21 31l-17 34 q-10 25 -16 31t-19.5 8t-16.5 5.5t-3 15.5q0 20 13.5 20t13.5 8.5t6 14.5q10 10 33 2q18 -6 133 -8l118 -4l-2 -15q-4 -31 -41 -30q-45 0 -106 -68q-33 -35 -73 -93.5t-46 -82.5q-14 -45 -35 -45q-10 0 -32 -31l-21 -33l43 -39q41 -39 55.5 -63.5t28.5 -38.5 q39 -43 100 -158q31 -55 40 -55h1q4 2 21.5 -21.5t17.5 -33.5q0 -6 7.5 -6t7.5 -6.5t20 -28.5q25 -23 57 -33q45 -10 31 -33q-10 -18 -142 -18q-47 0 -110 2l-160 4l3 16q2 16 16 19q12 2 16 10q4 10 21 10q32 0 32 39q0 6 -1 14q-8 57 -138 226q-49 68 -53 76 q-6 10 -31 -23q-12 -16 -51 -74q-35 -49 -55 -73q-69 -85 -69 -134q0 -5 1 -10q6 -27 4 -33q0 -4 2 -5t7 1q8 2 18 -6q10 -12 16 -12q8 0 8.5 -18.5t-14.5 -22.5q-9 -2 -50 -2q-31 0 -79 1q-112 3 -119 7q-10 8 -6 19.5t19 13.5q18 4 49 41q33 37 41 43q10 8 39 53 q29 43 53 68q23 25 33 43q8 18 14 18t21 23q27 43 75 100q20 27 20.5 31t-20.5 34q-20 29 -28 41q-2 2 -11.5 16.5t-15.5 24.5q-20 31 -20 35q0 6 -23 41q-27 39 -41 64q-14 27 -80 94q-43 43 -57.5 53t-28.5 10q-23 0 -39 4q-12 2 -20 5q-6 0 -6 14z" />
<glyph unicode="y" horiz-adv-x="1148" d="M14.5 898q-0.5 9 8 15.5t179.5 6.5t175 -7q2 -4 22 0q18 2 27.5 -6t5.5 -20q-2 -6 -23.5 -10.5t-43.5 -2.5q-8 -6 -7.5 -47t12 -101t25.5 -89q14 -33 14.5 -43t47.5 -88q68 -123 94 -191q29 -74 35 -75q2 0 4 4q6 8 13 33.5t7 33.5q-2 8 15 39q16 33 16 42t16.5 22.5 t16.5 21.5q0 4 14 39q59 131 64 158q4 20 16 35q18 20 36 82q15 55 15 90v8v20l-47 2l-45 2l-2 23q-2 21 12 27q13 4 82 4h51q115 -2 125 -11q16 -14 9 -29.5t-29 -15.5q-14 0 -27.5 -18t-13.5 -37q-2 -23 -12.5 -22.5t-8.5 -8.5q4 -10 0 -10q-14 0 -53 -100 q-45 -119 -67 -164q-23 -41 -49.5 -101.5t-26.5 -72.5t-19 -51q-45 -96 -45 -121q0 -59 -39 -141q-23 -45 -31 -71t-40 -83q-35 -57 -49 -90q-12 -33 -33 -51q-18 -18 -19 -29q0 -25 -108 -92q-10 -8 -27 -25q-14 -18 -37 -24q-16 -4 -51 0t-49 12q-14 6 -43 10 q-23 4 -32 12.5t-38 51.5q-20 31 -15 52t36 21q14 0 26 17q18 23 60 26q6 1 13 1q32 0 54 -15q16 -12 50 -27l34 -16l23 12q23 10 33 29q12 16 24 31q12 16 27.5 54t23.5 40q8 4 7 10q-1 1 -1 3q0 19 44 149q6 18 4 28.5t-29 61.5q-14 31 -69.5 150.5t-55.5 121.5 q0 8 -65 133q-25 47 -31 66q-12 43 -51 108.5t-68 96.5q-31 35 -37 55q-6 12 -33 12q-18 0 -23 2t-5 11q0 12 -10 12q-8 0 -8.5 9z" />
<glyph unicode="z" horiz-adv-x="1062" d="M41 16q-2 14 12 15q10 2 10 4q-6 6 12.5 36.5t37.5 49.5q25 23 32 45q16 37 89 136t137 169l24 27l-82 2q-90 2 -92 16q-2 6 10 19q14 14 58 14q37 0 100 4l57 6l31 41q47 61 68 86q16 18 43 68q25 47 45 71l20 23l-106 4q-102 4 -213 4h-107l-12 -20q-29 -45 -29 -103 v-9q0 -51 -22 -58q-14 -6 -37 -2t-27 14q-4 8 -8 88v28q0 101 27 101q15 0 33 14q14 7 44 9q13 1 49 1q47 0 134 -1q205 -2 274 -7q111 -6 189 -8q31 -2 37 -4t6 -12q0 -14 -10.5 -22.5t-6.5 -16.5q2 -6 -15 -23.5t-28 -17.5q-8 0 -28 -39q-25 -39 -63 -93t-66 -95l-27 -37 l94 2q35 0 55.5 -1t34 -3t14.5 -6.5t-1 -12.5q-6 -14 -150 -20q-92 -4 -97 -12.5t-42 -51.5q-68 -76 -68 -90q0 -10 -98 -127q-45 -55 -109 -153l-12 -19l215 2l215 2l10 15q10 16 27 12q14 -2 37 12q23 16 29 17q12 0 14 90q2 49 6 55q6 8 39 7t49 -9q14 -6 16.5 -12.5 t0.5 -20.5q-4 -23 -7 -98q-2 -74 -12 -76t-10 -16q0 -20 -12.5 -26.5t-40.5 -2.5q-19 2 -52 2q-25 0 -59 -1q-78 -3 -91 -9q-10 -4 -79 -4h-53q-48 2 -77 2q-44 0 -46 -4t-63.5 -3t-127.5 7q-45 6 -90 8q-41 4 -49 7t-10 11z" />
<glyph unicode="{" horiz-adv-x="1042" d="M312.5 490q-21.5 49 11.5 96q8 10 30 26q6 6 12.5 10.5t12.5 7.5t8 5q6 4 49 33q4 4 8.5 6t8.5 4q37 29 61 57v2h-2l10 17q4 25 8 61q-20 33 -34 80l-4 2q0 4 -1.5 10t-1.5 11q-2 2 -3 8t-1 8q-2 2 -1 10t1 10v47q0 4 1 11.5t3 11.5v27.5v29.5q4 37 9 54q2 14 14 53 q2 2 2 5v5t2 5t4 3q2 4 2 11q0 2 2 4l2 2q4 10 11 20l4 4q14 18 26 27q8 31 19 55q20 47 55 74q23 14 58.5 28.5t50.5 14.5h8q8 2 10 2l10 2h10.5t5.5 -1t5 -1q29 -4 32 -6h5l6 -2q6 -6 6 -15h-12q-10 -2 -23 0l-2 -2h-8h-12q-45 -8 -68 -26q-37 -33 -53 -109q-2 -10 -4 -22 q2 -8 0 -17q-2 -27 -4 -28v-2v-3.5t-3 -1.5v-2v-2l-2 -2h-2q-8 -59 -10 -127q0 -14 1 -55t1 -57q2 -6 2 -14.5v-14.5q0 -2 2 -7t2 -7q0 -4 2 -18.5t4 -18.5v-2v-2q2 -2 5 -4q4 -23 4 -64q0 -6 -11 -31l2 -4v-2l3 -4q0 -6 -5 -16q-2 -2 -4 -2q0 -2 -1 -2h-1v-2v-2 q0 -2 -3 -8.5t-5 -10.5q0 -2 -2 -4t-2 0h-4q4 -6 -4 -14q-12 -14 -23 -33q-2 0 -4 -2t-2 -3t-1 -3t-2 -3t-5 -3l-2 -2q-8 -8 -14 -17q0 -2 -2.5 -4t-3.5 -3t-2 -4t-1 -5q-8 -8 -32 -23q-16 -8 -21 -10q-4 0 -6 -2q-2 0 -8 6l-6 -2h-4l-5 10q-2 4 -4 6l-8 -8q-47 -45 -72 -73 l-24 -29q31 -27 96.5 -57.5t87.5 -42.5q6 -6 16.5 -18.5t16.5 -22t8 -11.5l8 -28q8 -2 9 -2q2 0 7 -6.5t6 -7.5l1 -1l-2 -2h2q2 -2 0 -2v-2h2v-2v-2q6 -25 -4 -119l2 -2q0 -2 -1 -7t-1 -9v-7v-7.5t-2 -7.5t-2 -9q-2 -8 -4 -20.5t-4 -18.5q0 -2 -1.5 -8t-3.5 -10v-51 q0 -10 1 -27.5t1 -24.5v-27.5v-27.5q0 -2 1.5 -5t1.5 -5t-1.5 -5t1.5 -5q0 -6 2 -13v-2q0 -2 -1 -3t-1 -3q2 -12 4 -22h2l-2 -7q2 -25 18 -63q0 -2 1 -5l2 -6t3 -5h2v-2v-5q2 -4 5 -13t8 -15q0 -2 10 -17q2 -2 10 -8t8 -8t2 -2h2v-2q2 -2 4 -2v-2l7 -6h2v-8.5t-2 -6.5l-2 -2 q-4 -2 -7 -4l-2 -2h-2h-2q-20 -8 -26 -8q0 -4 2 -6q12 -23 16 -29t11 -14t7 -10q6 -6 15.5 -20.5t15.5 -23t12.5 -17.5t12.5 -14t12 -7q25 -10 59 -2q10 2 25 8q8 6 8 0h2q0 -2 17 8q16 8 18 10q-16 -41 -20 -43q-14 -12 -66 -26h-4q-4 0 -8 -1t-6 -1h-4h-9l-4 -3h-2h-6h-10 q-84 31 -158 139.5t-108 241.5l-5 11q0 2 -8 57q-6 43 -6 45q0 20 2 47q4 47 17 121q8 59 10 63q4 68 -12 140q-10 47 -105 88q-53 23 -74.5 72zM899 -461z" />
<glyph unicode="|" horiz-adv-x="468" d="M117 1411q-4 66 14 137q12 53 21 70q6 14 9 20.5t15 1.5l8 13q2 2 4 8q4 2 5 4q4 -2 18 -14q14 -13 18 -23q6 -6 4 -27.5t0 -21.5q0 -2 -1 -7t-1 -7q2 -2 1 -7.5t-1 -7.5h2v-6q-2 -6 -2 -8q8 -106 13 -184q2 -4 6 -9q8 -14 13 -24t5 -21q2 -27 4 -133v-82v-14l2 -45 q2 -61 0 -104v-27q-2 -8 -2 -14q0 -20 2 -52q0 -78 2 -104v-11v-12q0 -6 1.5 -12t1.5 -10q2 -49 5 -157.5t5 -133.5q0 -6 -2 -143q0 -4 2 -12.5t3 -15.5t3 -7q2 -23 2 -62q0 -12 -1 -17t-1 -17l2 -7q0 -12 1 -34.5t1 -38.5l-2 -21q-2 4 -4 4t0 -4q8 -14 6 -59q0 -63 6 -125 h2q2 -4 2 -6t-4 -19q2 -4 3 -8t1 -9t-1 -15.5t-1 -14.5q2 -29 6 -57q0 -4 1 -11t3 -12q0 -6 3.5 -13t3.5 -9q4 -25 2 -88q-2 -41 -4 -45q-2 -8 -3 -15q0 -4 -14 -4l-4 -10l-4 -8h-18q-2 2 -5 2q-2 -2 -4 -2q-4 -2 -6 2v2h-4q-8 2 -16 6q-6 4 -11 14h-12q-8 2 -18 5 q-2 0 -7.5 4t-7.5 4v2h-2v2v2q-2 -2 -2 0v2q-8 12 -10 61h-2v4v5q0 2 -1 4t-1 3t2 5v2q2 4 2 10t2 8q0 2 1 5.5t1 5.5q0 4 -1 12t-1 10l-2 25q0 6 2 16t2 12v2v3.5t2 3.5v2q2 2 0 6v2l2 2q0 2 2 4q-4 33 -10 76q-4 31 -7 82t-5 65q0 10 -3 30.5t-3 31.5q-4 31 -7.5 92 t-5.5 78v12v10q0 6 -1 13.5t-1 11.5q-2 100 6 309q2 27 4.5 54.5t5.5 55t5 39.5q0 4 -1 13.5t-1 17.5l-2 8q-2 23 0 68q2 12 4 18q2 4 2 13v6l-2 8v35.5v46.5v39v10q-2 12 -2 31v2q-2 68 -15 149q0 4 -1 15.5t-1 15.5t-2 10t-3 14.5t-1 21.5v20q-2 37 -8 82q-2 6 -3 16 t-1 16q-2 8 -4 18.5t-4 14.5zM193 1665z" />
<glyph unicode="}" horiz-adv-x="905" d="M178 -387h2h-2zM180 -387q10 4 25 12q14 8 22 10q23 6 52 11q6 0 10 2l4 2q4 2 8 2v2h2h4q4 2 13.5 6t13.5 4q25 4 39 14q6 4 10 7q59 68 70 188l-7 21q-4 10 -9 28.5t-7 24.5q0 2 -3 4t-5 4l-4 4q-6 8 -12 25q-2 6 -1 9t-2 9l-4 2l-6 12q-4 14 -6 23v12h4q-10 8 -12 33 q-4 41 -6 72v6v6t-1 5t-1 6t1 9.5t3 8.5q2 14 0 32v6.5v6.5q0 4 -1 8t-1 6q0 16 16 51q10 25 12 27q4 6 7 8q2 4 14 0l4 6q6 4 8 4l17 -8q16 -8 24 -14l2 -2q39 76 96 116q12 8 38 26.5t38.5 28t31.5 19.5t34 14h-2h-10.5t-17.5 1.5t-23.5 4.5t-28.5 7q-6 0 -20.5 4t-26.5 8 q-6 2 -45 16q-12 4 -26.5 9.5t-23 8.5t-12.5 3q-8 4 -16 10q-35 23 -62 70h-2l-6 24q-2 29 0 58q-4 8 -14 43q-2 4 -4 11t-4 11q-2 10 -4 29.5t-2 21.5q-2 2 -1 3.5t1 3.5q-2 2 -2.5 3t-0.5 3q-2 20 7 67q0 4 12 31l-2 4l-2 4q0 6 2 15q2 2 4 3t2 3l-2 2q2 4 3 9t3 9 q0 4 2 4l4 -2q-4 4 0 15q6 16 6 32q0 2 1 4t1 3.5t-1 3.5t-1 3t2.5 4t2.5 5q2 8 0 18v4q0 2 -1.5 4.5t-3.5 4.5t-2 4q-2 8 7 32q6 18 8 21q-8 20 -23 45q-8 14 -26.5 34.5t-41 44t-24.5 23.5q0 2 -9 9.5t-11 7.5v2q-4 2 -11 6q-10 8 -12 8q-2 2 -5 6t-5 4q-10 8 -18.5 13.5 t-12.5 8.5t-6 5t-8 6l-6 4q-10 8 -7 19q0 2 5 2q4 -2 16 -6q16 -2 33 -11q4 -2 4 0l-2 2q4 -2 16 -7t14 -7q10 -4 39 -15.5t47.5 -19.5t32.5 -20q102 -84 131 -162q27 -74 6 -205q-4 -16 -11 -48t-7 -36q-16 -84 -16 -133v-2q2 -4 4 -10t3 -11.5t1 -7.5v-2l2 -2h-2v-2v-2 l2 -2l-2 -2v-2q0 -2 -2 -6q2 0 2 -2q2 -4 2 -6q10 -29 128 -77t124 -63q10 -20 4 -39.5t-13.5 -33t-24.5 -27.5t-30.5 -22.5t-31 -17.5t-23.5 -13q-14 -10 -29 -33q-27 -41 -32 -59q-4 -8 -7.5 -13.5t-7.5 -15.5v-8q-4 -27 -10 -76q0 -6 -2 -18v-2q-2 4 -4 6v-6q2 -8 4 -72 t14 -168q2 -6 2 -18.5v-16.5t2 -11t2 -15v-11q2 -4 2 -7v-7v-6q0 -6 2.5 -12.5t2.5 -8.5v-4l-3 -2q-2 -16 -6 -35h2v-2l-4 -8q-10 -16 -20 -33q-4 -10 -10 -24q-16 -29 -19 -31q-59 -53 -135 -76q-55 -14 -98 -18q-8 0 -39 -2q-12 0 -13 2v2h-4h-11h-11t-11.5 1t-11.5 3 q-2 0 -4 -2z" />
<glyph unicode="~" horiz-adv-x="1300" d="M-2 442l2 4q2 6 4 11.5t2 7.5h-2q2 2 4 7t5 10t3 7h-2q2 6 15 23q14 23 30 41v6q4 25 9.5 41t15.5 29q66 76 156 78q55 0 141 -35q43 -8 90 -23l10 -4q10 -4 58 -24q0 -2 18 -10.5t29 -12.5q6 -4 24.5 -13.5t30.5 -15.5q74 -35 127 -49q39 -12 63 -10q80 2 154 53 q12 12 23 25q23 31 41 55q23 39 34 45q78 35 76 -31q-2 -53 -47 -118q-12 -18 -35 -39q-16 -14 -39 -27q-39 -23 -59 -31q-4 -2 -18 -4q-47 -12 -101 -14v-2l-31 2q-168 37 -331 119q-16 8 -51 26.5t-44 22.5l-8 4q-8 2 -15 7t-11 5q-37 18 -66 29q-35 4 -59 -2 q-16 -6 -31 -12q-23 -12 -29 -22.5t-27.5 -40.5t-36 -52.5t-20.5 -36.5q-8 -16 -11 -30.5t-3 -20.5v-6h-2q-6 2 -10 1t-13 -12q-2 0 -1 -5t1 -7q8 -12 15 -10q-6 -2 -15.5 -7t-15.5 -7t-12 0q-39 16 -35 75z" />
<glyph unicode="&#xad;" d="M31 479v4v4v7q2 0 2 2l4 4v2q2 2 8 2v2l14 8h35q6 0 20.5 -1t20.5 -1h10.5h10.5q6 0 24.5 -1t24.5 -1h4h2q2 0 4 2h2q12 0 42 -1t32 -1q4 0 39 -2l8 2h18q2 0 4 -1t5 -1h2h9h11h2q2 0 39 -2q2 0 10 2t21 2q2 0 4 -1t6 -1h2h9h14h6v-2q4 2 18 0h41h4h4h3h3h5.5h5.5 q10 -2 20 0h2h6t4 1t5 3q10 0 32 -4q16 -2 19 -2q2 -2 4 -2q2 -2 2 -6l4 -2l4 -2q0 -2 -2 -10.5t-6 -12.5q-2 -2 -7 -4t-6 -2h-2h-4h-2v-2q-2 0 -3 1t-1 -1q-18 -2 -94 -2l-4 -2q-10 -2 -33 -6h-23.5h-19.5t-10 -1t-10 -1h-26.5t-26.5 -3h-3q-2 2 -2 0h-4q2 -4 2 -6 q-2 -14 -6 -14l-2 -4l-4 -4v-2h-2h-2l-12 -13q-4 0 -17 5q-2 0 -7 4t-7 4t-4 1t-4 1q-2 2 -9.5 5t-9.5 3h-2h-2q-4 2 -14 5t-12 5q-4 0 -9 2l-6 4l-2 -2h-2h-8q0 2 -2 2v2h-2h-4t-4 2h-4l2 3q-2 -2 -9 0q-10 2 -20 2q-2 2 -4 2q-2 -2 -3 -1t-2 1h-3q-4 2 -11 0h-2h-3t-2 -1 t-3 -1q-4 0 -20 2l-10 4q-2 2 -4.5 2h-3.5h-3h-3h-5l-4 2h-21h-4h-3t-5 -2h-2q-10 -2 -33 4q-14 2 -16 4q-2 0 -4 2q-2 0 -2 6l-4 2z" />
<glyph unicode="&#x2000;" horiz-adv-x="832" />
<glyph unicode="&#x2001;" horiz-adv-x="1665" />
<glyph unicode="&#x2002;" horiz-adv-x="832" />
<glyph unicode="&#x2003;" horiz-adv-x="1665" />
<glyph unicode="&#x2004;" horiz-adv-x="555" />
<glyph unicode="&#x2005;" horiz-adv-x="416" />
<glyph unicode="&#x2006;" horiz-adv-x="277" />
<glyph unicode="&#x2007;" horiz-adv-x="277" />
<glyph unicode="&#x2008;" horiz-adv-x="208" />
<glyph unicode="&#x2009;" horiz-adv-x="333" />
<glyph unicode="&#x200a;" horiz-adv-x="92" />
<glyph unicode="&#x2010;" d="M31 479v4v4v7q2 0 2 2l4 4v2q2 2 8 2v2l14 8h35q6 0 20.5 -1t20.5 -1h10.5h10.5q6 0 24.5 -1t24.5 -1h4h2q2 0 4 2h2q12 0 42 -1t32 -1q4 0 39 -2l8 2h18q2 0 4 -1t5 -1h2h9h11h2q2 0 39 -2q2 0 10 2t21 2q2 0 4 -1t6 -1h2h9h14h6v-2q4 2 18 0h41h4h4h3h3h5.5h5.5 q10 -2 20 0h2h6t4 1t5 3q10 0 32 -4q16 -2 19 -2q2 -2 4 -2q2 -2 2 -6l4 -2l4 -2q0 -2 -2 -10.5t-6 -12.5q-2 -2 -7 -4t-6 -2h-2h-4h-2v-2q-2 0 -3 1t-1 -1q-18 -2 -94 -2l-4 -2q-10 -2 -33 -6h-23.5h-19.5t-10 -1t-10 -1h-26.5t-26.5 -3h-3q-2 2 -2 0h-4q2 -4 2 -6 q-2 -14 -6 -14l-2 -4l-4 -4v-2h-2h-2l-12 -13q-4 0 -17 5q-2 0 -7 4t-7 4t-4 1t-4 1q-2 2 -9.5 5t-9.5 3h-2h-2q-4 2 -14 5t-12 5q-4 0 -9 2l-6 4l-2 -2h-2h-8q0 2 -2 2v2h-2h-4t-4 2h-4l2 3q-2 -2 -9 0q-10 2 -20 2q-2 2 -4 2q-2 -2 -3 -1t-2 1h-3q-4 2 -11 0h-2h-3t-2 -1 t-3 -1q-4 0 -20 2l-10 4q-2 2 -4.5 2h-3.5h-3h-3h-5l-4 2h-21h-4h-3t-5 -2h-2q-10 -2 -33 4q-14 2 -16 4q-2 0 -4 2q-2 0 -2 6l-4 2z" />
<glyph unicode="&#x2011;" d="M31 479v4v4v7q2 0 2 2l4 4v2q2 2 8 2v2l14 8h35q6 0 20.5 -1t20.5 -1h10.5h10.5q6 0 24.5 -1t24.5 -1h4h2q2 0 4 2h2q12 0 42 -1t32 -1q4 0 39 -2l8 2h18q2 0 4 -1t5 -1h2h9h11h2q2 0 39 -2q2 0 10 2t21 2q2 0 4 -1t6 -1h2h9h14h6v-2q4 2 18 0h41h4h4h3h3h5.5h5.5 q10 -2 20 0h2h6t4 1t5 3q10 0 32 -4q16 -2 19 -2q2 -2 4 -2q2 -2 2 -6l4 -2l4 -2q0 -2 -2 -10.5t-6 -12.5q-2 -2 -7 -4t-6 -2h-2h-4h-2v-2q-2 0 -3 1t-1 -1q-18 -2 -94 -2l-4 -2q-10 -2 -33 -6h-23.5h-19.5t-10 -1t-10 -1h-26.5t-26.5 -3h-3q-2 2 -2 0h-4q2 -4 2 -6 q-2 -14 -6 -14l-2 -4l-4 -4v-2h-2h-2l-12 -13q-4 0 -17 5q-2 0 -7 4t-7 4t-4 1t-4 1q-2 2 -9.5 5t-9.5 3h-2h-2q-4 2 -14 5t-12 5q-4 0 -9 2l-6 4l-2 -2h-2h-8q0 2 -2 2v2h-2h-4t-4 2h-4l2 3q-2 -2 -9 0q-10 2 -20 2q-2 2 -4 2q-2 -2 -3 -1t-2 1h-3q-4 2 -11 0h-2h-3t-2 -1 t-3 -1q-4 0 -20 2l-10 4q-2 2 -4.5 2h-3.5h-3h-3h-5l-4 2h-21h-4h-3t-5 -2h-2q-10 -2 -33 4q-14 2 -16 4q-2 0 -4 2q-2 0 -2 6l-4 2z" />
<glyph unicode="&#x2012;" d="M31 479v4v4v7q2 0 2 2l4 4v2q2 2 8 2v2l14 8h35q6 0 20.5 -1t20.5 -1h10.5h10.5q6 0 24.5 -1t24.5 -1h4h2q2 0 4 2h2q12 0 42 -1t32 -1q4 0 39 -2l8 2h18q2 0 4 -1t5 -1h2h9h11h2q2 0 39 -2q2 0 10 2t21 2q2 0 4 -1t6 -1h2h9h14h6v-2q4 2 18 0h41h4h4h3h3h5.5h5.5 q10 -2 20 0h2h6t4 1t5 3q10 0 32 -4q16 -2 19 -2q2 -2 4 -2q2 -2 2 -6l4 -2l4 -2q0 -2 -2 -10.5t-6 -12.5q-2 -2 -7 -4t-6 -2h-2h-4h-2v-2q-2 0 -3 1t-1 -1q-18 -2 -94 -2l-4 -2q-10 -2 -33 -6h-23.5h-19.5t-10 -1t-10 -1h-26.5t-26.5 -3h-3q-2 2 -2 0h-4q2 -4 2 -6 q-2 -14 -6 -14l-2 -4l-4 -4v-2h-2h-2l-12 -13q-4 0 -17 5q-2 0 -7 4t-7 4t-4 1t-4 1q-2 2 -9.5 5t-9.5 3h-2h-2q-4 2 -14 5t-12 5q-4 0 -9 2l-6 4l-2 -2h-2h-8q0 2 -2 2v2h-2h-4t-4 2h-4l2 3q-2 -2 -9 0q-10 2 -20 2q-2 2 -4 2q-2 -2 -3 -1t-2 1h-3q-4 2 -11 0h-2h-3t-2 -1 t-3 -1q-4 0 -20 2l-10 4q-2 2 -4.5 2h-3.5h-3h-3h-5l-4 2h-21h-4h-3t-5 -2h-2q-10 -2 -33 4q-14 2 -16 4q-2 0 -4 2q-2 0 -2 6l-4 2z" />
<glyph unicode="&#x2013;" horiz-adv-x="1196" d="M31 479v4v4v7q3 0 3 2l6 4v2q4 2 13 2v2l22 8h54q10 0 32.5 -1t32.5 -1h16h16q10 0 39 -1t38 -1h6h3q4 0 7 2h3q19 0 65.5 -1t49.5 -1q7 0 61 -2l13 2h28q3 0 6 -1t8 -1h3h14h18h3q3 0 61 -2q3 0 15.5 2t32.5 2q3 0 6 -1t10 -1h3h14h22h9v-2q6 2 28 0h64h7h6h4.5h4.5h8.5 h9.5q15 -2 31 0h3h9t6.5 1t7.5 3q16 0 50 -4q25 -2 30 -2q3 -2 6 -2q3 -2 3 -6l7 -2l6 -2q0 -2 -3 -10.5t-10 -12.5q-3 -2 -10.5 -4t-9 -2h-3.5h-6h-3v-2q-3 0 -5 1t-2 -1q-28 -2 -147 -2l-6 -2q-15 -2 -51 -6h-37h-30.5t-16 -1t-15.5 -1h-41t-42 -3h-4q-4 2 -4 0h-6 q3 -4 3 -6q-3 -14 -9 -14l-3 -4l-6 -4v-2h-4h-3l-18 -13q-7 0 -27 5q-3 0 -11 4t-11 4t-6 1t-6 1q-4 2 -15.5 5t-14.5 3h-3h-3q-7 2 -22.5 5t-18.5 5q-6 0 -14 2l-9 4l-4 -2h-3h-12q0 2 -3 2v2h-3h-7t-6 2h-6l3 3q-3 -2 -14 0q-16 2 -31 2q-4 2 -7 2q-3 -2 -4.5 -1t-3 1 h-4.5q-6 2 -17 0h-4h-4.5t-3 -1t-4.5 -1q-6 0 -31 2l-16 4q-3 2 -7 2h-5.5h-4.5h-4.5h-8.5l-6 2h-33h-6h-4.5t-8.5 -2h-3q-15 -2 -51 4q-22 2 -25 4q-3 0 -6 2q-4 0 -4 6l-6 2z" />
<glyph unicode="&#x2014;" horiz-adv-x="2220" d="M31 479v4v4v7q6 0 6 2q7 2 13 4v2q6 2 25 2v2l44 8h109q19 0 64 -1t64 -1h33h33q19 0 76.5 -1t76.5 -1h13h6q6 0 12 2h7q37 0 131 -1t100 -1q12 0 122 -2l25 2h56q6 0 12.5 -1t15.5 -1h7h28h34h6q7 0 122 -2q7 0 32 2t65 2q6 0 12.5 -1t19.5 -1h6h28h44h18v-2q13 2 57 0 h128h12.5h12.5h9h9.5h17.5h17q31 -2 63 0h6h18.5t12.5 1t16 3q31 0 100 -4q50 -2 59 -2q6 -2 13 -2q6 -2 6 -6l12 -2l13 -2q0 -2 -6.5 -10.5t-18.5 -12.5q-6 -2 -22 -4t-19 -2h-6h-12h-7v-2q-6 0 -9 1t-3 -1q-56 -2 -294 -2l-13 -2q-31 -2 -103 -6h-73.5h-61t-31 -1 t-31.5 -1h-82.5t-82.5 -3h-10q-6 2 -6 0h-13q7 -4 7 -6q-7 -14 -19 -14l-6 -4q-7 -2 -13 -4v-2h-6h-6l-38 -13q-12 0 -53 5q-6 0 -22 4t-22 4t-12.5 1t-12.5 1q-6 2 -29.5 5t-29.5 3h-7h-6q-12 2 -43.5 5t-37.5 5q-13 0 -28 2l-19 4l-6 -2h-6h-25q0 2 -7 2v2h-6h-12.5 t-12.5 2h-13l7 3q-7 -2 -28 0q-32 2 -63 2q-6 2 -12 2q-7 -2 -10 -1t-6 1h-9q-13 2 -35 0h-6h-9.5t-6.5 -1t-9 -1q-13 0 -63 2l-31 4q-6 2 -14 2h-11h-9.5h-9.5h-15l-13 2h-65h-13h-9.5t-15.5 -2h-6q-32 -2 -103 4q-44 2 -50 4q-7 0 -13 2q-6 0 -6 6l-13 2z" />
<glyph unicode="&#x2018;" horiz-adv-x="663" d="M184 1051v26v9.5t2 11.5q2 8 11 30q16 47 24 68q2 2 15 25q2 6 6 15t6 13q41 55 94 92q39 25 61 33q2 0 8.5 3t14.5 5q6 2 8 -4l8 2q4 2 6.5 2t6.5 2q6 0 8 2q-2 -6 -6 -16t-8 -14q-8 -10 -21.5 -20.5t-15.5 -12.5q-2 0 -6 -4t-5 -4l-1 -1t-5 -4t-4 -5v-2l-4 -3 q-4 -4 -4 -6q-37 -57 -61 -127q-20 -59 -27 -106q6 10 14 16q20 16 58.5 19.5t46.5 -4.5q10 -10 12 -13l-2 -2l4 -4t2 -4q35 -12 70 -35q23 -14 14 -47q-6 -18 -27 -33q-14 -8 -24 -14h2q6 0 12 2h2h2q0 2 1 1t3 -1t4 2l3 2q2 2 2 4h6h4l2 -2l4 -6h2v-2q8 -16 8 -22v-5 q0 -2 -2 -2v-2h-2q-6 -6 -33 -12h-2q0 -2 -1 -2h-2h-2h-2h-3h-2h-6h-6h-2h-2q-4 0 -11 -2h-4q-6 0 -10 -2l-2 -2l-2 -2h-2v-2h-2q-8 -4 -35 -2h-4h-2h-2h-2h-2q-2 2 -5 2t-3 2q-2 0 -3.5 1t-3.5 1h-6h-6h-14q-4 2 -17 6h-3t-2 1t-3 1v2q-2 0 -4 2h-2v2q-4 2 -8 6h-2 q-10 4 -19 11q-10 10 -14 20l-8 4q-55 37 -66 107z" />
<glyph unicode="&#x2019;" horiz-adv-x="679" d="M203 1247q-10 49 14 107q6 10 14 16q8 8 21 10q8 2 33 6q4 2 6 2.5t4 0.5q18 2 39 -3h4h4q12 2 18 0h5h4q20 -4 24 -6q16 -6 25 -12l10 -10q8 0 16 2q4 -2 11 -12q2 -4 3 -10.5t1 -8.5l4 -4t2 -4t4 -10t6 -11v-2l2 -2q4 -4 9.5 -16t6.5 -12t3 -17q4 0 6 -2q4 -2 4 -6 q0 -2 -2 -2v-2h2q0 -2 1 -5t1 -5q2 -2 0 -2l-2 -2q2 2 4 0v-4q0 -10 6 -17q0 -2 2 -2t2 -1v-3v-2q0 -4 4 -6l2 -2h4h5q2 -2 0 -14q-2 -8 -3 -11l-3 -3t-13 -7l-2 -4q-2 -2 -4 -2t-18 -8q0 -12 -3 -27q0 -10 -12 -33q0 -2 2 -6v-4q0 -6 -6 -14q-2 -2 -4 -3t-4 -3v-2l-4 -7 q-4 -6 -6 -10q-2 -2 -4 -2l-2 -2l-3 2q2 -6 -8 -12q-14 -10 -28 -25q0 -2 -2 -3t-3.5 -2t-2.5 -2l-2 -2t-4 -3t-5 -2l-16 -12q0 -2 -2 -3t-4 -3.5t-3 -4.5t-4 -4q-8 -6 -34 -18q-18 -8 -21 -8q-4 0 -8 -2q-2 0 -6 6l-6 -2h-4l-4 10q-3 10 -3 16q2 4 7 11l6 4h2q2 2 2 4h2 l2 2l-2 2h4v2q6 4 29.5 28.5t31.5 34.5v2q0 2 2.5 4.5t2.5 3.5t1 3t1 3t2 3l2 2q2 4 6 14v2l4 4q0 2 -2 17q0 2 -1 8t-2 9t0 9t-1 11h-2v3v3l2 2q0 2 -2 4v2l2 2v12h-2l2 4q0 10 -8 47v3q-2 -2 -2 -3v-2v-2q-25 -25 -31 -28q-2 0 -7 -1t-8 -1h-2h-2h-2q-8 2 -14 6 q-10 -2 -20 -2q-27 2 -48.5 20.5t-27.5 42.5zM381 1231z" />
<glyph unicode="&#x201c;" horiz-adv-x="1003" d="M72 1159q12 33 16 62q6 45 37 45q14 0 47 34q29 33 72 56q47 23 65.5 19.5t18.5 -36.5q0 -14 -29 -32q-29 -23 -47 -52q-20 -31 -33 -43q-20 -23 -4 -88l6 -32q4 -14 14.5 -19.5t16.5 2.5q4 8 39 8t49 -8q16 -8 27 -20q8 -10 20 -7t15.5 -8.5t-7.5 -19.5q-12 -8 -6 -8 q8 0 8 -13.5t-6 -27.5q-6 -12 -18.5 -12.5t-19.5 -13.5t-1 -19q25 -25 -28 -39q-25 -6 -58 -6q-43 0 -60.5 4t-25.5 20q-10 16 -24 21q-12 2 -28.5 21.5t-16.5 31.5q0 10 -11 18q-8 6 -26 37q-31 53 -2 125zM565 1073q0 72 14.5 114t57.5 93q31 37 49 50.5t53 27.5 q55 18 65.5 1.5t-30.5 -59.5q-33 -35 -47 -59q-12 -23 -22.5 -72t-8.5 -73l4 -25l31 10q35 14 57 13q16 -2 19.5 -7.5t5.5 -29.5q0 -23 4 -30t17 -13q6 -2 10 -5t5 -5.5t1 -4.5q-4 -4 2 -12q25 -29 -8 -41q-18 -8 -24.5 -22.5t-22.5 -18.5q-18 -6 -30.5 -16t-51.5 -8 q-63 0 -70 28q-6 12 -37 43q-29 31 -36 50.5t-7 70.5z" />
<glyph unicode="&#x201d;" horiz-adv-x="1003" d="M68 1249q-8 29 2 60.5t39 44.5q10 4 24 6l4 4h2h1h3v2q4 2 11.5 3t14.5 2t9 1h12v2q2 0 3 2h4h2h2h3h3h2v-2q0 4 4 2h12q2 0 2 2q2 0 2 -1t2 -1t5 2h2v2l2 2q2 0 8 -4l4 -2l2 -2h4h8t5 1t5 1q4 0 12.5 -1t10.5 -1h2h2h2q12 0 33 -10q2 0 10 -12l2 2h6t6 -4l-2 -2 q0 -2 2 -2h3l2 -3q2 -2 2 -4q2 -2 0 -2v-2q-2 -2 -4 -2q8 0 8 -2q2 -8 8 -12l2 -2h2q2 0 0 -2v-2q2 -4 6 -6h2h4h4q4 -2 0 -13q-2 -6 -2 -8q-4 -2 -4 -4l-14 -6l-4 -4l-2 -2h-2q-10 -4 -19 -8q4 -12 6 -27h2h3l-3 -12q-2 -45 -6 -78h3t1 -2h2q31 -14 31 -17q2 -8 -4 -26 q-2 -6 -8 -16.5t-7 -12.5t-3 -7t-2 -7q-4 -6 -11.5 -17.5t-7.5 -15.5q-2 0 -2 -2l-2 -2v-2v-2q-8 -14 -35 -45q-2 -2 -22 -17l-2 -4v-4q-2 -4 -8 -8q-2 -2 -4.5 -2h-4.5v-2l-5 -5t-7 -5q-2 0 -4 -2l-2 2q0 -4 -8 -9q-18 -20 -23 -20l-2 -2l-3 -3t-1 1l-2 -2l-2 -2h-2h-2 q-10 -2 -11 -2h-3v-2h-3l-2 -2v-2q-4 -4 -20 -5q-10 -2 -12 -2q-2 2 -4 2t-5 7h-4l-2 2q-4 24 -4 26t1 5.5t1 5.5h2v2h2v2h2q4 6 11 10l12 12q0 2 2 6q4 10 12 27.5t13 28.5q31 74 30 75q4 12 6 37q8 55 2 80q-2 -2 -4 -2v-2q-6 -2 -14 -4t-10 -2l-4 -2h-6h-5q-4 -2 -6 -2 h-4h-6q-12 2 -22 6q-33 4 -58 22q-20 14 -26 35zM182 1288q8 0 8 2l-2 2v2q-4 -2 -6 -6zM215 1317h2h-2zM217 1317q2 0 4 -2l2 -2q6 4 8 6q2 0 2 2v2h5h-15v-2l-2 2q0 -4 -4 -4v-2zM553 1270q0 4 2 8q2 10 12 22q14 23 23 29l10 4q18 8 41 10h2v3h4q8 2 17 4l4 2h2q2 6 2 10 q2 0 10 2q2 2 7 1t7 -1q0 2 2 2h4.5t8.5 1t8 1h2l2 2q8 0 27 -2q2 -2 10 -8h2q2 2 4 2t4 -1t3 -1t1 -2l-2 -2h2q2 0 4 -1t3 -3t-1 -2l-2 -2q6 2 6 0v-2q2 -6 9 -9v-2h2h2v-2v-2q0 -2 4 -4h2h4h4q6 0 2 -10q-4 -6 -4 -8q-2 -2 -4 -2l2 -2q2 -2 4 -15q0 2 8 0q4 -2 6 -6l-2 -2 v-2h2q0 -2 2 -4t2 -4q2 -2 0 -4h-4q6 0 6 -2v-4v-7q2 0 3 -2v-2l4 -4v-2v-2h2l1 -1t-1 -3v-2q0 -4 4 -8q2 -2 3 -2t5 -2h2q4 -4 -2 -17l-6 -6q2 -2 2 -6q4 -6 4 -10q2 -10 4 -28.5t4 -24.5v-3v-4v-2l2 -2q2 -35 -10 -78q-4 -8 -21 -34q-2 0 0 -6v-5q0 -8 -8 -16q-2 -2 -4 -3 t-4 -3v-2q-2 -2 -6 -7l-8 -10q0 -2 -2 -4h-2l-4 2q2 -6 -9 -14q-14 -10 -28 -24q-2 -2 -4 -3.5t-3 -2.5t-2.5 -2t-2.5 -3t-4 -3t-5 -1q-8 -6 -14 -12q-2 -2 -4 -3t-3 -2t-1 -5l-2 -2q-10 -8 -33 -15q-16 -6 -19 -6h-8q-2 0 -4 6h-6q-4 0 -4 1t-3 11.5t-3 16.5q0 4 3 9t5 5 l2 2q0 2 1 2t1 1t1 2t3 1q6 8 24.5 29t26.5 31v2q0 2 1 4t2 3t2.5 4t1.5 4t2 2t3 3t9 17l2 2q2 2 2 4q2 4 4 22v12.5v10.5q0 4 1 11t1 11q0 2 -1 3.5t-1 2.5t2 3v2q0 2 -2 6v2h1t1 2v12h-2l2 2q2 12 -6 41q0 2 -1 7.5t-1 7.5h-2q0 2 1 3t-1 3v18q-2 2 -4 6h-4 q-16 -12 -33 -18q-4 0 -17.5 -5t-19.5 -7t-20.5 -4.5t-22.5 4.5q-27 8 -36 35.5t-7 52.5z" />
<glyph unicode="&#x202f;" horiz-adv-x="333" />
<glyph unicode="&#x205f;" horiz-adv-x="416" />
<glyph unicode="&#x25fc;" horiz-adv-x="942" d="M0 0v942h942v-942h-942z" />
</font>
</defs>
</svg>
